<?xml version="1.0" encoding="utf-8"?>
<!-- Generator: Adobe Illustrator 17.0.0, SVG Export Plug-In . SVG Version: 6.00 Build 0)  -->
<!DOCTYPE svg PUBLIC "-//W3C//DTD SVG 1.1//EN" "http://www.w3.org/Graphics/SVG/1.1/DTD/svg11.dtd">
<svg version="1.1" id="Layer_1" xmlns="http://www.w3.org/2000/svg" xmlns:xlink="http://www.w3.org/1999/xlink" x="0px" y="0px"
	 width="1500px" height="600px" viewBox="0 0 1500 600" enable-background="new 0 0 1500 600" xml:space="preserve">
<g id="XMLID_17_">
	<g>
		<path fill="#F8EC24" d="M168.207,115.508h268.825v75.607H277.417v61.446H413.75v71.046H277.417v143.773h-109.21V115.508z"/>
		<path fill="#F8EC24" d="M665.6,409.295H542.158l-17.15,58.086H413.99l132.252-351.873h118.601l132.222,351.873h-113.86
			L665.6,409.295z M643.046,333.208l-38.839-126.491l-38.434,126.491H643.046z"/>
		<path fill="#F8EC24" d="M835.947,115.508h108.971v351.873H835.947V115.508z"/>
		<path fill="#F8EC24" d="M1022.925,115.508h108.73v265.224h169.695v86.648h-278.426V115.508z"/>
	</g>
	<g>
		<g>
			<path fill="#010101" d="M185.035,565.764c-29.77,0-53.904-24.872-53.904-55.554V158.338c0-30.682,24.134-55.554,53.904-55.554
				h260.84c29.77,0,53.904,24.873,53.904,55.554v75.607c0,19.519-9.766,36.686-24.538,46.594c1.27,4.728,1.948,9.708,1.948,14.852
				v71.046c0,30.682-24.134,55.555-53.904,55.555h-78.379v88.219c0,30.682-24.134,55.554-53.904,55.554H185.035z"/>
			<path fill="#010101" d="M684.736,565.764c-23.749,0-44.699-16.018-51.587-39.44l-5.483-18.645h-39.498l-5.232,18.263
				c-6.766,23.615-27.807,39.822-51.698,39.822h-107.72c-17.687,0-34.248-8.941-44.317-23.928
				c-10.069-14.985-12.364-34.108-6.141-51.171l128.324-351.873c7.9-21.663,28.003-36.009,50.458-36.009H666.92
				c22.456,0,42.56,14.348,50.459,36.013l128.295,351.873c6.221,17.062,3.925,36.185-6.144,51.169
				c-10.069,14.985-26.629,23.926-44.315,23.926H684.736z"/>
			<path fill="#010101" d="M832.942,565.764c-29.77,0-53.905-24.872-53.905-55.554V158.338c0-30.682,24.134-55.554,53.905-55.554
				h105.734c29.77,0,53.905,24.873,53.905,55.554V510.21c0,30.682-24.134,55.554-53.905,55.554H832.942z"/>
			<path fill="#010101" d="M1014.367,565.764c-29.77,0-53.905-24.872-53.905-55.554V158.338c0-30.682,24.134-55.554,53.905-55.554
				h105.501c29.77,0,53.905,24.873,53.905,55.554v209.67h110.75c29.77,0,53.905,24.872,53.905,55.554v86.648
				c0,30.682-24.134,55.554-53.905,55.554H1014.367z"/>
		</g>
		<g>
			<path fill="#010101" d="M179.482,551.487c-30.071,0-54.449-24.872-54.449-55.554V144.061c0-30.682,24.378-55.554,54.449-55.554
				h263.475c30.071,0,54.449,24.873,54.449,55.554v75.607c0,19.519-9.865,36.686-24.786,46.594
				c1.283,4.728,1.967,9.708,1.967,14.852v71.046c0,30.682-24.378,55.555-54.449,55.555h-79.171v88.219
				c0,30.682-24.378,55.554-54.449,55.554H179.482z"/>
			<path fill="#010101" d="M684.231,551.487c-23.989,0-45.151-16.018-52.108-39.44l-5.538-18.645h-39.897l-5.285,18.263
				c-6.834,23.615-28.087,39.822-52.22,39.822H420.373c-17.865,0-34.594-8.941-44.764-23.928
				c-10.17-14.985-12.489-34.108-6.203-51.171l129.62-351.873c7.98-21.663,28.286-36.009,50.968-36.009h116.241
				c22.683,0,42.99,14.348,50.969,36.013l129.59,351.873c6.284,17.062,3.964,36.185-6.206,51.169
				c-10.17,14.985-26.898,23.926-44.763,23.926H684.231z"/>
			<path fill="#010101" d="M833.934,551.487c-30.071,0-54.449-24.872-54.449-55.554V144.061c0-30.682,24.378-55.554,54.449-55.554
				h106.802c30.071,0,54.449,24.873,54.449,55.554v351.873c0,30.682-24.378,55.554-54.449,55.554H833.934z"/>
			<path fill="#010101" d="M1017.191,551.487c-30.071,0-54.449-24.872-54.449-55.554V144.061c0-30.682,24.378-55.554,54.449-55.554
				h106.567c30.071,0,54.449,24.873,54.449,55.554v209.67h111.869c30.071,0,54.449,24.872,54.449,55.554v86.648
				c0,30.682-24.378,55.554-54.449,55.554H1017.191z"/>
		</g>
		<g>
			<path fill="#010101" d="M173.873,537.211c-30.375,0-54.999-24.872-54.999-55.554V129.785c0-30.682,24.624-55.554,54.999-55.554
				h266.136c30.375,0,54.999,24.873,54.999,55.554v75.607c0,19.519-9.965,36.686-25.037,46.594
				c1.296,4.728,1.987,9.708,1.987,14.852v71.046c0,30.682-24.624,55.555-54.999,55.555h-79.971v88.219
				c0,30.682-24.624,55.554-54.999,55.554H173.873z"/>
			<path fill="#010101" d="M683.72,537.211c-24.231,0-45.607-16.018-52.634-39.44l-5.594-18.645h-40.3l-5.339,18.263
				c-6.903,23.615-28.371,39.822-52.747,39.822H417.198c-18.046,0-34.943-8.941-45.217-23.928
				c-10.273-14.985-12.615-34.108-6.266-51.171L496.645,110.24c8.061-21.663,28.572-36.009,51.482-36.009h117.415
				c22.912,0,43.424,14.348,51.484,36.013l130.899,351.873c6.347,17.062,4.004,36.185-6.269,51.169
				c-10.273,14.985-27.17,23.926-45.215,23.926H683.72z"/>
			<path fill="#010101" d="M834.936,537.211c-30.375,0-54.999-24.872-54.999-55.554V129.785c0-30.682,24.624-55.554,54.999-55.554
				h107.881c30.375,0,54.999,24.873,54.999,55.554v351.873c0,30.682-24.624,55.554-54.999,55.554H834.936z"/>
			<path fill="#010101" d="M1020.043,537.211c-30.375,0-54.999-24.872-54.999-55.554V129.785c0-30.682,24.624-55.554,54.999-55.554
				h107.643c30.375,0,54.999,24.873,54.999,55.554v209.67h112.999c30.375,0,54.999,24.872,54.999,55.554v86.648
				c0,30.682-24.624,55.554-54.999,55.554H1020.043z"/>
		</g>
		<g>
			<path fill="#010101" d="M168.207,522.935c-30.682,0-55.554-24.872-55.554-55.554V115.508c0-30.682,24.873-55.554,55.554-55.554
				h268.825c30.682,0,55.554,24.873,55.554,55.554v75.607c0,19.519-10.065,36.686-25.29,46.594
				c1.309,4.728,2.007,9.708,2.007,14.852v71.046c0,30.682-24.873,55.555-55.554,55.555h-80.778v88.219
				c0,30.682-24.873,55.554-55.554,55.554H168.207z"/>
			<path fill="#010101" d="M683.205,522.935c-24.476,0-46.067-16.018-53.166-39.44l-5.651-18.645H583.68l-5.393,18.263
				c-6.973,23.615-28.658,39.822-53.28,39.822H413.99c-18.228,0-35.296-8.941-45.673-23.928
				c-10.377-14.985-12.742-34.108-6.329-51.171L494.239,95.963c8.142-21.663,28.86-36.009,52.002-36.009h118.601
				c23.144,0,43.863,14.348,52.004,36.013L849.068,447.84c6.411,17.062,4.045,36.185-6.332,51.169
				c-10.377,14.985-27.444,23.926-45.672,23.926H683.205z"/>
			<path fill="#010101" d="M835.947,522.935c-30.682,0-55.555-24.872-55.555-55.554V115.508c0-30.682,24.873-55.554,55.555-55.554
				h108.971c30.682,0,55.555,24.873,55.555,55.554v351.873c0,30.682-24.873,55.554-55.555,55.554H835.947z"/>
			<path fill="#010101" d="M1022.925,522.935c-30.682,0-55.555-24.872-55.555-55.554V115.508c0-30.682,24.873-55.554,55.555-55.554
				h108.73c30.682,0,55.555,24.873,55.555,55.554v209.67h114.141c30.682,0,55.555,24.872,55.555,55.554v86.648
				c0,30.682-24.873,55.554-55.555,55.554H1022.925z"/>
		</g>
	</g>
	<g>
		<path fill="#ED2025" d="M168.207,514.999c-26.299,0-47.618-21.319-47.618-47.618V115.508c0-26.299,21.319-47.618,47.618-47.618
			h268.825c26.299,0,47.618,21.319,47.618,47.618v75.607c0,18.917-11.032,35.258-27.012,42.94
			c2.401,5.689,3.729,11.942,3.729,18.505v71.046c0,26.299-21.319,47.618-47.618,47.618h-88.715v96.155
			c0,26.299-21.319,47.618-47.618,47.618H168.207z"/>
		<path fill="#ED2025" d="M683.205,514.999c-20.979,0-39.486-13.729-45.571-33.807l-7.358-24.279h-52.527l-7.072,23.952
			c-5.977,20.241-24.564,34.134-45.669,34.134H413.99c-15.624,0-30.254-7.665-39.148-20.51
			c-8.895-12.846-10.922-29.236-5.425-43.861L501.668,98.755c6.979-18.568,24.737-30.865,44.573-30.865h118.601
			c19.837,0,37.597,12.298,44.575,30.868L841.64,450.631c5.495,14.625,3.467,31.016-5.428,43.859
			c-8.895,12.845-23.524,20.509-39.147,20.509H683.205z"/>
		<path fill="#ED2025" d="M835.947,514.999c-26.299,0-47.618-21.319-47.618-47.618V115.508c0-26.299,21.319-47.618,47.618-47.618
			h108.971c26.299,0,47.618,21.319,47.618,47.618v351.873c0,26.299-21.319,47.618-47.618,47.618H835.947z"/>
		<path fill="#ED2025" d="M1022.925,514.999c-26.299,0-47.618-21.319-47.618-47.618V115.508c0-26.299,21.319-47.618,47.618-47.618
			h108.73c26.299,0,47.618,21.319,47.618,47.618v217.606h122.077c26.299,0,47.618,21.319,47.618,47.618v86.648
			c0,26.299-21.319,47.618-47.618,47.618H1022.925z"/>
	</g>
	<g>
		<path fill="#231F20" d="M168.207,499.126c-17.532,0-31.745-14.213-31.745-31.745V115.508c0-17.532,14.213-31.745,31.745-31.745
			h268.825c17.532,0,31.745,14.213,31.745,31.745v75.607c0,17.532-14.213,31.745-31.745,31.745h-12.049
			c11.988,4.537,20.512,16.124,20.512,29.701v71.046c0,17.532-14.213,31.745-31.745,31.745H309.162v112.028
			c0,17.532-14.213,31.745-31.745,31.745H168.207z"/>
		<path fill="#231F20" d="M683.205,499.126c-13.986,0-26.324-9.152-30.381-22.537L642.05,441.04h-76.166l-10.432,35.33
			c-3.984,13.494-16.375,22.756-30.446,22.756H413.99c-10.416,0-20.169-5.109-26.099-13.673s-7.281-19.491-3.617-29.241
			L516.526,104.34c4.653-12.379,16.492-20.577,29.716-20.577h118.601c13.225,0,25.064,8.199,29.717,20.579l132.222,351.873
			c3.663,9.749,2.312,20.677-3.618,29.239s-15.684,13.672-26.099,13.672H683.205z"/>
		<path fill="#231F20" d="M835.947,499.126c-17.532,0-31.745-14.213-31.745-31.745V115.508c0-17.532,14.213-31.745,31.745-31.745
			h108.971c17.532,0,31.745,14.213,31.745,31.745v351.873c0,17.532-14.213,31.745-31.745,31.745H835.947z"/>
		<path fill="#231F20" d="M1022.925,499.126c-17.532,0-31.745-14.213-31.745-31.745V115.508c0-17.532,14.213-31.745,31.745-31.745
			h108.73c17.532,0,31.745,14.213,31.745,31.745v233.479h137.95c17.532,0,31.745,14.213,31.745,31.745v86.648
			c0,17.532-14.213,31.745-31.745,31.745H1022.925z"/>
	</g>
	<g>
		<path fill="#BDBEC0" d="M168.207,115.508h268.825v75.607H277.417v61.446H413.75v71.046H277.417v143.773h-109.21V115.508z"/>
		<path fill="#BDBEC0" d="M665.6,409.295H542.158l-17.15,58.086H413.99l132.252-351.873h118.601l132.222,351.873h-113.86
			L665.6,409.295z M643.046,333.208l-38.839-126.491l-38.434,126.491H643.046z"/>
		<path fill="#BDBEC0" d="M835.947,115.508h108.971v351.873H835.947V115.508z"/>
		<path fill="#BDBEC0" d="M1022.925,115.508h108.73v265.224h169.695v86.648h-278.426V115.508z"/>
	</g>
	<g>
		<polygon fill="#FFFFFF" points="179.181,467.381 179.181,126.483 437.032,126.483 437.032,191.115 277.417,191.115 
			277.417,263.535 413.749,263.535 413.749,323.607 277.417,323.607 277.417,467.381 		"/>
		<path fill="#FFFFFF" d="M692.762,467.381l-17.604-58.086H543.544l-17.15,58.086h-98.992l128.127-340.898H666.53l128.098,340.898
			H692.762z M563.859,344.182h92.099L609.667,193.42L563.859,344.182z"/>
		<rect x="846.922" y="126.483" fill="#FFFFFF" width="97.996" height="340.898"/>
		<polygon fill="#FFFFFF" points="1033.899,467.381 1033.899,126.483 1131.655,126.483 1131.655,391.707 1301.35,391.707 
			1301.35,467.381 		"/>
	</g>
</g>
<g>
</g>
<g>
</g>
<g>
</g>
<g>
</g>
<g>
</g>
<g>
</g>
</svg>
