<?xml version="1.0" encoding="utf-8"?>
<!-- Generator: Adobe Illustrator 17.0.0, SVG Export Plug-In . SVG Version: 6.00 Build 0)  -->
<!DOCTYPE svg PUBLIC "-//W3C//DTD SVG 1.1//EN" "http://www.w3.org/Graphics/SVG/1.1/DTD/svg11.dtd">
<svg version="1.1" id="Layer_1" xmlns="http://www.w3.org/2000/svg" xmlns:xlink="http://www.w3.org/1999/xlink" x="0px" y="0px"
	 width="3000px" height="600px" viewBox="0 0 3000 600" enable-background="new 0 0 3000 600" xml:space="preserve">
<g id="XMLID_19_">
	<g>
		<path fill="#F8EC24" d="M638.533,107.255h108.73v265.224h169.696v86.648H638.533V107.255z"/>
		<path fill="#F8EC24" d="M944.321,283.431c0-57.444,15.999-102.167,48.004-134.172c32.001-32.002,76.567-48.005,133.692-48.005
			c58.565,0,103.69,15.722,135.373,47.164c31.683,31.443,47.524,75.487,47.524,132.133c0,41.126-6.923,74.849-20.762,101.169
			c-13.843,26.324-33.843,46.805-60.005,61.445c-26.163,14.642-58.768,21.963-97.809,21.963c-39.687,0-72.528-6.319-98.529-18.962
			c-26.005-12.639-47.085-32.644-63.246-60.006C952.399,358.799,944.321,324.558,944.321,283.431z M1053.051,283.912
			c0,35.523,6.601,61.048,19.802,76.567c13.201,15.523,31.162,23.282,53.885,23.282c23.361,0,41.441-7.598,54.245-22.802
			c12.8-15.2,19.202-42.484,19.202-81.848c0-33.123-6.683-57.324-20.042-72.606c-13.362-15.279-31.484-22.922-54.365-22.922
			c-21.924,0-39.525,7.763-52.805,23.281C1059.689,222.387,1053.051,248.069,1053.051,283.912z"/>
		<path fill="#F8EC24" d="M1544.376,331.676v-73.207h168.016v150.014c-32.162,21.925-60.605,36.843-85.328,44.764
			c-24.721,7.921-54.045,11.882-87.967,11.882c-41.764,0-75.81-7.118-102.13-21.362c-26.324-14.24-46.726-35.44-61.206-63.605
			c-14.484-28.162-21.722-60.486-21.722-96.97c0-38.403,7.921-71.804,23.762-100.209c15.841-28.401,39.041-49.962,69.606-64.686
			c23.841-11.36,55.925-17.042,96.25-17.042c38.883,0,67.963,3.521,87.248,10.561c19.279,7.044,35.283,17.965,48.004,32.764
			c12.721,14.803,22.281,33.565,28.682,56.285l-104.889,18.722c-4.32-13.28-11.641-23.439-21.963-30.483
			c-10.32-7.039-23.484-10.561-39.482-10.561c-23.846,0-42.844,8.281-57.006,24.843c-14.161,16.562-21.242,42.765-21.242,78.606
			c0,38.085,7.159,65.287,21.482,81.608c14.318,16.322,34.281,24.482,59.885,24.482c12.16,0,23.764-1.759,34.805-5.28
			c11.041-3.518,23.68-9.519,37.922-18.002v-33.123H1544.376z"/>
		<path fill="#F8EC24" d="M1781.278,107.255h108.971v351.873h-108.971V107.255z"/>
		<path fill="#F8EC24" d="M1968.976,107.255h101.529l132.492,194.673V107.255h102.489v351.873h-102.489l-131.772-193.204v193.204
			h-102.249V107.255z"/>
	</g>
	<g>
		<g>
			<path fill="#010101" d="M663.288,557.511c-29.77,0-53.904-24.872-53.904-55.554V150.085c0-30.682,24.134-55.554,53.904-55.554
				h105.501c29.77,0,53.904,24.873,53.904,55.554v209.67h110.752c29.77,0,53.904,24.872,53.904,55.554v86.648
				c0,30.682-24.134,55.554-53.904,55.554H663.288z"/>
			<path fill="#010101" d="M1140.486,563.513c-46.564,0-86.66-8.262-119.174-24.556c-34.788-17.425-63.123-44.919-84.209-81.716
				c-20.578-35.899-31.013-79.97-31.013-130.981c0-72.447,20.983-130.806,62.367-173.455c41.383-42.65,97.851-64.276,167.837-64.276
				c71.297,0,128.265,21.292,169.322,63.287c41.171,42.11,62.047,99.833,62.047,171.564c0,50.03-8.862,92.766-26.338,127.023
				c-18.306,35.877-45.09,64.162-79.611,84.071C1228.308,553.742,1187.521,563.513,1140.486,563.513z M1136.061,281.966
				c-7.086,0-8.638,1.869-10.281,3.847c-0.043,0.057-6.382,8.642-6.382,40.928c0,31.504,6.317,40.505,6.381,40.587
				c1.359,1.646,3.06,3.707,11.213,3.707c8.087,0,10.22-1.682,11.148-2.729c0.766-1.4,6.214-12.571,6.214-46.366
				c0-28.491-6.065-35.972-6.127-36.044C1146.904,284.337,1144.892,281.966,1136.061,281.966z"/>
			<path fill="#010101" d="M1537.104,563.513c-49.4,0-91.372-9.44-124.753-28.059c-35.148-19.596-62.629-48.89-81.671-87.063
				c-17.942-35.954-27.041-77.128-27.041-122.371c0-47.805,10.054-90.624,29.883-127.268c20.816-38.462,51.507-67.959,91.224-87.677
				c0.068-0.034,0.137-0.068,0.206-0.102c30.753-15.103,68.886-22.445,116.578-22.445c44.487,0,78.224,4.556,103.139,13.928
				c27.406,10.32,50.606,26.715,68.974,48.737c17.445,20.922,30.51,46.973,38.837,77.435c3.657,13.375,2.301,27.609-3.677,39.923
				c6.513,9.183,10.356,20.501,10.356,32.747v150.014c0,18.371-8.813,35.555-23.542,45.903
				c-35.839,25.179-67.474,42.112-96.71,51.766C1609.707,558.623,1575.456,563.513,1537.104,563.513z"/>
			<path fill="#010101" d="M1772.093,557.511c-29.77,0-53.905-24.872-53.905-55.554V150.085c0-30.682,24.134-55.554,53.905-55.554
				h105.734c29.77,0,53.905,24.873,53.905,55.554v351.873c0,30.682-24.134,55.554-53.905,55.554H1772.093z"/>
			<path fill="#010101" d="M2181.286,557.511c-17.822,0-34.491-9.077-44.532-24.251l-29.423-44.459v13.156
				c0,30.682-24.133,55.554-53.904,55.554h-99.212c-29.77,0-53.905-24.872-53.905-55.554V150.085
				c0-30.682,24.134-55.554,53.905-55.554h98.514c17.841,0,34.525,9.097,44.563,24.297l30.09,45.565v-14.309
				c0-30.682,24.134-55.554,53.905-55.554h99.445c29.771,0,53.905,24.873,53.905,55.554v351.873
				c0,30.682-24.134,55.554-53.905,55.554H2181.286z"/>
		</g>
		<g>
			<path fill="#010101" d="M655.119,543.234c-30.071,0-54.449-24.872-54.449-55.554V135.808c0-30.682,24.378-55.554,54.449-55.554
				h106.566c30.071,0,54.449,24.873,54.449,55.554v209.67h111.87c30.071,0,54.449,24.872,54.449,55.554v86.648
				c0,30.682-24.378,55.554-54.449,55.554H655.119z"/>
			<path fill="#010101" d="M1137.138,549.236c-47.035,0-87.536-8.262-120.378-24.556c-35.139-17.425-63.761-44.919-85.06-81.716
				c-20.786-35.899-31.326-79.97-31.326-130.981c0-72.447,21.195-130.806,62.997-173.455c41.801-42.65,98.84-64.276,169.532-64.276
				c72.017,0,129.56,21.292,171.033,63.287c41.587,42.11,62.673,99.833,62.673,171.564c0,50.03-8.951,92.766-26.604,127.023
				c-18.491,35.877-45.546,64.162-80.415,84.071C1225.846,539.466,1184.647,549.236,1137.138,549.236z M1132.668,267.69
				c-7.158,0-8.725,1.869-10.384,3.847c-0.043,0.057-6.446,8.642-6.446,40.928c0,31.504,6.381,40.505,6.445,40.587
				c1.373,1.646,3.091,3.707,11.326,3.707c8.169,0,10.323-1.682,11.26-2.729c0.773-1.4,6.276-12.571,6.276-46.366
				c0-28.491-6.127-35.972-6.189-36.044C1143.62,270.06,1141.588,267.69,1132.668,267.69z"/>
			<path fill="#010101" d="M1537.762,549.236c-49.898,0-92.295-9.44-126.013-28.059c-35.503-19.596-63.261-48.89-82.496-87.063
				c-18.123-35.954-27.315-77.128-27.315-122.371c0-47.805,10.156-90.624,30.185-127.268c21.026-38.462,52.027-67.959,92.145-87.677
				c0.069-0.034,0.138-0.068,0.208-0.102c31.064-15.103,69.582-22.445,117.756-22.445c44.936,0,79.014,4.556,104.181,13.928
				c27.683,10.32,51.117,26.715,69.67,48.737c17.622,20.922,30.819,46.973,39.229,77.435c3.694,13.375,2.324,27.609-3.715,39.923
				c6.578,9.183,10.46,20.501,10.46,32.747v150.014c0,18.371-8.902,35.555-23.78,45.903c-36.202,25.179-68.155,42.112-97.687,51.766
				C1611.098,544.347,1576.5,549.236,1537.762,549.236z"/>
			<path fill="#010101" d="M1775.124,543.234c-30.071,0-54.449-24.872-54.449-55.554V135.808c0-30.682,24.378-55.554,54.449-55.554
				h106.802c30.071,0,54.449,24.873,54.449,55.554v351.873c0,30.682-24.378,55.554-54.449,55.554H1775.124z"/>
			<path fill="#010101" d="M2188.45,543.234c-18.002,0-34.84-9.077-44.982-24.251l-29.72-44.459v13.156
				c0,30.682-24.377,55.554-54.448,55.554h-100.214c-30.071,0-54.449-24.872-54.449-55.554V135.808
				c0-30.682,24.378-55.554,54.449-55.554h99.509c18.021,0,34.874,9.097,45.013,24.297l30.394,45.565v-14.309
				c0-30.682,24.378-55.554,54.449-55.554h100.45c30.071,0,54.449,24.873,54.449,55.554v351.873
				c0,30.682-24.378,55.554-54.449,55.554H2188.45z"/>
		</g>
		<g>
			<path fill="#010101" d="M646.868,528.958c-30.375,0-54.999-24.872-54.999-55.554V121.532c0-30.682,24.624-55.554,54.999-55.554
				h107.643c30.375,0,54.999,24.873,54.999,55.554v209.67h113c30.375,0,54.999,24.872,54.999,55.554v86.648
				c0,30.682-24.624,55.554-54.999,55.554H646.868z"/>
			<path fill="#010101" d="M1133.755,534.96c-47.51,0-88.42-8.262-121.594-24.556c-35.494-17.425-64.405-44.919-85.919-81.716
				c-20.995-35.899-31.642-79.97-31.642-130.981c0-72.447,21.409-130.806,63.634-173.455c42.223-42.65,99.838-64.276,171.244-64.276
				c72.744,0,130.869,21.292,172.76,63.287c42.007,42.11,63.306,99.833,63.306,171.564c0,50.03-9.042,92.766-26.873,127.023
				c-18.677,35.877-46.006,64.162-81.227,84.071C1223.36,525.19,1181.745,534.96,1133.755,534.96z M1129.24,253.413
				c-7.23,0-8.813,1.869-10.489,3.847c-0.044,0.057-6.511,8.642-6.511,40.928c0,31.504,6.446,40.505,6.51,40.587
				c1.386,1.646,3.122,3.707,11.441,3.707c8.252,0,10.428-1.682,11.374-2.729c0.781-1.4,6.34-12.571,6.34-46.366
				c0-28.491-6.188-35.972-6.251-36.044C1140.303,255.784,1138.25,253.413,1129.24,253.413z"/>
			<path fill="#010101" d="M1538.426,534.96c-50.402,0-93.228-9.44-127.286-28.059c-35.861-19.596-63.901-48.89-83.33-87.063
				c-18.306-35.954-27.59-77.128-27.59-122.371c0-47.805,10.258-90.624,30.489-127.268c21.238-38.462,52.553-67.959,93.076-87.677
				c0.07-0.034,0.14-0.068,0.21-0.102c31.378-15.103,70.285-22.445,118.946-22.445c45.39,0,79.812,4.556,105.233,13.928
				c27.963,10.32,51.634,26.715,70.374,48.737c17.8,20.922,31.13,46.973,39.625,77.435c3.731,13.375,2.347,27.609-3.752,39.923
				c6.645,9.183,10.566,20.501,10.566,32.747V422.76c0,18.371-8.992,35.555-24.02,45.903
				c-36.567,25.179-68.844,42.112-98.673,51.766C1612.503,530.07,1577.556,534.96,1538.426,534.96z"/>
			<path fill="#010101" d="M1778.186,528.958c-30.375,0-54.999-24.872-54.999-55.554V121.532c0-30.682,24.624-55.554,54.999-55.554
				h107.881c30.375,0,54.999,24.873,54.999,55.554v351.873c0,30.682-24.624,55.554-54.999,55.554H1778.186z"/>
			<path fill="#010101" d="M2195.687,528.958c-18.184,0-35.191-9.077-45.437-24.251l-30.02-44.459v13.156
				c0,30.682-24.624,55.554-54.998,55.554h-101.226c-30.375,0-54.999-24.872-54.999-55.554V121.532
				c0-30.682,24.624-55.554,54.999-55.554h100.514c18.203,0,35.226,9.097,45.467,24.297l30.701,45.565v-14.309
				c0-30.682,24.624-55.554,54.999-55.554h101.464c30.375,0,54.999,24.873,54.999,55.554v351.873
				c0,30.682-24.624,55.554-54.999,55.554H2195.687z"/>
		</g>
		<g>
			<path fill="#010101" d="M638.533,514.682c-30.682,0-55.554-24.872-55.554-55.554V107.255c0-30.682,24.873-55.554,55.554-55.554
				h108.73c30.682,0,55.554,24.873,55.554,55.554v209.67h114.142c30.682,0,55.554,24.872,55.554,55.554v86.648
				c0,30.682-24.873,55.554-55.554,55.554H638.533z"/>
			<path fill="#010101" d="M1130.338,520.684c-47.99,0-89.313-8.262-122.822-24.556c-35.853-17.425-65.055-44.919-86.787-81.716
				c-21.208-35.899-31.962-79.97-31.962-130.981c0-72.447,21.625-130.806,64.276-173.455C995.693,67.326,1053.89,45.7,1126.018,45.7
				c73.479,0,132.191,21.292,174.505,63.287c42.432,42.11,63.946,99.833,63.946,171.564c0,50.03-9.133,92.766-27.144,127.023
				c-18.866,35.877-46.471,64.162-82.048,84.071C1220.848,510.913,1178.812,520.684,1130.338,520.684z M1125.778,239.137
				c-7.303,0-8.902,1.869-10.595,3.847c-0.044,0.057-6.577,8.642-6.577,40.928c0,31.504,6.511,40.505,6.576,40.587
				c1.4,1.646,3.153,3.707,11.556,3.707c8.335,0,10.533-1.682,11.489-2.729c0.789-1.4,6.404-12.571,6.404-46.366
				c0-28.491-6.251-35.972-6.314-36.044C1136.952,241.507,1134.879,239.137,1125.778,239.137z"/>
			<path fill="#010101" d="M1539.097,520.684c-50.912,0-94.169-9.44-128.571-28.059c-36.224-19.596-64.546-48.89-84.171-87.063
				c-18.491-35.954-27.869-77.128-27.869-122.371c0-47.805,10.362-90.624,30.797-127.268c21.453-38.462,53.083-67.959,94.016-87.677
				c0.07-0.034,0.141-0.068,0.212-0.102c31.695-15.103,70.995-22.445,120.147-22.445c45.849,0,80.618,4.556,106.296,13.928
				c28.245,10.32,52.155,26.715,71.085,48.737c17.979,20.922,31.444,46.973,40.025,77.435c3.769,13.375,2.371,27.609-3.79,39.923
				c6.712,9.183,10.673,20.501,10.673,32.747v150.014c0,18.371-9.083,35.555-24.263,45.903
				c-36.937,25.179-69.539,42.112-99.67,51.766C1613.922,515.794,1578.622,520.684,1539.097,520.684z"/>
			<path fill="#010101" d="M1781.278,514.682c-30.682,0-55.555-24.872-55.555-55.554V107.255c0-30.682,24.873-55.554,55.555-55.554
				h108.971c30.682,0,55.555,24.873,55.555,55.554v351.873c0,30.682-24.873,55.554-55.555,55.554H1781.278z"/>
			<path fill="#010101" d="M2202.997,514.682c-18.367,0-35.547-9.077-45.896-24.251l-30.323-44.459v13.156
				c0,30.682-24.872,55.554-55.554,55.554h-102.249c-30.682,0-55.555-24.872-55.555-55.554V107.255
				c0-30.682,24.873-55.554,55.555-55.554h101.529c18.387,0,35.582,9.097,45.927,24.297l31.011,45.565v-14.309
				c0-30.682,24.873-55.554,55.555-55.554h102.489c30.682,0,55.555,24.873,55.555,55.554v351.873
				c0,30.682-24.873,55.554-55.555,55.554H2202.997z"/>
		</g>
	</g>
	<g>
		<path fill="#39B54A" d="M638.533,506.746c-26.299,0-47.618-21.319-47.618-47.618V107.255c0-26.299,21.319-47.618,47.618-47.618
			h108.73c26.299,0,47.618,21.319,47.618,47.618v217.606h122.078c26.299,0,47.618,21.319,47.618,47.618v86.648
			c0,26.299-21.319,47.618-47.618,47.618H638.533z"/>
		<path fill="#39B54A" d="M1130.338,512.747c-46.777,0-86.933-7.993-119.352-23.756c-34.428-16.732-62.498-43.184-83.424-78.615
			c-20.476-34.661-30.859-77.373-30.859-126.945c0-70.266,20.844-126.736,61.952-167.843
			c41.107-41.108,97.416-61.951,167.362-61.951c71.309,0,128.141,20.518,168.915,60.983c40.875,40.565,61.6,96.393,61.6,165.932
			c0,48.73-8.826,90.224-26.232,123.33c-18.139,34.495-44.684,61.692-78.898,80.839
			C1218.17,503.317,1177.439,512.747,1130.338,512.747z M1125.778,231.2c-10.111,0-13.757,3.272-16.625,6.624
			c-0.868,1.014-8.483,10.929-8.483,46.088c0,34.771,7.589,44.696,8.454,45.713c2.684,3.156,6.476,6.518,17.615,6.518
			c12.89,0,16.221-3.955,17.822-5.856c0.075-0.092,8.007-10.283,8.007-51.175c0-30.267-6.893-39.687-8.275-41.267
			C1142.266,235.527,1138.481,231.2,1125.778,231.2z"/>
		<path fill="#39B54A" d="M1539.097,512.747c-49.578,0-91.565-9.119-124.794-27.103c-34.792-18.82-62.009-46.986-80.89-83.711
			c-17.909-34.822-26.991-74.774-26.991-118.743c0-46.436,10.024-87.955,29.792-123.402c20.641-37.005,51.098-65.398,90.529-84.393
			c0.06-0.029,0.121-0.058,0.181-0.087c30.605-14.584,68.789-21.673,116.733-21.673c44.905,0,78.784,4.398,103.575,13.447
			c26.951,9.847,49.754,25.475,67.787,46.455c17.22,20.038,30.14,45.072,38.405,74.413c3.645,12.936,1.652,26.809-5.484,38.197
			c-0.078,0.125-0.157,0.25-0.236,0.375c7.646,8.448,12.306,19.654,12.306,31.946v150.014c0,15.747-7.785,30.476-20.797,39.346
			c-36.295,24.742-68.228,41.348-97.62,50.766C1612.284,507.985,1577.799,512.747,1539.097,512.747z"/>
		<path fill="#39B54A" d="M1781.278,506.746c-26.299,0-47.618-21.319-47.618-47.618V107.255c0-26.299,21.319-47.618,47.618-47.618
			h108.971c26.299,0,47.618,21.319,47.618,47.618v351.873c0,26.299-21.319,47.618-47.618,47.618H1781.278z"/>
		<path fill="#39B54A" d="M2202.997,506.746c-15.743,0-30.469-7.781-39.339-20.787l-44.815-65.708v38.877
			c0,26.299-21.319,47.618-47.618,47.618h-102.249c-26.299,0-47.618-21.319-47.618-47.618V107.255
			c0-26.299,21.319-47.618,47.618-47.618h101.529c15.76,0,30.499,7.797,39.366,20.826l45.508,66.867v-40.075
			c0-26.299,21.319-47.618,47.618-47.618h102.489c26.299,0,47.618,21.319,47.618,47.618v351.873
			c0,26.299-21.319,47.618-47.618,47.618H2202.997z"/>
	</g>
	<g>
		<path fill="#231F20" d="M638.533,490.873c-17.532,0-31.745-14.213-31.745-31.745V107.255c0-17.532,14.213-31.745,31.745-31.745
			h108.73c17.532,0,31.745,14.213,31.745,31.745v233.479h137.951c17.532,0,31.745,14.213,31.745,31.745v86.648
			c0,17.532-14.213,31.745-31.745,31.745H638.533z"/>
		<path fill="#231F20" d="M1130.338,496.874c-44.352,0-82.172-7.455-112.411-22.157c-31.578-15.348-57.385-39.712-76.698-72.412
			c-19.013-32.184-28.653-72.18-28.653-118.874c0-65.903,19.279-118.597,57.303-156.62c38.022-38.023,90.555-57.302,156.139-57.302
			c66.97,0,120.04,18.968,157.734,56.376c37.761,37.476,56.908,89.513,56.908,154.666c0,46.129-8.212,85.138-24.409,115.943
			c-16.686,31.73-41.112,56.753-72.601,74.374C1212.816,488.125,1174.692,496.874,1130.338,496.874z M1125.778,215.328
			c-12.632,0-21.479,3.755-28.685,12.176c-4.592,5.366-12.296,19.831-12.296,56.408c0,36.207,7.667,50.625,12.237,55.998
			c4.795,5.639,12.501,12.106,29.705,12.106c18.173,0,25.804-6.566,29.963-11.505c3.529-4.191,11.738-18.564,11.738-61.4
			c0-31.209-6.633-45.348-12.198-51.713C1151.33,221.781,1143.424,215.328,1125.778,215.328z"/>
		<path fill="#231F20" d="M1539.097,496.874c-46.911,0-86.356-8.475-117.239-25.188c-31.929-17.272-56.938-43.184-74.329-77.01
			c-16.744-32.557-25.234-70.066-25.234-111.485c0-43.698,9.347-82.615,27.782-115.671c19.016-34.093,47.127-60.276,83.555-77.824
			c0.041-0.019,0.081-0.039,0.121-0.058c28.425-13.545,64.375-20.129,109.905-20.129c43.017,0,75.116,4.084,98.133,12.485
			c24.365,8.902,44.95,22.995,61.193,41.891c15.699,18.27,27.529,41.271,35.163,68.371c2.43,8.624,1.102,17.873-3.655,25.465
			c-2.861,4.565-6.801,8.274-11.405,10.85c12.271,4.39,21.051,16.119,21.051,29.899v150.014c0,10.498-5.189,20.317-13.864,26.23
			c-35.015,23.869-65.606,39.82-93.523,48.765C1609.009,492.367,1576.153,496.874,1539.097,496.874z M1541.257,210.287
			c-14.619,0-24.76,4.234-32.879,13.729c-6.215,7.268-13.624,23.227-13.624,57.975c0,39.306,8.519,54.882,13.597,60.669
			c2.456,2.799,5.86,6.035,11.084,8.657c-4.262-5.403-6.805-12.226-6.805-19.642v-73.207c0-17.532,14.213-31.745,31.745-31.745
			h27.164c-2.714-6.706-6.198-9.697-8.694-11.4C1557.947,211.983,1550.682,210.287,1541.257,210.287z"/>
		<path fill="#231F20" d="M1781.278,490.873c-17.532,0-31.745-14.213-31.745-31.745V107.255c0-17.532,14.213-31.745,31.745-31.745
			h108.971c17.532,0,31.745,14.213,31.745,31.745v351.873c0,17.532-14.213,31.745-31.745,31.745H1781.278z"/>
		<path fill="#231F20" d="M2202.997,490.873c-10.495,0-20.312-5.188-26.226-13.857l-73.802-108.207v90.319
			c0,17.532-14.213,31.745-31.745,31.745h-102.249c-17.532,0-31.745-14.213-31.745-31.745V107.255
			c0-17.532,14.213-31.745,31.745-31.745h101.529c10.507,0,20.332,5.198,26.244,13.884l74.503,109.469v-91.608
			c0-17.532,14.213-31.745,31.745-31.745h102.489c17.532,0,31.745,14.213,31.745,31.745v351.873
			c0,17.532-14.213,31.745-31.745,31.745H2202.997z"/>
	</g>
	<g>
		<path fill="#BDBEC0" d="M638.533,107.255h108.73v265.224h169.696v86.648H638.533V107.255z"/>
		<path fill="#BDBEC0" d="M944.321,283.431c0-57.444,15.999-102.167,48.004-134.172c32.001-32.002,76.567-48.005,133.692-48.005
			c58.565,0,103.69,15.722,135.373,47.164c31.683,31.443,47.524,75.487,47.524,132.133c0,41.126-6.923,74.849-20.762,101.169
			c-13.843,26.324-33.843,46.805-60.005,61.445c-26.163,14.642-58.768,21.963-97.809,21.963c-39.687,0-72.528-6.319-98.529-18.962
			c-26.005-12.639-47.085-32.644-63.246-60.006C952.399,358.799,944.321,324.558,944.321,283.431z M1053.051,283.912
			c0,35.523,6.601,61.048,19.802,76.567c13.201,15.523,31.162,23.282,53.885,23.282c23.361,0,41.441-7.598,54.245-22.802
			c12.8-15.2,19.202-42.484,19.202-81.848c0-33.123-6.683-57.324-20.042-72.606c-13.362-15.279-31.484-22.922-54.365-22.922
			c-21.924,0-39.525,7.763-52.805,23.281C1059.689,222.387,1053.051,248.069,1053.051,283.912z"/>
		<path fill="#BDBEC0" d="M1544.376,331.676v-73.207h168.016v150.014c-32.162,21.925-60.605,36.843-85.328,44.764
			c-24.721,7.921-54.045,11.882-87.967,11.882c-41.764,0-75.81-7.118-102.13-21.362c-26.324-14.24-46.726-35.44-61.206-63.605
			c-14.484-28.162-21.722-60.486-21.722-96.97c0-38.403,7.921-71.804,23.762-100.209c15.841-28.401,39.041-49.962,69.606-64.686
			c23.841-11.36,55.925-17.042,96.25-17.042c38.883,0,67.963,3.521,87.248,10.561c19.279,7.044,35.283,17.965,48.004,32.764
			c12.721,14.803,22.281,33.565,28.682,56.285l-104.889,18.722c-4.32-13.28-11.641-23.439-21.963-30.483
			c-10.32-7.039-23.484-10.561-39.482-10.561c-23.846,0-42.844,8.281-57.006,24.843c-14.161,16.562-21.242,42.765-21.242,78.606
			c0,38.085,7.159,65.287,21.482,81.608c14.318,16.322,34.281,24.482,59.885,24.482c12.16,0,23.764-1.759,34.805-5.28
			c11.041-3.518,23.68-9.519,37.922-18.002v-33.123H1544.376z"/>
		<path fill="#BDBEC0" d="M1781.278,107.255h108.971v351.873h-108.971V107.255z"/>
		<path fill="#BDBEC0" d="M1968.976,107.255h101.529l132.492,194.673V107.255h102.489v351.873h-102.489l-131.772-193.204v193.204
			h-102.249V107.255z"/>
	</g>
	<g>
		<polygon fill="#FFFFFF" points="649.508,459.128 649.508,118.23 747.263,118.23 747.263,383.454 916.959,383.454 916.959,459.128 
					"/>
		<path fill="#FFFFFF" d="M1135.825,465.129c-38.664,0-71.007-6.193-96.13-18.409c-24.894-12.099-45.391-31.566-60.92-57.861
			c-15.58-26.374-23.479-59.998-23.479-99.94c0-55.669,15.61-99.506,46.397-130.292c30.787-30.787,74.462-46.397,129.812-46.397
			c56.792,0,101.037,15.333,131.507,45.571c30.458,30.229,45.902,73.374,45.902,128.238c0,40.031-6.773,73.209-20.131,98.616
			c-13.275,25.245-32.731,45.166-57.828,59.211C1205.742,457.974,1173.736,465.129,1135.825,465.129z M1131.265,183.582
			c-23.496,0-42.664,8.479-56.974,25.201c-14.094,16.47-21.24,43.593-21.24,80.615c0,36.699,7.103,63.656,21.109,80.123
			c14.228,16.73,33.764,25.214,58.064,25.214c24.947,0,44.61-8.329,58.442-24.755c13.789-16.374,20.492-44.303,20.492-85.382
			c0-34.332-7.2-59.975-21.398-76.218C1175.37,191.926,1155.69,183.582,1131.265,183.582z"/>
		<path fill="#FFFFFF" d="M1544.584,465.129c-40.654,0-74.137-6.965-99.518-20.701c-25.212-13.639-45.042-34.259-58.938-61.288
			c-14.011-27.243-21.115-59.024-21.115-94.461c0-37.274,7.761-70.09,23.067-97.536c15.206-27.262,37.813-48.261,67.195-62.415
			c22.967-10.944,54.557-16.498,93.868-16.498c38.052,0,66.772,3.441,85.366,10.228c18.3,6.686,33.685,17.179,45.725,31.186
			c11.043,12.851,19.717,29.108,25.824,48.387l-94.275,16.828c-4.834-12.241-12.376-21.916-22.465-28.8
			c-11.203-7.642-25.527-11.516-42.575-11.516c-25.407,0-45.99,9.005-61.176,26.764c-14.969,17.506-22.559,45.153-22.559,82.172
			c0,39.279,7.687,67.954,22.845,85.227c15.338,17.484,36.874,26.351,64.009,26.351c12.676,0,24.947-1.864,36.472-5.54
			c11.381-3.626,24.524-9.855,39.062-18.516l2.68-1.596v-41.729h-72.727v-62.232h157.041v141.618
			c-30.599,20.641-58.013,34.918-81.515,42.447C1606.812,461.22,1577.779,465.129,1544.584,465.129z"/>
		<rect x="1792.253" y="118.23" fill="#FFFFFF" width="97.996" height="340.898"/>
		<polygon fill="#FFFFFF" points="2211.384,459.128 2071.224,253.628 2071.224,459.128 1979.95,459.128 1979.95,118.23 
			2073.089,118.23 2213.971,325.23 2213.971,118.23 2305.486,118.23 2305.486,459.128 		"/>
	</g>
</g>
<g>
</g>
<g>
</g>
<g>
</g>
<g>
</g>
<g>
</g>
<g>
</g>
</svg>
