<?xml version="1.0" encoding="utf-8"?>
<!-- Generator: Adobe Illustrator 17.0.0, SVG Export Plug-In . SVG Version: 6.00 Build 0)  -->
<!DOCTYPE svg PUBLIC "-//W3C//DTD SVG 1.1//EN" "http://www.w3.org/Graphics/SVG/1.1/DTD/svg11.dtd">
<svg version="1.1" id="Layer_1" xmlns="http://www.w3.org/2000/svg" xmlns:xlink="http://www.w3.org/1999/xlink" x="0px" y="0px"
	 width="500px" height="150px" viewBox="0 0 500 150" enable-background="new 0 0 500 150" xml:space="preserve">
<g>
	<g opacity="0.2">
		<path fill="#29256C" d="M34.478,139.693c-10.68,0-15.473-4.787-17.611-8.81c-3.056-5.945-3.078-13-0.097-21.056
			c0.301-0.903,0.921-2.673,1.87-5.109c0.021-0.058,0.045-0.116,0.067-0.168c1.457-3.503,3.16-7.928,5.109-13.323
			c-0.374,0.058-0.757,0.082-1.138,0.082c-1.003,0-2.007-0.192-2.962-0.593c-5.59-2.345-9.914-7.253-12.852-14.591
			c-0.088-0.216-0.167-0.444-0.234-0.669C3.669,65.444,3.393,50.482,18.896,36.073c10.567-9.704,22.674-14.615,36.006-14.615
			c1.53,0,3.09,0.067,4.65,0.195c0.125,0.012,0.246,0.024,0.371,0.039c11.06,1.454,20.083,6.499,26.819,14.996
			c6.684,8.296,9.661,18.176,8.789,29.322c-1.131,13.177-6.183,23.729-15.005,31.408c-7.657,6.548-17.422,9.841-29.082,9.841
			c-0.325,0-0.645,0-0.976-0.003c-1.548,4.44-2.865,8.646-3.92,12.541c-1.119,4.494-1.399,7.891-0.83,10.105
			c0.556,2.156,0.149,4.446-1.119,6.274c-1.268,1.834-3.263,3.017-5.483,3.257C37.494,139.608,35.935,139.693,34.478,139.693z
			 M60.093,55.746c0.8,1.113,1.451,2.317,1.94,3.616c1.922,4.875,1.776,10.416-0.447,16.011c2.074-2.728,3.36-6.477,3.831-11.167
			C64.87,58.917,62.525,56.865,60.093,55.746z"/>
	</g>
	<path fill="#29256C" d="M34.478,134.657c-10.68,0-15.473-4.792-17.611-8.813c-3.056-5.948-3.078-13-0.097-21.059
		c0.301-0.897,0.921-2.67,1.87-5.109c0.021-0.058,0.045-0.112,0.067-0.167c1.457-3.497,3.16-7.925,5.109-13.317
		c-0.374,0.055-0.757,0.076-1.138,0.076c-1.003,0-2.007-0.195-2.962-0.593c-5.59-2.341-9.914-7.25-12.852-14.588
		c-0.088-0.216-0.167-0.447-0.234-0.672C3.669,60.405,3.393,45.44,18.896,31.034c10.567-9.71,22.674-14.618,36.006-14.618
		c1.53,0,3.09,0.064,4.65,0.195c0.125,0.012,0.246,0.024,0.371,0.04c11.06,1.46,20.083,6.502,26.819,14.998
		c6.684,8.293,9.661,18.173,8.789,29.313c-1.131,13.189-6.183,23.735-15.005,31.414c-7.657,6.547-17.422,9.847-29.082,9.847
		c-0.325,0-0.645-0.006-0.976-0.009c-1.548,4.443-2.865,8.643-3.92,12.547c-1.119,4.489-1.399,7.885-0.83,10.099
		c0.556,2.156,0.149,4.449-1.119,6.28c-1.268,1.828-3.263,3.017-5.483,3.251C37.494,134.566,35.935,134.657,34.478,134.657z
		 M60.093,50.704c0.8,1.11,1.451,2.314,1.94,3.613c1.922,4.878,1.776,10.422-0.447,16.014c2.074-2.725,3.36-6.474,3.831-11.161
		C64.87,53.875,62.525,51.826,60.093,50.704z"/>
	<path fill="#D34A9A" d="M30.646,129.141c-9.847,0-14.208-4.3-16.13-7.916c-2.822-5.495-2.81-12.103,0-19.718
		c0.298-0.873,0.912-2.621,1.858-5.054c0.018-0.046,0.034-0.088,0.052-0.131c1.794-4.297,3.941-9.987,6.483-17.149
		c-0.264,0.246-0.55,0.468-0.86,0.663c-0.973,0.611-2.083,0.931-3.202,0.931c-0.782,0-1.566-0.158-2.311-0.475
		c-5.164-2.156-9.181-6.757-11.945-13.66c-0.067-0.173-0.128-0.347-0.179-0.526c-4.115-13.9-0.146-26.575,11.796-37.672
		C26.45,19.025,38.173,14.263,51.07,14.263c1.481,0,2.995,0.064,4.51,0.192c0.097,0.006,0.192,0.018,0.289,0.034
		c10.613,1.39,19.268,6.234,25.727,14.375c6.42,7.955,9.263,17.437,8.433,28.139c-1.098,12.724-5.957,22.89-14.439,30.277
		c-7.326,6.268-16.732,9.433-27.977,9.433c-0.706,0-1.426-0.012-2.15-0.04c-1.752,4.939-3.22,9.591-4.382,13.882
		c-1.195,4.762-1.472,8.363-0.821,10.893c0.438,1.685,0.119,3.47-0.873,4.902c-0.992,1.427-2.552,2.357-4.279,2.539
		C33.541,129.062,32.042,129.141,30.646,129.141z M28.858,61.831c-2.108,4.182-3.4,8.004-3.859,11.376
		C26.206,69.716,27.493,65.915,28.858,61.831z M55.881,66.624c-0.456,1.265-0.858,2.521-1.234,3.835
		c-0.018,0.061-0.198,0.636-0.274,0.867c1.472-0.614,2.719-1.499,3.756-2.667c2.883-3.145,4.592-7.609,5.142-13.326
		c-0.511-5.437-2.758-8.649-7.235-10.373c-1.983-0.779-3.883-1.192-5.662-1.238c3.023,1.891,5.115,4.352,6.259,7.362
		C58.487,55.785,58.234,61.183,55.881,66.624z"/>
	<path fill="#29256C" d="M29.637,128.135c-9.844,0-14.205-4.309-16.127-7.916c-2.825-5.504-2.813-12.103,0-19.715
		c0.298-0.876,0.909-2.63,1.855-5.057c0.018-0.043,0.036-0.088,0.055-0.134c1.794-4.3,3.938-9.984,6.483-17.148
		c-0.267,0.246-0.553,0.468-0.861,0.66c-0.976,0.62-2.086,0.931-3.202,0.931c-0.788,0-1.569-0.152-2.311-0.466
		c-5.164-2.162-9.181-6.763-11.948-13.666c-0.067-0.17-0.131-0.347-0.179-0.523c-4.118-13.901-0.146-26.579,11.799-37.675
		c10.239-9.406,21.965-14.168,34.862-14.168c1.478,0,2.995,0.061,4.507,0.188c0.101,0.009,0.195,0.018,0.292,0.031
		c10.61,1.393,19.268,6.231,25.724,14.378c6.42,7.958,9.266,17.437,8.433,28.145c-1.095,12.721-5.954,22.89-14.439,30.271
		c-7.329,6.27-16.729,9.433-27.978,9.433c-0.708,0-1.423-0.012-2.15-0.042c-1.752,4.942-3.221,9.594-4.385,13.888
		c-1.189,4.759-1.466,8.36-0.815,10.893c0.438,1.685,0.119,3.473-0.876,4.899c-0.988,1.429-2.551,2.354-4.279,2.542
		C32.535,128.052,31.032,128.135,29.637,128.135z M27.848,60.827c-2.101,4.176-3.4,8.001-3.862,11.374
		C25.2,68.701,26.483,64.908,27.848,60.827z M54.874,65.617c-0.456,1.262-0.861,2.521-1.235,3.835
		c-0.018,0.064-0.201,0.632-0.277,0.858c1.472-0.608,2.719-1.493,3.756-2.658c2.886-3.144,4.595-7.608,5.145-13.332
		c-0.514-5.431-2.761-8.646-7.238-10.37c-1.983-0.769-3.883-1.189-5.662-1.238c3.023,1.892,5.115,4.355,6.258,7.362
		C57.477,54.778,57.225,60.173,54.874,65.617z"/>
	<path fill="#02AEDE" d="M30.728,124.33c-6.17,0-10.303-1.891-12.292-5.62c-2.253-4.385-2.162-9.686,0.271-16.233
		c0.256-0.763,0.855-2.475,1.801-4.911c4.145-9.944,10.133-27.062,18.325-52.367c0.222-0.681,0.861-1.128,1.554-1.128
		c0.116,0,0.24,0.015,0.359,0.042c6.505,1.457,10.394,4.087,11.897,8.047c1.463,3.707,1.207,8.019-0.751,12.441
		c-0.475,1.32-0.93,2.731-1.35,4.2c-0.739,2.326-1.618,4.72-2.624,7.438c0.204,0.009,0.408,0.009,0.605,0.009
		c5.544,0,9.895-1.736,12.939-5.161c3.564-3.887,5.666-9.336,6.262-16.212c-0.587-7.341-3.871-12.061-10.039-14.442
		c-2.621-1.022-5.179-1.539-7.615-1.539c-3.54,0-6.973,1.098-10.197,3.278c-5.653,3.725-10.16,8.728-13.794,15.29
		c-3.482,6.392-5.291,11.933-5.519,16.926c-0.021,0.529-0.307,1.016-0.76,1.302c-0.262,0.167-0.566,0.255-0.87,0.255
		c-0.213,0-0.429-0.043-0.629-0.131c-4.109-1.712-7.244-5.404-9.588-11.267c-0.021-0.045-0.034-0.091-0.052-0.143
		c-3.604-12.182-0.04-23.37,10.589-33.251c9.397-8.627,20.128-13,31.903-13c1.359,0,2.758,0.055,4.154,0.17
		c9.527,1.256,17.23,5.547,22.954,12.772c5.723,7.092,8.253,15.54,7.511,25.107c-1.013,11.68-5.252,20.615-12.958,27.326
		c-6.492,5.553-14.94,8.36-25.122,8.36c-1.654,0-3.376-0.076-5.137-0.216c-2.29,6.188-4.169,11.994-5.602,17.279
		c-1.411,5.638-1.678,9.817-0.827,13.116c0.119,0.459,0.036,0.946-0.237,1.335c-0.267,0.386-0.699,0.645-1.168,0.693
		C33.31,124.251,31.966,124.33,30.728,124.33z"/>
	<path fill="#66CCE6" d="M28.992,123.965c-5.547,0-9.218-1.63-10.917-4.85c-2.031-3.999-1.916-8.925,0.347-15.068
		c0.262-0.788,0.849-2.487,1.773-4.887c4.105-9.953,10.047-27.111,18.167-52.449c0.03-0.088,0.109-0.14,0.192-0.14
		c0.018,0,0.031,0,0.045,0.006c5.939,1.347,9.458,3.689,10.765,7.162c1.332,3.409,1.089,7.231-0.715,11.355
		c-0.517,1.441-0.976,2.88-1.402,4.388c-0.779,2.469-1.743,5.088-2.862,8.119l-0.216,0.593c-0.07,0.097-0.097,0.17-0.116,0.234
		c-0.021,0.058-0.04,0.131-0.079,0.192c0.031,0.009,0.07,0.015,0.128,0.015c0.864,0.076,1.703,0.109,2.509,0.109
		c5.906,0,10.571-1.897,13.864-5.644c3.753-4.13,5.961-9.904,6.563-17.164c-0.59-7.876-4.239-13.192-10.853-15.768
		c-2.752-1.089-5.456-1.633-8.044-1.633c-3.792,0-7.457,1.186-10.89,3.515c-5.778,3.853-10.388,9.017-14.101,15.783
		c-3.558,6.599-5.407,12.346-5.638,17.556c-0.009,0.067-0.037,0.131-0.094,0.164c-0.034,0.018-0.073,0.027-0.106,0.027
		c-0.027,0-0.055-0.003-0.076-0.015c-3.695-1.56-6.55-4.987-8.725-10.479C5.098,53.45,8.495,42.748,18.595,33.272
		c9.026-8.378,19.326-12.623,30.614-12.623c1.311,0,2.652,0.058,3.996,0.173c8.992,1.192,16.3,5.309,21.74,12.234
		c5.434,6.809,7.834,14.916,7.122,24.106c-0.961,11.276-4.999,19.904-12.341,26.36c-6.158,5.316-14.208,8.01-23.942,8.01
		c-1.928,0-3.959-0.11-6.033-0.313c-2.451,6.611-4.455,12.815-5.957,18.432c-1.469,5.903-1.73,10.303-0.827,13.843
		c0.012,0.054,0.003,0.118-0.033,0.167c-0.031,0.045-0.082,0.079-0.14,0.085C31.446,123.892,30.166,123.965,28.992,123.965z"/>
</g>
<g>
	<path opacity="0.2" fill="#29256C" d="M96.884,137.001c-1.597,0-3.223-0.119-4.826-0.347c-4.574-0.654-8.451-2.907-11.209-6.511
		c-0.237-0.313-0.447-0.645-0.639-0.995c-3.278-6.039-3.312-13.949-0.1-24.191c2.71-8.257,5.89-16.37,9.497-24.204
		c1.949-4.482,3.439-8.153,4.431-10.905c0.033-0.091,0.34-0.861,0.34-0.861c1.165-2.904,3.981-4.811,7.11-4.811h0.459
		c0.368-0.006,0.727-0.012,1.082-0.012c3.944,0,7.499,0.739,10.561,2.186c0.052,0.027,0.097,0.049,0.146,0.073
		c0.873,0.435,1.682,0.952,2.421,1.542c2.202-1.25,4.543-2.223,6.997-2.91c2.05-0.541,4.054-0.8,6.204-0.8
		c0.526,0,1.061,0.018,1.6,0.045c3.616,0.067,7.079,1.451,9.78,3.902c0.085,0.079,0.167,0.158,0.246,0.24
		c1.685,1.673,2.91,3.643,3.652,5.86c0.024,0.076,0.052,0.155,0.07,0.228c1.174,3.902,1.025,8.266-0.426,12.608
		c-1.095,3.302-2.332,6.271-3.664,8.825c-0.103,0.197-0.234,0.45-0.399,0.736c-0.076,0.173-0.146,0.334-0.216,0.48
		c-0.827,1.755-1.691,3.677-2.436,5.802c-0.432,1.247-0.633,2.241-0.587,2.971l0.179,1.001c0.447,2.475-0.344,5.011-2.12,6.788
		c-1.447,1.444-3.409,2.241-5.419,2.241c-0.453,0-0.915-0.036-1.371-0.122l-1.308-0.24c-0.319-0.058-0.63-0.134-0.934-0.225
		c-2.776-0.876-5.523-2.001-8.399-3.436c-0.046-0.021-0.085-0.046-0.131-0.067c-1.974-1.037-3.661-2.326-5.051-3.832
		c-0.283,0.611-0.553,1.229-0.815,1.849c-0.94,2.646-1.782,5.757-2.497,9.257c-0.605,2.862-0.736,5.255-0.383,7.168l0.188,0.748
		c0.535,2.126,0.131,4.385-1.113,6.195c-1.241,1.812-3.199,3.004-5.374,3.278l-0.87,0.103
		C100.041,136.885,98.463,137.001,96.884,137.001z"/>
	<path fill="#29256C" d="M96.884,131.959c-1.597,0-3.223-0.119-4.826-0.347c-4.574-0.651-8.451-2.901-11.209-6.511
		c-0.237-0.316-0.447-0.641-0.639-0.991c-3.278-6.037-3.312-13.952-0.1-24.192c2.71-8.259,5.89-16.37,9.497-24.204
		c1.949-4.482,3.439-8.15,4.431-10.908c0.033-0.088,0.34-0.854,0.34-0.854c1.165-2.907,3.981-4.811,7.11-4.811h0.459
		c0.368-0.012,0.727-0.018,1.082-0.018c3.944,0,7.499,0.736,10.561,2.187c0.052,0.027,0.097,0.045,0.146,0.076
		c0.873,0.435,1.682,0.955,2.421,1.539c2.202-1.253,4.543-2.223,6.997-2.91c2.05-0.541,4.054-0.797,6.204-0.797
		c0.526,0,1.061,0.015,1.6,0.049c3.616,0.064,7.079,1.441,9.78,3.899c0.085,0.082,0.167,0.158,0.246,0.24
		c1.685,1.673,2.91,3.646,3.652,5.854c0.024,0.076,0.052,0.158,0.07,0.237c1.174,3.898,1.025,8.256-0.426,12.608
		c-1.095,3.297-2.332,6.261-3.664,8.822c-0.103,0.198-0.234,0.45-0.399,0.73c-0.076,0.179-0.146,0.343-0.216,0.486
		c-0.827,1.755-1.691,3.677-2.436,5.802c-0.432,1.247-0.633,2.241-0.587,2.971l0.179,1.001c0.447,2.472-0.344,5.009-2.12,6.785
		c-1.447,1.451-3.409,2.247-5.419,2.247c-0.453,0-0.915-0.046-1.371-0.122l-1.308-0.243c-0.319-0.055-0.63-0.134-0.934-0.231
		c-2.776-0.873-5.523-1.992-8.399-3.43c-0.046-0.024-0.085-0.049-0.131-0.07c-1.974-1.031-3.661-2.323-5.051-3.832
		c-0.283,0.608-0.553,1.228-0.815,1.852c-0.94,2.646-1.782,5.76-2.497,9.251c-0.605,2.862-0.736,5.258-0.383,7.177l0.188,0.745
		c0.535,2.129,0.131,4.385-1.113,6.194c-1.241,1.813-3.199,3.005-5.374,3.272l-0.87,0.106
		C100.041,131.843,98.463,131.959,96.884,131.959z"/>
	<path fill="#D34A9A" d="M93.05,126.451c-1.517,0-3.065-0.116-4.586-0.331c-4.127-0.587-7.627-2.619-10.108-5.872
		c-0.186-0.243-0.353-0.502-0.502-0.772c-3.053-5.62-3.041-13.107,0.024-22.89c2.685-8.181,5.851-16.236,9.43-24.021
		c1.968-4.519,3.473-8.232,4.476-11.018c0.024-0.073,0.316-0.803,0.316-0.803c0.915-2.269,3.108-3.756,5.556-3.756h0.49
		c0.356-0.009,0.708-0.021,1.055-0.021c3.692,0,7.003,0.687,9.841,2.032c0.036,0.018,0.073,0.033,0.112,0.055
		c1.119,0.559,2.114,1.265,2.977,2.107c2.378-1.478,4.936-2.606,7.639-3.357c1.891-0.502,3.753-0.739,5.757-0.739
		c0.505,0,1.022,0.018,1.536,0.045c3.263,0.049,6.274,1.241,8.713,3.464c0.067,0.064,0.131,0.122,0.195,0.186
		c1.493,1.493,2.588,3.242,3.245,5.2c0.015,0.064,0.04,0.122,0.058,0.186c1.067,3.564,0.925,7.575-0.417,11.595
		c-1.067,3.217-2.269,6.107-3.567,8.588c-0.106,0.204-0.234,0.453-0.398,0.736c-0.085,0.192-0.164,0.374-0.24,0.535
		c-0.848,1.801-1.727,3.765-2.5,5.961c-0.532,1.53-0.754,2.755-0.672,3.734l0.198,1.089c0.35,1.928-0.265,3.911-1.658,5.298
		c-1.134,1.134-2.658,1.752-4.23,1.752c-0.353,0-0.715-0.027-1.067-0.094l-1.314-0.237c-0.243-0.043-0.487-0.103-0.727-0.182
		c-2.694-0.849-5.358-1.94-8.15-3.333c-2.704-1.417-4.811-3.3-6.264-5.568c-0.73,1.432-1.414,2.907-2.056,4.418
		c-0.973,2.725-1.837,5.927-2.572,9.516c-0.657,3.096-0.782,5.732-0.374,7.873l0.195,0.797c0.42,1.663,0.106,3.424-0.867,4.838
		c-0.967,1.414-2.5,2.345-4.196,2.558l-0.885,0.109C96.054,126.336,94.552,126.451,93.05,126.451z"/>
	<path fill="#29256C" d="M92.043,125.439c-1.521,0-3.062-0.112-4.586-0.329c-4.13-0.584-7.627-2.615-10.112-5.869
		c-0.186-0.246-0.353-0.502-0.502-0.775c-3.05-5.617-3.041-13.104,0.027-22.887c2.682-8.18,5.851-16.239,9.427-24.018
		c1.967-4.522,3.473-8.238,4.479-11.027c0.024-0.067,0.319-0.8,0.319-0.8c0.912-2.265,3.108-3.756,5.55-3.756h0.49
		c0.359-0.009,0.712-0.015,1.055-0.015c3.689,0,7.007,0.678,9.844,2.025c0.033,0.021,0.076,0.036,0.112,0.054
		c1.116,0.56,2.11,1.265,2.974,2.108c2.378-1.475,4.935-2.6,7.645-3.354c1.888-0.505,3.746-0.742,5.75-0.742
		c0.508,0,1.022,0.018,1.536,0.042c3.266,0.055,6.277,1.244,8.713,3.473c0.07,0.058,0.13,0.116,0.195,0.179
		c1.493,1.49,2.588,3.245,3.244,5.203c0.018,0.061,0.043,0.125,0.058,0.182c1.067,3.567,0.921,7.578-0.414,11.595
		c-1.076,3.217-2.272,6.113-3.57,8.585c-0.1,0.207-0.231,0.459-0.398,0.745c-0.082,0.186-0.161,0.368-0.24,0.532
		c-0.842,1.797-1.727,3.762-2.497,5.961c-0.532,1.526-0.757,2.752-0.675,3.734l0.201,1.089c0.347,1.925-0.271,3.911-1.66,5.298
		c-1.131,1.134-2.655,1.754-4.23,1.754c-0.353,0-0.708-0.03-1.07-0.097l-1.311-0.237c-0.24-0.045-0.487-0.103-0.727-0.182
		c-2.691-0.848-5.355-1.94-8.15-3.333c-2.7-1.414-4.811-3.302-6.262-5.568c-0.736,1.432-1.417,2.904-2.059,4.416
		c-0.967,2.728-1.834,5.927-2.573,9.521c-0.657,3.09-0.779,5.726-0.377,7.867l0.198,0.8c0.42,1.664,0.101,3.424-0.864,4.835
		c-0.97,1.414-2.5,2.348-4.2,2.56l-0.882,0.106C95.048,125.329,93.548,125.439,92.043,125.439z"/>
	<path fill="#02AEDE" d="M93.129,121.632c-1.311,0-2.652-0.094-3.972-0.286c-2.974-0.42-5.486-1.877-7.262-4.2
		c-0.052-0.07-0.097-0.14-0.137-0.21c-2.46-4.531-2.345-10.908,0.356-19.511c2.621-7.992,5.732-15.911,9.251-23.559
		c2.034-4.671,3.54-8.381,4.595-11.313l0.262-0.654c0.249-0.62,0.845-1.022,1.517-1.022h0.59c0.283-0.015,0.623-0.021,0.946-0.021
		c3.047,0,5.732,0.544,7.98,1.606c1.381,0.693,2.977,1.989,3.865,4.449c2.938-2.563,6.259-4.37,9.902-5.379
		c1.469-0.389,2.962-0.581,4.586-0.581c0.471,0,0.949,0.015,1.436,0.049c0.003,0,0.009,0,0.012,0c2.138,0,4.2,0.803,5.872,2.336
		c1.062,1.052,1.801,2.229,2.238,3.543c0.83,2.758,0.696,5.86-0.359,9.023c-1.003,3.02-2.119,5.708-3.318,7.992
		c-0.109,0.213-0.234,0.459-0.405,0.699c-0.015,0.043-0.04,0.103-0.061,0.155c-0.079,0.198-0.158,0.386-0.237,0.551
		c-0.833,1.776-1.821,3.963-2.664,6.359c-0.782,2.247-1.067,4.151-0.867,5.83l0.219,1.21c0.097,0.526-0.076,1.071-0.453,1.445
		c-0.307,0.307-0.721,0.474-1.152,0.474c-0.1,0-0.192-0.006-0.292-0.021l-1.314-0.24c-0.064-0.012-0.131-0.027-0.192-0.046
		c-2.473-0.779-4.926-1.785-7.514-3.081c-2.919-1.526-4.887-3.804-5.723-6.593c-0.021-0.07-0.036-0.14-0.049-0.213
		c-0.408-2.576-0.122-5.145,0.815-7.429c0.125-0.35,0.249-0.687,0.374-1.031c-0.049,0.064-0.173,0.24-0.204,0.274
		c-3.95,5-7.073,10.297-9.549,16.19c-1.049,2.919-1.962,6.277-2.767,10.188c-0.788,3.704-0.906,6.979-0.359,9.725l0.222,0.876
		c0.116,0.456,0.033,0.937-0.237,1.323c-0.262,0.386-0.675,0.639-1.14,0.696l-0.955,0.116
		C95.756,121.537,94.448,121.632,93.129,121.632z"/>
	<path fill="#66CCE6" d="M91.383,121.272c-1.235,0-2.487-0.091-3.731-0.274c-2.573-0.368-4.744-1.63-6.268-3.652
		c-2.256-4.197-2.108-10.215,0.444-18.423c2.569-7.919,5.629-15.789,9.093-23.392c2.043-4.726,3.54-8.466,4.595-11.428l0.24-0.602
		c0.034-0.076,0.103-0.128,0.186-0.128h0.59c0.313-0.012,0.627-0.018,0.94-0.018c2.801,0,5.258,0.499,7.289,1.469
		c2.044,1.037,3.287,3.074,3.613,5.921c3.159-3.33,6.864-5.605,10.999-6.772c1.317-0.35,2.679-0.526,4.163-0.526
		c0.438,0,0.879,0.018,1.335,0.045l0,0c1.843,0,3.561,0.681,4.957,1.965c0.852,0.851,1.466,1.84,1.828,2.947
		c0.721,2.427,0.596,5.233-0.353,8.114c-0.973,2.944-2.05,5.568-3.202,7.776c-0.116,0.243-0.243,0.505-0.386,0.645
		c-0.021,0.061-0.076,0.201-0.128,0.35c-0.067,0.158-0.128,0.31-0.192,0.435c-0.854,1.843-1.855,4.069-2.707,6.529
		c-0.845,2.451-1.152,4.571-0.934,6.468l0.234,1.302c0.012,0.064-0.006,0.131-0.055,0.176c-0.036,0.037-0.088,0.058-0.14,0.058
		c-0.015,0-1.335-0.237-1.335-0.237c-2.393-0.766-4.759-1.742-7.253-2.998c-2.554-1.353-4.215-3.278-4.939-5.726
		c-0.368-2.345-0.122-4.65,0.715-6.693c0.614-1.752,1.216-3.306,1.891-4.893c0.17-0.468,0.38-0.949,0.587-1.429
		c0.155-0.353,0.31-0.712,0.447-1.067c-0.319,0.213-0.663,0.52-1.07,0.885l-0.478,0.423c-0.827,0.706-1.532,1.42-2.223,2.238
		c-0.271,0.322-0.511,0.59-0.712,0.824c-0.316,0.353-0.547,0.608-0.684,0.827c-4.005,5.115-7.162,10.516-9.67,16.534
		c-1.083,3.053-2.007,6.472-2.813,10.452c-0.818,3.895-0.934,7.35-0.356,10.297l0.234,0.943c0.015,0.052,0.006,0.116-0.027,0.161
		c-0.036,0.046-0.085,0.082-0.14,0.088l-0.943,0.116C93.843,121.181,92.615,121.272,91.383,121.272z"/>
</g>
<g>
	<path opacity="0.2" fill="#29256C" d="M150.871,135.856c-0.964,0-1.952-0.052-2.925-0.152c-0.244-0.027-0.478-0.061-0.712-0.106
		c-0.724-0.146-1.666-0.34-2.746-0.733c-1.797-0.556-3.369-1.384-4.707-2.463c-5.833-4.546-9.096-11.078-9.424-18.897
		c-0.414-7.794,1.089-15.634,4.47-23.227c3.491-7.831,8.503-14.557,14.907-20.013c5.522-4.668,11.772-7.031,18.587-7.031
		c0.83,0,1.67,0.036,2.512,0.106c0.295,0.021,0.584,0.067,0.87,0.125c0.821,0.161,2.034,0.405,3.33,1.006
		c0.937,0.405,2.007,0.879,3.141,1.527c0.343,0.197,0.675,0.416,0.982,0.666c5.836,4.668,9.096,11.2,9.424,18.888
		c0.42,7.861-1.125,15.695-4.577,23.212c-3.291,7.767-8.311,14.503-14.922,20.028C163.662,133.481,157.531,135.856,150.871,135.856
		L150.871,135.856z"/>
	<path fill="#29256C" d="M150.871,130.814c-0.964,0-1.952-0.052-2.925-0.155c-0.244-0.021-0.478-0.061-0.712-0.103
		c-0.724-0.143-1.666-0.334-2.746-0.733c-1.797-0.556-3.369-1.38-4.707-2.457c-5.833-4.55-9.096-11.085-9.424-18.9
		c-0.414-7.794,1.089-15.634,4.47-23.233c3.491-7.828,8.503-14.554,14.907-20.007c5.522-4.668,11.772-7.037,18.587-7.037
		c0.83,0,1.67,0.04,2.512,0.11c0.295,0.024,0.584,0.067,0.87,0.125c0.821,0.161,2.034,0.408,3.33,1.01
		c0.937,0.401,2.007,0.873,3.141,1.52c0.343,0.201,0.675,0.423,0.982,0.669c5.836,4.668,9.096,11.206,9.424,18.885
		c0.42,7.867-1.125,15.698-4.577,23.224c-3.291,7.761-8.311,14.497-14.922,20.019C163.662,128.439,157.531,130.814,150.871,130.814
		L150.871,130.814z"/>
	<path fill="#D34A9A" d="M147.04,125.307c-0.909,0-1.834-0.052-2.752-0.149c-0.186-0.015-0.377-0.046-0.557-0.082
		c-0.675-0.134-1.551-0.313-2.539-0.675c-1.627-0.499-3.008-1.213-4.191-2.186c-5.529-4.294-8.488-10.233-8.801-17.653
		c-0.398-7.542,1.058-15.126,4.328-22.476c3.388-7.597,8.25-14.123,14.463-19.408c5.203-4.409,11.088-6.632,17.498-6.632
		c0.779,0,1.575,0.027,2.372,0.094c0.231,0.021,0.456,0.052,0.684,0.097c0.785,0.161,1.843,0.374,2.965,0.894
		c0.949,0.41,1.937,0.839,2.998,1.451c0.268,0.152,0.526,0.329,0.766,0.52c5.523,4.422,8.488,10.361,8.798,17.65
		c0.405,7.608-1.091,15.187-4.44,22.464c-3.187,7.53-8.056,14.068-14.469,19.423C159.055,123.062,153.295,125.307,147.04,125.307
		L147.04,125.307z"/>
	<path fill="#29256C" d="M146.03,124.297c-0.903,0-1.828-0.049-2.749-0.143c-0.188-0.021-0.377-0.045-0.556-0.085
		c-0.675-0.134-1.557-0.313-2.536-0.675c-1.63-0.499-3.008-1.214-4.197-2.187c-5.522-4.294-8.484-10.236-8.801-17.656
		c-0.395-7.542,1.058-15.123,4.328-22.476c3.388-7.593,8.25-14.119,14.463-19.411c5.209-4.403,11.091-6.632,17.501-6.632
		c0.775,0,1.578,0.033,2.369,0.1c0.231,0.021,0.456,0.052,0.684,0.097c0.784,0.155,1.849,0.371,2.971,0.894
		c0.943,0.407,1.931,0.836,2.992,1.447c0.271,0.155,0.526,0.325,0.769,0.52c5.52,4.418,8.481,10.352,8.798,17.647
		c0.401,7.615-1.089,15.193-4.44,22.47c-3.19,7.527-8.056,14.068-14.472,19.42C158.045,122.05,152.285,124.297,146.03,124.297
		L146.03,124.297z"/>
	<path fill="#02AEDE" d="M147.119,120.49c-0.76,0-1.532-0.046-2.302-0.122c-0.052-0.006-0.103-0.015-0.155-0.024
		c-0.608-0.122-1.286-0.258-1.992-0.529c-1.168-0.344-2.117-0.827-2.904-1.484c-4.461-3.439-6.882-8.305-7.137-14.418
		c-0.362-6.894,0.967-13.806,3.95-20.527c3.123-6.991,7.603-13,13.314-17.863c4.388-3.71,9.324-5.592,14.673-5.592
		c0.663,0,1.341,0.027,2.016,0.085c0.064,0.003,0.125,0.012,0.182,0.024c0.657,0.134,1.405,0.283,2.08,0.614
		c0.83,0.356,1.694,0.733,2.585,1.238c0.073,0.045,0.14,0.091,0.207,0.143c4.504,3.598,6.915,8.454,7.171,14.436
		c0.368,6.973-1.006,13.889-4.084,20.545c-2.904,6.891-7.387,12.918-13.311,17.854C157.13,118.592,152.313,120.49,147.119,120.49
		L147.119,120.49z M161.801,80.835c-0.207,0-0.477,0.103-0.809,0.31c-0.961,0.599-1.642,1.107-2.095,1.56
		c-2.159,2.506-3.959,5.264-5.27,8.114c-1.603,3.318-2.637,6.754-3.087,10.254c-0.222,2.695,0.331,3.619,0.608,3.905
		c0.228-0.009,1.07-0.173,2.928-1.922c2.409-2.658,4.124-5.23,5.392-8.101c1.511-3.132,2.478-6.444,2.971-10.16
		c0.112-0.885,0.088-1.654-0.097-2.567c-0.009-0.046-0.015-0.097-0.021-0.149c-0.067-0.608-0.189-1.025-0.374-1.235
		C161.898,80.841,161.853,80.835,161.801,80.835z"/>
	<path fill="#66CCE6" d="M145.309,120.125c-0.699,0-1.42-0.034-2.129-0.11c-0.617-0.128-1.228-0.246-1.831-0.493
		c-0.973-0.283-1.77-0.681-2.406-1.216c-4.117-3.208-6.325-7.715-6.566-13.387c-0.353-6.772,0.888-13.28,3.792-19.879
		c3.002-6.8,7.308-12.639,12.8-17.361c4.136-3.534,8.594-5.249,13.614-5.249c0.614,0,1.244,0.025,1.873,0.076
		c0.617,0.125,1.232,0.246,1.73,0.499c0.854,0.368,1.673,0.727,2.484,1.198c4.151,3.348,6.359,7.846,6.59,13.402
		c0.362,6.845-0.921,13.344-3.914,19.876c-2.801,6.727-7.107,12.572-12.797,17.358C154.557,118.349,150.102,120.125,145.309,120.125
		L145.309,120.125z M159.852,80.473c-0.486,0-0.992,0.17-1.557,0.529c-1.04,0.654-1.806,1.232-2.326,1.761
		c-2.293,2.685-4.148,5.559-5.504,8.524c-1.639,3.43-2.707,7.022-3.172,10.674c-0.222,2.697,0.188,4.489,1.226,5.294
		c0.225,0.149,0.48,0.228,0.784,0.228c0.958,0,2.275-0.797,3.914-2.363c2.497-2.78,4.285-5.492,5.614-8.515
		c1.527-3.19,2.551-6.739,3.053-10.559c0.134-1.034,0.097-1.974-0.109-3.035c-0.131-1.207-0.477-1.955-1.101-2.372
		C160.414,80.53,160.137,80.473,159.852,80.473z"/>
</g>
<g>
	<path opacity="0.2" fill="#29256C" d="M221.224,136c-4.285,0-8.034-0.873-11.148-2.606c-0.988-0.526-2.173-1.308-3.332-2.43
		c-0.891,0.62-1.817,1.216-2.778,1.791c-2.047,1.262-4.548,2.229-7.353,2.81c-1.18,0.292-2.402,0.435-3.642,0.435l0,0
		c-2.17,0-4.399-0.459-6.452-1.341c-0.137-0.055-0.272-0.122-0.403-0.186c-0.616-0.307-1.378-0.687-2.136-1.192
		c-0.204-0.137-0.401-0.283-0.592-0.438c-3.214-2.615-5.34-6.028-6.315-10.139c-0.765-3.214-0.981-6.487-0.643-9.719
		c0.81-8.101,3.178-15.819,7.032-22.902c3.766-7.493,9.108-14.232,15.871-20.025c0.05-0.046,0.103-0.085,0.157-0.131
		c2.558-2.077,5.46-3.75,8.641-4.978c2.18-0.909,4.445-1.369,6.732-1.369c1.905,0,3.821,0.319,5.705,0.961
		c0.452-1.192,0.944-2.509,1.473-3.95c1.554-4.215,2.819-8.566,3.955-12.657c0.483-1.946,0.605-3.071,0.628-3.628l-0.28-0.444
		c-1.445-2.272-1.588-5.133-0.386-7.536c1.204-2.408,3.584-4.005,6.264-4.215l1.548-0.119c0.199-0.015,0.394-0.021,0.593-0.021
		c3.651,0,7.373,0.672,11.06,2.007c4.816,1.727,8.454,4.939,10.519,9.278c0.134,0.283,0.251,0.569,0.351,0.867
		c1.229,3.683,1.143,7.855-0.261,12.757c-1.128,4.099-1.992,6.8-2.851,8.91c-2.445,6.556-4.866,12.547-7.397,18.298
		c-1.017,2.263-1.902,4.474-2.84,6.812c-0.076,0.198-0.205,0.493-0.296,0.684l-0.245,0.483c-1.872,4.476-4.318,10.574-6.832,18.353
		c-0.014,0.045-0.026,0.091-0.046,0.137c-2.582,7.521-2.778,12.347-2.446,15.148l0.134,0.529c0.572,2.287,0.056,4.714-1.394,6.575
		c-1.454,1.858-3.683,2.944-6.041,2.944h-0.48C223.898,135.921,222.532,136,221.224,136z"/>
	<path fill="#29256C" d="M221.224,130.964c-4.285,0-8.034-0.879-11.148-2.612c-0.988-0.523-2.173-1.308-3.332-2.43
		c-0.891,0.62-1.817,1.217-2.778,1.797c-2.047,1.262-4.548,2.223-7.353,2.804c-1.18,0.292-2.402,0.441-3.642,0.441l0,0
		c-2.17,0-4.399-0.468-6.452-1.344c-0.137-0.058-0.272-0.119-0.403-0.188c-0.616-0.304-1.378-0.684-2.136-1.195
		c-0.204-0.128-0.401-0.277-0.592-0.435c-3.214-2.612-5.34-6.024-6.315-10.133c-0.765-3.214-0.981-6.489-0.643-9.722
		c0.81-8.107,3.178-15.82,7.032-22.905c3.766-7.49,9.108-14.229,15.871-20.022c0.05-0.045,0.103-0.088,0.157-0.134
		c2.558-2.074,5.46-3.743,8.641-4.972c2.18-0.912,4.445-1.378,6.732-1.378c1.905,0,3.821,0.325,5.705,0.961
		c0.452-1.186,0.944-2.503,1.473-3.941c1.554-4.221,2.819-8.576,3.955-12.663c0.483-1.943,0.605-3.068,0.628-3.625l-0.28-0.441
		c-1.445-2.272-1.588-5.133-0.386-7.542c1.204-2.408,3.584-4.005,6.264-4.209l1.548-0.118c0.199-0.015,0.394-0.027,0.593-0.027
		c3.651,0,7.373,0.675,11.06,2.007c4.816,1.73,8.454,4.939,10.519,9.275c0.134,0.286,0.251,0.575,0.351,0.867
		c1.229,3.683,1.143,7.861-0.261,12.76c-1.128,4.099-1.992,6.797-2.851,8.91c-2.445,6.562-4.866,12.55-7.397,18.301
		c-1.017,2.262-1.902,4.473-2.84,6.812c-0.076,0.197-0.205,0.49-0.296,0.681l-0.245,0.484c-1.872,4.476-4.318,10.58-6.832,18.353
		c-0.014,0.042-0.026,0.085-0.046,0.134c-2.582,7.523-2.778,12.35-2.446,15.151l0.134,0.532c0.572,2.29,0.056,4.71-1.394,6.572
		c-1.454,1.861-3.683,2.947-6.041,2.947h-0.48C223.898,130.879,222.532,130.964,221.224,130.964z"/>
	<path fill="#D34A9A" d="M217.392,125.454c-3.999,0-7.48-0.812-10.344-2.408c-1.149-0.611-2.599-1.609-3.905-3.184
		c-1.219,0.906-2.512,1.764-3.873,2.585c-1.907,1.177-4.233,2.059-6.859,2.609c-1.058,0.262-2.159,0.398-3.269,0.398l0,0
		c-1.948,0-3.949-0.419-5.795-1.21c-0.103-0.046-0.208-0.094-0.313-0.143c-0.573-0.289-1.283-0.642-1.956-1.089
		c-0.159-0.106-0.313-0.219-0.462-0.341c-2.962-2.411-4.838-5.428-5.741-9.223c-0.722-3.032-0.926-6.116-0.607-9.16
		c0.789-7.895,3.094-15.412,6.85-22.3c3.669-7.301,8.875-13.873,15.478-19.532c0.038-0.031,0.079-0.064,0.12-0.103
		c2.428-1.968,5.188-3.552,8.21-4.714c1.986-0.833,4.037-1.253,6.106-1.253c1.928,0,3.868,0.368,5.77,1.086
		c0.224,0.091,0.444,0.188,0.654,0.298c0.071,0.04,0.147,0.079,0.219,0.116c0.622-1.584,1.329-3.448,2.112-5.58
		c1.575-4.282,2.856-8.688,4.002-12.812c0.684-2.758,0.708-4.075,0.683-4.549l-0.543-0.851c-1.127-1.773-1.241-4.008-0.301-5.888
		c0.941-1.876,2.796-3.129,4.892-3.29l1.553-0.119c0.15-0.009,0.304-0.015,0.461-0.015c3.456,0,6.984,0.639,10.49,1.91
		c4.453,1.597,7.675,4.431,9.572,8.412c0.106,0.222,0.198,0.45,0.277,0.684c1.116,3.345,1.025,7.192-0.283,11.763
		c-1.12,4.057-1.964,6.705-2.799,8.758c-2.439,6.538-4.85,12.508-7.37,18.231c-1.029,2.287-1.92,4.513-2.863,6.866
		c-0.062,0.152-0.17,0.411-0.245,0.554l-0.266,0.535c-1.749,4.182-4.337,10.595-6.902,18.538
		c-2.752,8.007-2.921,13.137-2.549,16.108l0.157,0.632c0.449,1.788,0.044,3.68-1.089,5.127c-1.136,1.454-2.874,2.305-4.715,2.305
		h-0.581C219.997,125.366,218.665,125.454,217.392,125.454z"/>
	<path fill="#29256C" d="M216.383,124.444c-3.997,0-7.478-0.809-10.346-2.405c-1.145-0.611-2.596-1.612-3.903-3.184
		c-1.221,0.906-2.506,1.764-3.871,2.582c-1.905,1.174-4.235,2.065-6.857,2.609c-1.062,0.265-2.158,0.398-3.271,0.398h-0.002
		c-1.945,0-3.947-0.417-5.793-1.204c-0.105-0.049-0.208-0.1-0.312-0.149c-0.575-0.286-1.285-0.642-1.957-1.089
		c-0.16-0.106-0.315-0.222-0.462-0.34c-2.959-2.411-4.837-5.428-5.742-9.221c-0.721-3.029-0.927-6.115-0.607-9.16
		c0.791-7.894,3.096-15.412,6.848-22.3c3.672-7.305,8.875-13.873,15.475-19.53c0.041-0.033,0.083-0.07,0.125-0.11
		c2.428-1.964,5.186-3.549,8.211-4.713c1.983-0.833,4.035-1.256,6.105-1.256c1.926,0,3.867,0.371,5.772,1.091
		c0.222,0.088,0.439,0.186,0.651,0.295c0.073,0.04,0.15,0.082,0.222,0.116c0.619-1.584,1.324-3.448,2.113-5.58
		c1.575-4.285,2.852-8.685,4-12.812c0.684-2.758,0.71-4.072,0.683-4.549l-0.544-0.849c-1.125-1.773-1.241-4.011-0.298-5.887
		c0.936-1.882,2.795-3.126,4.888-3.29l1.554-0.119c0.15-0.012,0.303-0.021,0.459-0.021c3.456,0,6.984,0.645,10.49,1.91
		c4.455,1.6,7.676,4.434,9.573,8.418c0.105,0.222,0.198,0.447,0.275,0.678c1.116,3.354,1.026,7.201-0.281,11.769
		c-1.122,4.057-1.969,6.703-2.802,8.755c-2.439,6.541-4.849,12.508-7.367,18.237c-1.029,2.281-1.924,4.504-2.863,6.86
		c-0.064,0.155-0.17,0.408-0.246,0.553l-0.266,0.542c-1.749,4.178-4.332,10.589-6.902,18.535c-2.751,8.01-2.923,13.134-2.55,16.102
		l0.16,0.636c0.444,1.791,0.043,3.683-1.089,5.13c-1.136,1.457-2.874,2.302-4.717,2.302h-0.581
		C218.992,124.356,217.658,124.444,216.383,124.444z"/>
	<path fill="#02AEDE" d="M217.474,120.637c-3.283,0-6.071-0.639-8.287-1.889c-1.73-0.9-3.746-2.706-4.595-6.246
		c-2.174,2.147-4.644,4.044-7.479,5.741c-1.553,0.964-3.459,1.676-5.643,2.117c-0.654,0.173-1.446,0.277-2.249,0.277l0,0
		c-1.361,0-2.772-0.298-4.08-0.854c-0.598-0.298-1.124-0.563-1.572-0.858c-0.044-0.034-0.085-0.064-0.126-0.094
		c-2.189-1.779-3.581-4.023-4.253-6.855c-0.61-2.551-0.782-5.139-0.514-7.697c0.746-7.475,2.839-14.268,6.391-20.764
		c3.383-6.77,8.25-12.915,14.437-18.213c2.132-1.733,4.53-3.102,7.157-4.102c1.411-0.608,2.932-0.925,4.449-0.925
		c1.396,0,2.816,0.271,4.222,0.803c0.064,0.024,0.122,0.052,0.182,0.076c1.673,0.882,3.017,2.041,4.011,3.464
		c0.087-0.207,0.166-0.414,0.236-0.62c0.032-0.1,0.078-0.198,0.126-0.286c0.059-0.195,0.117-0.362,0.208-0.535
		c0.905-2.047,2.214-5.383,3.853-9.838c1.644-4.449,2.955-8.983,4.131-13.225c1.32-5.267,0.737-7.019,0.423-7.527l-0.821-1.295
		c-0.307-0.487-0.341-1.092-0.081-1.603c0.255-0.514,0.762-0.854,1.333-0.897l1.552-0.119c0.04-0.003,0.081-0.003,0.12-0.003
		c2.953,0,5.988,0.55,9.017,1.645c3.338,1.201,5.737,3.281,7.121,6.198c0.031,0.058,0.053,0.119,0.075,0.186
		c0.82,2.454,0.707,5.547-0.336,9.19c-1.1,3.984-1.901,6.501-2.685,8.393c-2.397,6.447-4.787,12.365-7.285,18.042
		c-1.051,2.33-2.001,4.705-2.919,6.998c-0.017,0.045-0.074,0.188-0.096,0.225l-0.359,0.721c-1.73,4.142-4.404,10.744-7.058,18.961
		c-2.439,7.101-3.367,13.402-2.69,18.264l0.218,0.873c0.123,0.483,0.014,1.001-0.298,1.396c-0.307,0.398-0.78,0.627-1.285,0.627
		h-0.849C219.893,120.549,218.646,120.637,217.474,120.637z M213.004,75.876c-0.041,0.012-0.09,0.027-0.146,0.046
		c-0.47,0.188-0.987,0.499-1.534,0.824c-0.445,0.271-0.696,0.523-1.02,0.842c-2.6,2.381-4.778,5.203-6.509,8.439
		c-1.996,3.494-3.262,6.8-3.888,10.139c-0.108,0.45-0.21,0.93-0.21,1.487c0,0.091-0.009,0.179-0.023,0.271
		c-0.073,0.444,0.014,0.982,0.117,1.6c0.014,0.088,0.023,0.188,0.023,0.274c0.059,0.033,0.082,0.045,0.112,0.076
		c0.052-0.012,0.131-0.033,0.245-0.07c0.37-0.155,0.864-0.444,1.391-0.763c0.45-0.334,0.821-0.62,1.075-0.873
		c2.751-2.63,4.872-5.379,6.508-8.436c0.585-1.058,1.157-2.199,1.615-3.233l1.407-3.519c0.135-0.338,0.351-1.046,0.625-2.545
		c0.014-0.061,0.027-0.116,0.044-0.173c0.271-0.9,0.409-1.989,0.409-3.232C213.244,76.466,213.136,76.116,213.004,75.876z"/>
	<path fill="#66CCE6" d="M215.532,120.272c-2.998,0-5.526-0.569-7.51-1.7c-2.685-1.417-4.107-4.182-4.224-8.214
		c-2.524,3.004-5.519,5.538-9.147,7.727c-1.411,0.885-3.143,1.536-5.139,1.94c-0.616,0.164-1.274,0.246-1.948,0.246l0,0
		c-1.159,0-2.361-0.256-3.481-0.739c-0.477-0.244-0.963-0.484-1.327-0.727c-1.962-1.612-3.146-3.543-3.745-6.085
		c-0.567-2.399-0.725-4.826-0.476-7.223c0.719-7.289,2.737-13.907,6.161-20.229c3.334-6.736,7.905-12.565,13.969-17.814
		c1.963-1.609,4.206-2.901,6.669-3.853c1.277-0.55,2.591-0.83,3.902-0.83c1.209,0,2.445,0.237,3.678,0.712
		c2.392,1.265,3.991,3.175,4.776,5.681c0.175-0.517,0.371-0.985,0.639-1.53c0.106-0.329,0.255-0.69,0.404-1.052
		c0.146-0.356,0.292-0.709,0.409-1.064c0.078-0.106,0.102-0.198,0.126-0.283c0.031-0.103,0.065-0.222,0.123-0.34
		c0.944-2.147,2.249-5.507,3.886-9.987c1.641-4.501,2.95-9.071,4.125-13.338c1.06-4.288,1.145-7.204,0.257-8.664l-0.826-1.311
		c-0.035-0.064-0.038-0.134-0.009-0.201c0.03-0.064,0.094-0.103,0.163-0.11l1.542-0.116c2.772,0,5.611,0.52,8.456,1.56
		c2.983,1.08,5.027,2.871,6.249,5.462c0.728,2.202,0.61,5.012-0.343,8.372c-1.072,3.944-1.852,6.407-2.602,8.247
		c-2.383,6.462-4.741,12.353-7.201,18.012c-1.044,2.341-1.995,4.732-2.909,7.037c-0.003,0.006-0.044,0.119-0.049,0.119l-0.354,0.715
		c-1.764,4.254-4.423,10.896-7.067,19.168c-2.491,7.329-3.426,13.885-2.708,18.982l0.237,0.934c0.012,0.058,0,0.125-0.04,0.176
		c-0.038,0.043-0.096,0.073-0.157,0.073h-0.947C217.874,120.19,216.668,120.272,215.532,120.272z M211.232,75.502
		c-0.257,0-0.524,0.055-0.798,0.164c-0.564,0.228-1.148,0.581-1.717,0.915c-0.588,0.365-0.927,0.708-1.282,1.064
		c-2.649,2.445-4.899,5.398-6.695,8.773c-2.034,3.6-3.342,7.052-3.99,10.552c-0.114,0.444-0.236,1.031-0.236,1.752
		c-0.113,0.714-0.005,1.389,0.119,2.104c0.001,0.556,0.302,1.086,0.717,1.293c0.257,0.185,0.473,0.262,0.731,0.262
		c0.208,0,0.455-0.049,0.771-0.152c0.563-0.231,1.15-0.587,1.725-0.93c0.503-0.386,0.935-0.718,1.266-1.052
		c2.809-2.716,5-5.583,6.692-8.77c0.59-1.077,1.176-2.256,1.642-3.324l1.417-3.567c0.228-0.584,0.461-1.53,0.698-2.822
		c0.313-1.064,0.467-2.284,0.467-3.661c0-1.073-0.289-1.882-0.887-2.485C211.721,75.554,211.483,75.502,211.232,75.502z"/>
</g>
<g>
	<path opacity="0.2" fill="#29256C" d="M246.578,137.573c-1.557,0-3.157-0.112-4.764-0.341c-4.487-0.641-8.32-2.895-11.087-6.511
		c-0.242-0.316-0.453-0.651-0.646-1.001c-3.37-6.207-3.391-14.08-0.053-24.076c2.471-7.654,5.507-15.315,8.997-22.702
		c1.274-2.889,2.316-5.322,3.102-7.238c0.307-0.724,0.556-1.451,0.815-2.186c0.199-0.572,0.403-1.147,0.618-1.725l0.012-0.045
		c0.347-1.371,1.043-2.576,1.987-3.524c-0.421-1.882-0.452-3.853-0.087-5.881c0.622-4.148,2.34-7.581,5.24-10.479
		c2.877-2.877,6.477-4.72,10.428-5.352c0.871-0.164,1.753-0.249,2.632-0.249c3.817,0,7.438,1.508,10.477,4.358
		c0.12,0.113,0.234,0.225,0.348,0.347c3.394,3.622,4.832,8.077,4.143,12.879c-0.614,4.075-2.472,7.742-5.395,10.653
		c-0.963,0.973-2.002,1.819-3.094,2.542c0.202,0.818,0.347,1.667,0.427,2.558c0.021,0.225,0.03,0.459,0.03,0.69
		c0,1.691,0,3.786-0.582,6.018c-1.107,4.756-2.928,9.962-5.554,15.914c-0.036,0.082-0.074,0.17-0.116,0.255
		c-1.639,3.366-3.055,7.067-4.455,11.647c-0.551,1.837-1.075,4.13-1.679,7.381c-0.426,2.843-0.186,4.48-0.005,5.213
		c0.065,0.252,0.116,0.508,0.152,0.769l0.119,0.83c0.543,3.792-1.791,7.396-5.473,8.454l-0.83,0.24
		c-0.324,0.091-0.649,0.161-0.981,0.21C249.743,137.457,248.152,137.573,246.578,137.573z"/>
	<path fill="#29256C" d="M246.578,132.531c-1.557,0-3.157-0.113-4.764-0.341c-4.487-0.642-8.32-2.892-11.087-6.511
		c-0.242-0.316-0.453-0.648-0.646-0.998c-3.37-6.213-3.391-14.086-0.053-24.079c2.471-7.654,5.507-15.312,8.997-22.695
		c1.274-2.895,2.316-5.331,3.102-7.244c0.307-0.727,0.556-1.448,0.815-2.19c0.199-0.566,0.403-1.146,0.618-1.721l0.012-0.045
		c0.347-1.366,1.043-2.57,1.987-3.528c-0.421-1.879-0.452-3.847-0.087-5.872c0.622-4.157,2.34-7.587,5.24-10.489
		c2.877-2.874,6.477-4.72,10.428-5.346c0.871-0.167,1.753-0.246,2.632-0.246c3.817,0,7.438,1.505,10.477,4.352
		c0.12,0.11,0.234,0.228,0.348,0.347c3.394,3.625,4.832,8.074,4.143,12.885c-0.614,4.072-2.472,7.736-5.395,10.653
		c-0.963,0.97-2.002,1.815-3.094,2.539c0.202,0.818,0.347,1.666,0.427,2.551c0.021,0.228,0.03,0.459,0.03,0.696
		c0,1.691,0,3.783-0.582,6.021c-1.107,4.756-2.928,9.96-5.554,15.905c-0.036,0.091-0.074,0.173-0.116,0.258
		c-1.639,3.37-3.055,7.071-4.455,11.647c-0.551,1.837-1.075,4.13-1.679,7.381c-0.426,2.843-0.186,4.483-0.005,5.215
		c0.065,0.253,0.116,0.508,0.152,0.763l0.119,0.836c0.543,3.786-1.791,7.396-5.473,8.454l-0.83,0.243
		c-0.324,0.091-0.649,0.158-0.981,0.207C249.743,132.418,248.152,132.531,246.578,132.531z"/>
	<path fill="#D34A9A" d="M242.748,127.02c-1.478,0-3.001-0.106-4.525-0.325c-4.046-0.578-7.499-2.606-9.994-5.866
		c-0.185-0.246-0.353-0.508-0.502-0.781c-3.138-5.775-3.117-13.222,0.059-22.747c2.459-7.609,5.474-15.202,8.933-22.528
		c1.285-2.91,2.339-5.37,3.132-7.298c0.307-0.748,0.573-1.503,0.841-2.275c0.21-0.59,0.417-1.18,0.639-1.776l0.036-0.14
		c0.345-1.387,1.165-2.554,2.253-3.36c-0.601-1.952-0.71-4.032-0.324-6.176c0.567-3.792,2.126-6.927,4.77-9.567
		c2.629-2.63,5.919-4.315,9.528-4.89c0.774-0.143,1.562-0.216,2.343-0.216c3.382,0,6.614,1.35,9.331,3.899
		c0.091,0.085,0.182,0.176,0.272,0.267c3.034,3.242,4.314,7.216,3.706,11.498c-0.556,3.707-2.255,7.043-4.917,9.704
		c-1.194,1.198-2.492,2.18-3.889,2.965c0.374,1.073,0.619,2.229,0.733,3.464c0.017,0.182,0.023,0.368,0.023,0.547
		c0,1.599,0,3.579-0.535,5.617c-1.083,4.656-2.865,9.771-5.457,15.634c-0.027,0.07-0.058,0.131-0.09,0.201
		c-1.676,3.446-3.126,7.229-4.554,11.887c-0.569,1.91-1.109,4.27-1.727,7.597c-0.447,2.983-0.234,4.854,0.026,5.9
		c0.05,0.198,0.087,0.395,0.116,0.596l0.12,0.833c0.426,2.959-1.399,5.775-4.274,6.602l-0.832,0.237
		c-0.251,0.073-0.509,0.134-0.765,0.17C245.745,126.908,244.237,127.02,242.748,127.02z"/>
	<path fill="#29256C" d="M241.74,126.017c-1.479,0-3-0.113-4.525-0.332c-4.042-0.575-7.499-2.606-9.993-5.866
		c-0.187-0.249-0.357-0.505-0.505-0.775c-3.137-5.778-3.116-13.226,0.062-22.75c2.456-7.608,5.466-15.205,8.932-22.531
		c1.283-2.91,2.338-5.37,3.131-7.301c0.312-0.745,0.575-1.496,0.844-2.266c0.208-0.59,0.415-1.18,0.639-1.782l0.034-0.14
		c0.35-1.387,1.165-2.551,2.253-3.357c-0.599-1.955-0.712-4.029-0.324-6.179c0.566-3.789,2.132-6.927,4.773-9.567
		c2.623-2.631,5.916-4.315,9.525-4.89c0.779-0.14,1.564-0.216,2.34-0.216c3.389,0,6.617,1.347,9.337,3.899
		c0.09,0.085,0.182,0.176,0.272,0.271c3.033,3.242,4.314,7.216,3.701,11.501c-0.554,3.698-2.254,7.04-4.915,9.701
		c-1.194,1.195-2.495,2.183-3.891,2.962c0.376,1.074,0.625,2.229,0.735,3.47c0.017,0.182,0.021,0.362,0.021,0.544
		c0,1.597,0,3.576-0.532,5.62c-1.086,4.653-2.869,9.768-5.457,15.628c-0.029,0.07-0.061,0.134-0.093,0.201
		c-1.677,3.446-3.123,7.229-4.548,11.891c-0.578,1.91-1.113,4.263-1.733,7.59c-0.447,2.992-0.233,4.859,0.024,5.903
		c0.053,0.198,0.091,0.395,0.119,0.596l0.123,0.836c0.423,2.959-1.405,5.775-4.276,6.602l-0.832,0.237
		c-0.252,0.07-0.509,0.128-0.768,0.167C244.737,125.901,243.229,126.017,241.74,126.017z"/>
	<path fill="#02AEDE" d="M242.824,122.206c-1.268,0-2.588-0.091-3.906-0.286c-2.936-0.414-5.34-1.831-7.148-4.2
		c-0.056-0.067-0.099-0.137-0.137-0.213c-2.532-4.662-2.413-10.972,0.359-19.295c2.425-7.49,5.378-14.937,8.775-22.117
		c1.295-2.941,2.374-5.455,3.19-7.432c0.333-0.803,0.622-1.639,0.921-2.485c0.22-0.629,0.45-1.277,0.69-1.919l0.1-0.374
		c0.184-0.733,0.835-1.244,1.58-1.244h0.601c0.376-0.024,0.859-0.043,1.346-0.043c0.584,0,1.166,0.024,1.759,0.07
		c-0.258-0.201-0.515-0.423-0.766-0.657c-2.26-2.405-3.076-5.097-2.513-8.058c0.404-2.853,1.537-5.152,3.55-7.165
		c2.025-2.028,4.457-3.263,7.229-3.68c0.467-0.094,1.017-0.146,1.562-0.146c2.265,0,4.456,0.936,6.353,2.719
		c2.208,2.345,3.07,5.003,2.65,7.974c-0.421,2.785-1.659,5.218-3.686,7.24c-2.071,2.08-4.442,3.284-7.241,3.683
		c-0.179,0.027-0.365,0.052-0.544,0.064c0.625,0.447,1.189,0.967,1.688,1.572c0.959,1.232,1.517,2.764,1.685,4.592
		c0.006,0.052,0.007,0.097,0.007,0.149c0,1.514,0,3.074-0.419,4.601c-1.002,4.348-2.71,9.239-5.206,14.889
		c-1.802,3.707-3.327,7.694-4.82,12.575c-0.632,2.113-1.209,4.631-1.862,8.165c-0.456,2.965-0.427,5.559,0.096,7.657
		c0.014,0.052,0.025,0.106,0.031,0.161l0.119,0.83c0.119,0.809-0.379,1.578-1.163,1.8l-0.833,0.24
		c-0.064,0.021-0.138,0.036-0.21,0.045C245.393,122.109,244.106,122.206,242.824,122.206z"/>
	<path fill="#66CCE6" d="M241,121.844c-1.195,0-2.43-0.088-3.672-0.267c-2.521-0.362-4.59-1.593-6.155-3.658
		c-2.287-4.261-2.132-10.37,0.447-18.186c2.381-7.444,5.284-14.834,8.623-21.959c1.302-2.98,2.372-5.504,3.181-7.499
		c0.342-0.815,0.64-1.673,0.944-2.552c0.225-0.654,0.452-1.313,0.705-1.974l0.11-0.453c0.026-0.088,0.103-0.152,0.195-0.152h0.591
		c0.438-0.031,0.888-0.043,1.341-0.043c1.33,0,2.679,0.131,4.125,0.405c1.993,0.377,3.54,1.259,4.72,2.691
		c0.766,0.988,1.201,2.232,1.346,3.804c0,1.438,0,2.907-0.362,4.242c-0.985,4.318-2.652,9.129-5.083,14.694
		c-1.797,3.728-3.33,7.776-4.832,12.733c-0.645,2.168-1.221,4.732-1.882,8.323c-0.488,3.199-0.45,5.979,0.111,8.262l0.123,0.855
		c0.015,0.1-0.044,0.195-0.138,0.222l-0.829,0.234C243.399,121.756,242.19,121.844,241,121.844z M254.675,64.326
		c-2.021,0-3.792-0.751-5.421-2.293c-1.869-2.013-2.542-4.215-2.065-6.742c0.37-2.594,1.359-4.641,3.125-6.423
		c1.787-1.803,3.929-2.907,6.363-3.272c0.443-0.088,0.891-0.137,1.337-0.137c1.872,0,3.712,0.809,5.322,2.332
		c1.841,1.977,2.551,4.176,2.189,6.733c-0.365,2.466-1.457,4.629-3.243,6.432c-1.834,1.852-3.917,2.928-6.373,3.278
		C255.489,64.293,255.074,64.326,254.675,64.326L254.675,64.326z"/>
</g>
<g>
	<path opacity="0.2" fill="#29256C" d="M290.694,136.977c-9.553,0-17.448-4.595-22.826-13.289
		c-4.857-7.864-6.946-17.221-6.379-28.613c0.002-0.085,0.009-0.173,0.014-0.261c0.797-9.519,3.71-20.436,8.661-32.445
		c5.192-12.593,12.184-23.276,20.782-31.742c7.32-7.323,15.825-11.054,25.241-11.054c3.065,0,6.239,0.411,9.43,1.214
		c6.553,1.743,11.196,5.924,13.524,12.131c0.026,0.067,0.049,0.134,0.076,0.201c1.702,4.954,2.235,10.349,1.592,16.035
		c-0.325,10.896-3.482,20.563-9.386,28.759c0.806,1.134,1.3,2.487,1.396,3.923c0.667,10.023-2.907,15.54-6.639,18.541
		c-1.105,7.697-3.704,14.846-7.741,21.318c-5.319,8.752-14.264,13.91-26.538,15.236c-0.229,0.024-0.464,0.04-0.696,0.042
		L290.694,136.977z"/>
	<path fill="#29256C" d="M290.694,131.938c-9.553,0-17.448-4.598-22.826-13.292c-4.857-7.861-6.946-17.218-6.379-28.61
		c0.002-0.091,0.009-0.173,0.014-0.258c0.797-9.531,3.71-20.439,8.661-32.448c5.192-12.596,12.184-23.276,20.782-31.742
		c7.32-7.323,15.825-11.057,25.241-11.057c3.065,0,6.239,0.408,9.43,1.219c6.553,1.736,11.196,5.918,13.524,12.128
		c0.026,0.064,0.049,0.134,0.076,0.201c1.702,4.957,2.235,10.346,1.592,16.038c-0.325,10.896-3.482,20.56-9.386,28.75
		c0.806,1.14,1.3,2.494,1.396,3.923c0.667,10.026-2.907,15.54-6.639,18.541c-1.105,7.7-3.704,14.852-7.741,21.321
		c-5.319,8.755-14.264,13.907-26.538,15.233c-0.229,0.027-0.464,0.045-0.696,0.052L290.694,131.938z"/>
	<path fill="#D34A9A" d="M286.862,126.424c-9.073,0-16.268-4.206-21.395-12.493c-4.676-7.563-6.68-16.607-6.131-27.646
		c0-0.073,0.005-0.134,0.011-0.207c0.782-9.348,3.651-20.098,8.539-31.937c5.104-12.389,11.971-22.884,20.405-31.195
		c7.002-7.007,15.111-10.567,24.065-10.567c2.921,0,5.959,0.389,9.02,1.165c5.982,1.584,10.231,5.413,12.362,11.094
		c0.021,0.045,0.036,0.097,0.055,0.155c1.628,4.738,2.135,9.905,1.508,15.366c-0.318,11.063-3.634,20.794-9.857,28.954
		c1.087,1.028,1.765,2.433,1.869,3.959c0.639,9.588-2.691,14.761-6.54,17.547c-1.017,7.709-3.566,14.861-7.59,21.311
		c-5.042,8.299-13.566,13.186-25.294,14.454c-0.181,0.021-0.362,0.031-0.542,0.034L286.862,126.424z M291.297,73.063
		c-0.332,1.475-0.616,2.925-0.849,4.361c0.747-0.712,1.588-1.36,2.52-1.952C292.226,74.821,291.649,74,291.297,73.063z
		 M305.795,43.608c-3.83,3.519-7.117,8.503-9.819,14.901c-1.077,2.621-2.016,5.2-2.819,7.727c3.83-3.965,7.059-8.922,9.852-15.135
		C304.19,48.522,305.12,46.022,305.795,43.608z"/>
	<path fill="#29256C" d="M285.852,125.418c-9.07,0-16.265-4.206-21.392-12.499c-4.679-7.56-6.68-16.601-6.135-27.643
		c0.006-0.067,0.007-0.134,0.014-0.204c0.78-9.351,3.651-20.098,8.539-31.937c5.106-12.386,11.969-22.887,20.405-31.192
		c7.002-7.007,15.11-10.571,24.065-10.571c2.922,0,5.959,0.389,9.02,1.165c5.982,1.584,10.232,5.41,12.362,11.087
		c0.021,0.052,0.038,0.103,0.056,0.161c1.627,4.735,2.133,9.908,1.508,15.369c-0.321,11.06-3.637,20.794-9.857,28.945
		c1.087,1.031,1.765,2.436,1.867,3.963c0.639,9.594-2.69,14.761-6.538,17.544c-1.019,7.712-3.564,14.864-7.59,21.315
		c-5.044,8.299-13.566,13.186-25.296,14.457c-0.181,0.018-0.362,0.031-0.544,0.033L285.852,125.418z M290.291,72.051
		c-0.336,1.475-0.617,2.932-0.848,4.367c0.75-0.708,1.586-1.359,2.516-1.952C291.218,73.817,290.639,72.99,290.291,72.051z
		 M304.789,42.601c-3.832,3.515-7.119,8.499-9.821,14.901c-1.077,2.618-2.016,5.197-2.821,7.727
		c3.833-3.966,7.06-8.923,9.855-15.138C303.18,47.515,304.111,45.016,304.789,42.601z"/>
	<path fill="#02AEDE" d="M286.94,121.607c-7.457,0-13.414-3.506-17.693-10.434c-4.194-6.782-5.988-15.005-5.486-25.14
		c0.745-8.959,3.512-19.265,8.228-30.699c4.882-11.845,11.422-21.856,19.438-29.747c6.181-6.183,13.25-9.321,21.009-9.321
		c2.563,0,5.241,0.347,7.951,1.031c4.58,1.216,7.721,4.041,9.356,8.399c1.447,4.215,1.879,8.807,1.292,13.688
		c-0.263,10.318-3.344,19.356-9.161,26.873c-4.037,5.213-9.179,7.855-15.29,7.855c-3.122,0-6.549-0.699-10.182-2.086
		c-0.518-0.195-0.9-0.642-1.013-1.186c-0.118-0.538,0.05-1.101,0.438-1.493c4.426-4.425,8.098-9.959,11.23-16.917
		c2.86-6.259,4.371-12.167,4.499-17.599c-0.549,0.061-1.248,0.246-2.119,0.572c-7.204,3.628-13.054,10.677-17.39,20.95
		c-4.484,10.908-6.667,20.764-6.667,30.124c-0.105,8.719,2.177,13.651,6.788,14.676c4.391-0.572,7.923-4.254,10.748-11.24
		c-3.401,0.815-6.906,2.33-10.446,4.507c-0.261,0.158-0.555,0.243-0.854,0.243c-0.243,0-0.483-0.055-0.71-0.161
		c-0.5-0.24-0.844-0.727-0.911-1.277c-0.398-3.327,0.024-6.547,1.291-9.838c1.428-3.573,5.103-6.027,10.945-7.323
		c0.77-0.167,1.501-0.307,2.218-0.444c0.859-0.164,1.697-0.32,2.536-0.514c6.371-0.991,11.189-2.241,13.68-3.549
		c0.236-0.119,0.496-0.182,0.757-0.182c0.272,0,0.549,0.067,0.795,0.21c0.482,0.264,0.794,0.757,0.833,1.311
		c0.488,7.362-1.624,12.298-6.283,14.667c-0.739,7.864-3.157,15.126-7.195,21.598c-4.332,7.125-11.764,11.316-22.072,12.435
		c-0.05,0.006-0.1,0.006-0.147,0.009L286.94,121.607z"/>
	<path fill="#66CCE6" d="M285.153,121.245c-6.959,0-12.293-3.184-16.312-9.752c-3.997-6.529-5.705-14.485-5.226-24.319
		c0.725-8.764,3.429-18.93,8.039-30.222c4.764-11.669,11.132-21.519,18.932-29.279c5.851-5.912,12.515-8.907,19.808-8.907
		c2.422,0,4.952,0.328,7.527,0.988c4.043,1.083,6.83,3.613,8.278,7.518c1.358,3.993,1.758,8.39,1.194,13.086
		c-0.239,10.023-3.192,18.809-8.775,26.095c-3.714,4.841-8.428,7.299-14.016,7.299c-2.919,0.003-6.14-0.669-9.578-1.992
		c-0.062-0.024-0.108-0.079-0.125-0.149c-0.017-0.064,0.005-0.131,0.052-0.182c4.507-4.552,8.235-10.227,11.409-17.349
		c3.135-6.918,4.682-13.46,4.588-19.447c-0.318-0.119-0.671-0.179-1.071-0.179c-0.785,0-1.747,0.225-3.027,0.712
		c-7.455,3.768-13.502,11.069-17.946,21.701c-4.513,11.1-6.71,21.135-6.71,30.681c-0.114,9.643,2.608,15.068,8.1,16.13
		c5.474-0.584,9.707-5.346,12.888-14.573c-4.312,0.626-8.782,2.363-13.294,5.173c-0.034,0.021-0.069,0.027-0.106,0.027
		c-0.029,0-0.056-0.003-0.087-0.018c-0.063-0.033-0.102-0.091-0.113-0.158c-0.365-3.093,0.026-6.085,1.195-9.16
		c1.223-3.084,4.527-5.249,9.821-6.438c0.739-0.158,1.455-0.301,2.153-0.432c0.868-0.167,1.718-0.329,2.565-0.529
		c6.45-1.007,11.243-2.278,13.879-3.67c0.031-0.018,0.062-0.025,0.094-0.025c0.03,0,0.068,0.006,0.094,0.031
		c0.061,0.031,0.101,0.091,0.105,0.161c0.475,7.192-1.536,11.65-6.149,13.621c-0.614,7.955-2.965,15.284-6.984,21.786
		c-4.055,6.745-11.053,10.708-20.802,11.769L285.153,121.245z"/>
</g>
<g>
	<path opacity="0.2" fill="#29256C" d="M340.982,135.663c-3.204,0-6.423-0.639-9.564-1.898c-0.143-0.052-0.284-0.118-0.423-0.179
		c-3.196-1.508-5.877-3.591-7.96-6.194c-0.137-0.177-0.269-0.353-0.395-0.542c-3.963-5.945-5.41-12.809-4.305-20.378
		c0.927-6.374,2.672-12.234,5.177-17.416c2.085-4.568,4.818-8.892,8.349-13.216c3.853-4.878,8.491-8.454,13.788-10.637
		c0.192-0.076,0.383-0.146,0.578-0.21c2.883-0.925,5.602-1.371,8.304-1.371c1.463,0,2.921,0.14,4.335,0.41
		c4.741,0.794,8.807,3.135,12.088,6.967c0.216,0.249,0.417,0.511,0.598,0.794c3.213,4.914,4.086,10.367,2.523,15.771
		c-1.134,4.297-3.372,8.378-6.473,11.806c-0.297,0.325-0.601,0.645-0.908,0.964c1.718,1.84,2.451,4.461,1.846,6.998l-0.596,2.509
		c-0.95,4.2-2.582,8.317-4.969,12.502c-2.525,4.416-6.128,7.977-10.72,10.604c-0.195,0.112-0.397,0.216-0.598,0.31
		C348.193,134.851,344.604,135.663,340.982,135.663z"/>
	<path fill="#29256C" d="M340.982,130.621c-3.204,0-6.423-0.639-9.564-1.891c-0.143-0.064-0.284-0.122-0.423-0.186
		c-3.196-1.505-5.877-3.591-7.96-6.192c-0.137-0.179-0.269-0.353-0.395-0.544c-3.963-5.948-5.41-12.803-4.305-20.381
		c0.927-6.374,2.672-12.228,5.177-17.41c2.085-4.568,4.818-8.898,8.349-13.22c3.853-4.875,8.491-8.457,13.788-10.634
		c0.192-0.073,0.383-0.146,0.578-0.21c2.883-0.927,5.602-1.371,8.304-1.371c1.463,0,2.921,0.134,4.335,0.41
		c4.741,0.791,8.807,3.136,12.088,6.964c0.216,0.249,0.417,0.517,0.598,0.793c3.213,4.915,4.086,10.367,2.523,15.777
		c-1.134,4.297-3.372,8.375-6.473,11.799c-0.297,0.322-0.601,0.648-0.908,0.961c1.718,1.843,2.451,4.461,1.846,7.001l-0.596,2.506
		c-0.95,4.203-2.582,8.327-4.969,12.508c-2.525,4.416-6.128,7.98-10.72,10.604c-0.195,0.11-0.397,0.213-0.598,0.31
		C348.193,129.806,344.604,130.621,340.982,130.621z"/>
	<path fill="#D34A9A" d="M337.152,125.113c-2.991,0-5.998-0.599-8.939-1.776c-0.112-0.045-0.223-0.094-0.334-0.146
		c-2.961-1.393-5.437-3.324-7.364-5.723c-0.11-0.137-0.211-0.277-0.309-0.423c-3.727-5.589-5.085-12.055-4.038-19.204
		c0.903-6.213,2.596-11.912,5.034-16.945c2.034-4.458,4.709-8.688,8.173-12.924c3.611-4.583,8.036-8.007,13.083-10.087
		c0.149-0.064,0.299-0.116,0.453-0.167c2.715-0.87,5.264-1.293,7.788-1.293c1.364,0,2.725,0.128,4.04,0.386
		c4.352,0.724,8.089,2.883,11.111,6.405c0.17,0.198,0.325,0.407,0.467,0.62c2.939,4.501,3.739,9.479,2.311,14.408
		c-1.069,4.045-3.177,7.886-6.1,11.121c-0.695,0.757-1.416,1.493-2.161,2.202c2.217,1.347,3.312,3.974,2.71,6.499l-0.598,2.506
		c-0.917,4.054-2.489,8.028-4.794,12.067c-2.406,4.203-5.706,7.466-10.095,9.98c-0.152,0.085-0.307,0.164-0.465,0.24
		C343.884,124.35,340.526,125.113,337.152,125.113z"/>
	<path fill="#29256C" d="M336.143,124.101c-2.989,0-5.995-0.593-8.938-1.773c-0.112-0.043-0.225-0.094-0.333-0.146
		c-2.962-1.399-5.44-3.321-7.366-5.723c-0.109-0.134-0.21-0.277-0.309-0.419c-3.725-5.592-5.085-12.058-4.039-19.207
		c0.905-6.21,2.596-11.909,5.033-16.939c2.036-4.464,4.709-8.694,8.174-12.927c3.61-4.589,8.036-8.01,13.084-10.087
		c0.148-0.061,0.3-0.119,0.45-0.167c2.719-0.873,5.263-1.292,7.79-1.292c1.364,0,2.723,0.128,4.042,0.383
		c4.35,0.727,8.086,2.883,11.107,6.407c0.173,0.198,0.327,0.405,0.465,0.618c2.942,4.501,3.742,9.479,2.31,14.408
		c-1.063,4.048-3.17,7.888-6.096,11.121c-0.698,0.76-1.415,1.496-2.16,2.202c2.22,1.35,3.313,3.975,2.71,6.502l-0.598,2.506
		c-0.917,4.057-2.489,8.029-4.794,12.064c-2.407,4.205-5.705,7.472-10.095,9.978c-0.152,0.088-0.306,0.167-0.464,0.243
		C342.874,123.344,339.52,124.101,336.143,124.101z"/>
	<path fill="#02AEDE" d="M337.231,120.297c-2.434,0-4.897-0.496-7.327-1.463c-2.446-1.149-4.405-2.673-5.912-4.552
		c-0.031-0.036-0.058-0.073-0.085-0.112c-3.112-4.668-4.241-10.108-3.357-16.163c0.847-5.8,2.422-11.094,4.677-15.738
		c1.866-4.102,4.355-8.04,7.598-12.003c3.192-4.054,7.025-7.031,11.369-8.816c0.042-0.021,0.083-0.036,0.125-0.052
		c2.281-0.727,4.396-1.086,6.462-1.086c1.116,0,2.226,0.109,3.298,0.319c3.336,0.541,6.155,2.162,8.545,4.954
		c0.047,0.055,0.09,0.11,0.126,0.167c2.274,3.476,2.863,7.14,1.75,10.896c-0.864,3.348-2.641,6.596-5.12,9.336
		c-2.881,3.141-6.268,5.818-10.066,7.959c-3.488,2.004-7.125,3.549-10.82,4.589c0.132,0.937,0.52,1.712,1.203,2.418
		c0.722,0.538,1.445,0.803,2.453,0.909c1.303-0.009,2.37-0.143,3.268-0.411c3.172-0.848,6.087-2.421,8.965-4.82l1.88-1.642
		c0.305-0.267,0.687-0.405,1.073-0.405c0.29,0,0.581,0.079,0.841,0.237c0.608,0.365,0.909,1.083,0.744,1.773l-0.593,2.506
		c-0.833,3.683-2.253,7.259-4.342,10.921c-2.007,3.506-4.779,6.24-8.478,8.354c-0.038,0.027-0.084,0.049-0.126,0.07
		C342.714,119.67,339.971,120.297,337.231,120.297z M351.618,75.809c-0.181,0.052-0.348,0.103-0.471,0.164
		c-0.04,0.024-0.079,0.04-0.117,0.061l-0.321,0.121c-0.371,0.143-0.558,0.222-0.697,0.316c-0.04,0.021-0.082,0.049-0.123,0.073
		c-2.402,1.308-4.455,3.291-5.944,5.735c-0.887,1.36-1.653,2.752-2.293,4.166c1.67-1.043,3.259-2.183,4.747-3.415
		C348.755,80.979,350.519,78.549,351.618,75.809z"/>
	<path fill="#66CCE6" d="M335.391,119.934c-2.229,0-4.492-0.459-6.727-1.362c-2.147-1.025-3.921-2.408-5.273-4.111
		c-2.89-4.382-3.935-9.482-3.112-15.181c0.816-5.653,2.329-10.811,4.504-15.318c1.809-4.017,4.209-7.858,7.341-11.723
		c3.026-3.883,6.623-6.709,10.7-8.402c2.132-0.687,4.083-1.022,5.979-1.022c1.014,0,2.018,0.097,2.989,0.295
		c3.009,0.486,5.521,1.949,7.665,4.476c2.027,3.126,2.552,6.392,1.574,9.725c-0.812,3.169-2.46,6.21-4.762,8.786
		c-2.744,3.02-5.98,5.605-9.611,7.666c-3.698,2.147-7.559,3.747-11.472,4.75c-0.078,1.864,0.471,3.327,1.718,4.589
		c0.958,0.748,1.952,1.125,3.301,1.256c1.445,0,2.661-0.161,3.701-0.475c3.298-0.888,6.365-2.554,9.374-5.09l1.884-1.664
		c0.036-0.033,0.082-0.045,0.132-0.045c0.034,0,0.069,0.009,0.102,0.027c0.074,0.046,0.111,0.131,0.091,0.219l-0.591,2.506
		c-0.795,3.555-2.156,7.007-4.153,10.537c-1.855,3.287-4.428,5.848-7.861,7.831C340.414,119.354,337.899,119.934,335.391,119.934z
		 M349.795,75.359c-0.412,0.106-0.885,0.216-1.259,0.407l-0.322,0.131c-0.412,0.161-0.683,0.274-0.954,0.45
		c-2.614,1.444-4.83,3.604-6.432,6.258c-1.665,2.576-2.922,5.294-3.745,8.089c2.989-1.551,5.776-3.394,8.287-5.489
		c2.728-2.396,4.695-5.255,5.839-8.497c0.107-0.146,0.107-0.523,0.107-0.651c-0.021-0.024-0.043-0.106-0.061-0.182
		c-0.062-0.225-0.087-0.301-0.182-0.347c-0.224-0.213-0.651-0.219-1.064-0.219L349.795,75.359z"/>
</g>
<g>
	<path opacity="0.2" fill="#29256C" d="M404.053,136.003c-1.563,0-3.169-0.119-4.765-0.347c-3.062-0.438-5.818-1.624-8.143-3.485
		c-0.108,0.17-0.225,0.329-0.347,0.487c-1.247,1.606-3.084,2.646-5.1,2.898l-0.838,0.103c-1.482,0.225-3.008,0.344-4.549,0.344
		c-1.548,0-3.146-0.119-4.747-0.347c-4.493-0.642-8.328-2.895-11.089-6.514c-0.187-0.246-0.363-0.505-0.519-0.773
		c-3.05-5.2-3.6-11.65-1.639-19.167c1.647-6.179,3.306-11.191,5.069-15.342c0.137-0.353,0.271-0.696,0.398-1.022
		c0.151-0.383,0.292-0.73,0.395-1.043c0.074-0.219,0.16-0.441,0.254-0.654c0,0,2.538-5.793,2.553-5.829
		c2.101-4.61,4.09-9.534,6.246-15.467l0.005-0.034c0.722-3.576,3.864-6.152,7.513-6.152h0.461c0.437-0.012,0.864-0.015,1.286-0.015
		c3.99,0,7.327,0.684,10.192,2.104c0.766,0.365,1.66,0.882,2.57,1.59c3.035-1.934,6.295-3.214,9.695-3.808
		c0.973-0.167,1.958-0.252,2.932-0.252c3.786,0,7.414,1.295,10.769,3.853c0.064,0.052,0.134,0.103,0.201,0.155
		c3.899,3.178,5.827,7.742,5.431,12.873c-0.161,3.293-0.921,6.647-2.381,10.54c-0.045,0.128-0.097,0.249-0.146,0.365
		c-0.35,0.788-0.672,1.542-0.973,2.266c-0.781,1.843-1.523,3.585-2.302,5.139c-0.073,0.149-0.152,0.292-0.231,0.429
		c-1.515,3.649-3.111,8.332-4.881,14.299c-1.87,6.31-1.937,10.111-1.624,12.237l0.155,0.621c0.541,2.11,0.158,4.348-1.058,6.158
		c-1.207,1.81-3.141,3.017-5.294,3.324l-0.842,0.119C407.219,135.882,405.629,136.003,404.053,136.003z"/>
	<path fill="#29256C" d="M404.053,130.961c-1.563,0-3.169-0.122-4.765-0.35c-3.062-0.432-5.818-1.618-8.143-3.479
		c-0.108,0.164-0.225,0.322-0.347,0.486c-1.247,1.603-3.084,2.643-5.1,2.895l-0.838,0.1c-1.482,0.231-3.008,0.347-4.549,0.347
		c-1.548,0-3.146-0.122-4.747-0.347c-4.493-0.636-8.328-2.889-11.089-6.514c-0.187-0.249-0.363-0.505-0.519-0.775
		c-3.05-5.197-3.6-11.641-1.639-19.158c1.647-6.186,3.306-11.197,5.069-15.345c0.137-0.359,0.271-0.696,0.398-1.025
		c0.151-0.377,0.292-0.727,0.395-1.04c0.074-0.225,0.16-0.441,0.254-0.657c0,0,2.538-5.793,2.553-5.83
		c2.101-4.604,4.09-9.53,6.246-15.46l0.005-0.033c0.722-3.58,3.864-6.152,7.513-6.152h0.461c0.437-0.018,0.864-0.024,1.286-0.024
		c3.99,0,7.327,0.69,10.192,2.104c0.766,0.371,1.66,0.888,2.57,1.6c3.035-1.937,6.295-3.221,9.695-3.81
		c0.973-0.167,1.958-0.256,2.932-0.256c3.786,0,7.414,1.296,10.769,3.856c0.064,0.055,0.134,0.101,0.201,0.155
		c3.899,3.175,5.827,7.743,5.431,12.87c-0.161,3.3-0.921,6.651-2.381,10.547c-0.045,0.121-0.097,0.243-0.146,0.365
		c-0.35,0.782-0.672,1.542-0.973,2.26c-0.781,1.846-1.523,3.582-2.302,5.146c-0.073,0.143-0.152,0.283-0.231,0.429
		c-1.515,3.646-3.111,8.329-4.881,14.296c-1.87,6.307-1.937,10.114-1.624,12.237l0.155,0.614c0.541,2.111,0.158,4.352-1.058,6.164
		c-1.207,1.813-3.141,3.017-5.294,3.324l-0.842,0.116C407.219,130.84,405.629,130.961,404.053,130.961z"/>
	<path fill="#D34A9A" d="M400.216,125.448c-1.475,0-2.999-0.113-4.525-0.325c-3.503-0.502-6.573-2.099-8.953-4.644
		c-0.198,0.821-0.566,1.6-1.093,2.275c-0.975,1.253-2.408,2.068-3.985,2.263l-0.862,0.106c-1.405,0.213-2.853,0.325-4.315,0.325
		c-1.467,0-2.988-0.113-4.511-0.325c-4.044-0.578-7.501-2.609-9.991-5.872c-0.149-0.192-0.284-0.392-0.406-0.602
		c-2.816-4.805-3.307-10.82-1.46-17.891c1.624-6.109,3.259-11.057,5.004-15.144c0.132-0.359,0.271-0.703,0.4-1.034
		c0.163-0.41,0.316-0.781,0.427-1.125c0.055-0.176,0.123-0.347,0.198-0.511l2.5-5.723c2.173-4.765,4.197-9.762,6.382-15.789
		l0.03-0.155c0.566-2.798,3.017-4.811,5.868-4.811h0.488c0.427-0.012,0.847-0.021,1.256-0.021c3.73,0,6.824,0.636,9.46,1.943
		c0.921,0.438,2.071,1.134,3.163,2.189c0.061-0.036,0.119-0.073,0.176-0.112c3.129-2.175,6.383-3.531,9.947-4.148
		c0.876-0.149,1.764-0.231,2.637-0.231c3.415,0,6.703,1.186,9.759,3.513c0.055,0.04,0.103,0.079,0.155,0.116
		c3.464,2.825,5.176,6.897,4.814,11.468c-0.152,3.126-0.876,6.325-2.274,10.06c-0.037,0.097-0.079,0.195-0.116,0.286
		c-0.343,0.788-0.669,1.548-0.979,2.278c-0.773,1.819-1.505,3.534-2.263,5.042c-0.067,0.149-0.14,0.292-0.228,0.429
		c-1.548,3.722-3.187,8.497-4.984,14.573c-1.98,6.678-2.019,10.762-1.667,13.055l0.177,0.693c0.426,1.648,0.121,3.4-0.821,4.814
		c-0.952,1.411-2.451,2.357-4.136,2.594l-0.839,0.119C403.22,125.335,401.712,125.448,400.216,125.448z"/>
	<path fill="#29256C" d="M399.209,124.435c-1.478,0-3.002-0.106-4.528-0.323c-3.503-0.499-6.569-2.095-8.95-4.644
		c-0.201,0.824-0.569,1.597-1.093,2.275c-0.978,1.253-2.409,2.071-3.988,2.265l-0.859,0.106c-1.404,0.213-2.854,0.32-4.317,0.32
		c-1.472,0-2.988-0.106-4.513-0.323c-4.046-0.575-7.498-2.606-9.99-5.872c-0.149-0.192-0.286-0.392-0.405-0.605
		c-2.816-4.799-3.31-10.817-1.461-17.888c1.624-6.106,3.26-11.06,5.003-15.141c0.135-0.359,0.272-0.705,0.401-1.031
		c0.161-0.411,0.315-0.788,0.427-1.128c0.058-0.18,0.122-0.347,0.195-0.511l2.503-5.723c2.171-4.762,4.194-9.768,6.38-15.792
		l0.029-0.158c0.569-2.795,3.02-4.805,5.871-4.805h0.488c0.427-0.018,0.845-0.024,1.254-0.024c3.733,0,6.829,0.638,9.464,1.943
		c0.921,0.441,2.068,1.134,3.16,2.196c0.058-0.043,0.118-0.079,0.173-0.116c3.135-2.177,6.392-3.53,9.953-4.145
		c0.876-0.155,1.764-0.234,2.64-0.234c3.409,0,6.696,1.183,9.752,3.509c0.055,0.043,0.103,0.079,0.152,0.119
		c3.467,2.828,5.176,6.894,4.817,11.465c-0.152,3.126-0.876,6.322-2.272,10.06c-0.043,0.101-0.076,0.195-0.119,0.292
		c-0.343,0.782-0.672,1.548-0.979,2.272c-0.773,1.819-1.505,3.534-2.256,5.045c-0.07,0.143-0.149,0.292-0.234,0.429
		c-1.548,3.719-3.181,8.497-4.987,14.573c-1.974,6.678-2.01,10.759-1.664,13.055l0.179,0.687c0.423,1.651,0.119,3.403-0.827,4.814
		c-0.946,1.417-2.448,2.363-4.133,2.6l-0.842,0.119C402.21,124.329,400.702,124.435,399.209,124.435z"/>
	<path fill="#02AEDE" d="M400.298,120.637c-1.274,0-2.588-0.097-3.911-0.289c-2.925-0.414-5.332-1.828-7.146-4.2
		c-0.04-0.052-0.079-0.109-0.112-0.167c-2.209-3.774-2.581-8.5-1.133-14.445c1.405-5.267,3.074-10.233,4.967-14.782
		c0.341-0.788,0.678-1.584,0.894-2.326c0.046-0.164,0.116-0.313,0.207-0.456c0.046-0.061,0.122-0.258,0.182-0.417
		c0.091-0.231,0.191-0.477,0.316-0.721l0.502-1.177c-0.207,0.255-0.417,0.508-0.614,0.769c-4.13,5.656-7.336,11.538-9.78,17.933
		c-0.783,2.36-1.484,5.289-2.059,8.636c-0.658,3.172-0.699,5.936-0.143,8.287c0.017,0.058,0.023,0.121,0.033,0.176l0.122,0.955
		c0.05,0.426-0.073,0.864-0.333,1.201c-0.266,0.344-0.659,0.566-1.089,0.617l-0.953,0.119c-1.154,0.182-2.413,0.286-3.686,0.286
		c-1.264,0-2.577-0.097-3.9-0.289c-2.933-0.42-5.334-1.831-7.145-4.2c-0.04-0.052-0.074-0.109-0.114-0.167
		c-2.238-3.822-2.565-8.597-1.001-14.591c1.588-5.942,3.173-10.738,4.846-14.652c0.116-0.316,0.26-0.681,0.394-1.025
		c0.196-0.493,0.376-0.946,0.511-1.353c0.015-0.045,0.036-0.091,0.053-0.143l2.503-5.717c2.232-4.89,4.324-10.084,6.596-16.358
		l0.096-0.477c0.152-0.76,0.821-1.311,1.598-1.311h0.599c0.353-0.012,0.756-0.021,1.145-0.021c3.067,0,5.542,0.493,7.572,1.505
		c1.939,0.918,3.259,2.418,3.943,4.467c1.116-0.916,2.342-1.803,3.734-2.707c2.576-1.8,5.289-2.947,8.238-3.458
		c0.645-0.11,1.284-0.167,1.901-0.167c2.475,0,4.805,0.858,7.122,2.621c2.424,1.967,3.537,4.686,3.254,7.879
		c-0.116,2.621-0.748,5.431-1.998,8.777c-0.38,0.879-0.717,1.648-1.025,2.384c-0.779,1.828-1.457,3.412-2.144,4.802
		c-0.058,0.107-0.121,0.21-0.195,0.298c-1.66,3.926-3.4,8.968-5.303,15.415c-1.828,6.143-2.417,11.249-1.761,15.172l0.228,0.888
		c0.116,0.453,0.034,0.928-0.228,1.314c-0.258,0.386-0.669,0.645-1.125,0.706l-0.842,0.121
		C402.864,120.54,401.575,120.637,400.298,120.637z"/>
	<path fill="#66CCE6" d="M398.309,120.275c-1.192,0-2.427-0.094-3.674-0.274c-2.518-0.362-4.586-1.587-6.146-3.652
		c-2.009-3.461-2.325-7.837-0.981-13.402c1.365-5.179,2.994-10.081,4.849-14.576c0.343-0.812,0.703-1.651,0.936-2.485
		c0.152-0.24,0.246-0.483,0.338-0.733c0.082-0.198,0.161-0.401,0.265-0.608l2.117-5l1.006-2.63
		c-0.192,0.109-0.392,0.243-0.587,0.371c-0.344,0.353-0.581,0.599-0.855,0.736c-1.49,1.402-2.913,2.959-4.174,4.589
		c-4.189,5.805-7.428,11.793-9.886,18.31c-0.82,2.487-1.531,5.483-2.115,8.898c-0.683,3.333-0.719,6.31-0.119,8.865l0.119,0.97
		c0.009,0.061-0.007,0.112-0.036,0.155c-0.034,0.04-0.082,0.07-0.134,0.073l-0.946,0.122c-1.121,0.176-2.291,0.271-3.476,0.271
		c-1.186,0-2.419-0.094-3.66-0.274c-2.521-0.362-4.592-1.59-6.15-3.652c-2.028-3.503-2.305-7.919-0.859-13.527
		c1.551-5.875,3.1-10.604,4.733-14.454c0.132-0.368,0.272-0.724,0.409-1.061c0.199-0.52,0.386-0.992,0.526-1.426l2.486-5.739
		c2.227-4.933,4.329-10.197,6.604-16.558l0.111-0.569c0.018-0.091,0.101-0.161,0.198-0.161h0.59c0.378-0.012,0.76-0.027,1.133-0.027
		c2.852,0,5.032,0.435,6.862,1.356c2.223,1.067,3.415,3.008,3.625,5.927c1.514-1.484,3.239-2.84,5.379-4.239
		c2.424-1.712,4.921-2.776,7.63-3.251c0.554-0.097,1.104-0.149,1.642-0.149c2.126,0,4.145,0.76,6.189,2.332
		c2.007,1.658,2.907,3.878,2.673,6.614c-0.11,2.53-0.715,5.2-1.901,8.402c-0.35,0.812-0.675,1.581-0.985,2.326
		c-0.763,1.806-1.42,3.369-2.092,4.723c-0.034,0.067-0.103,0.112-0.18,0.112c-1.636,4.008-3.406,9.19-5.355,15.829
		c-1.876,6.392-2.469,11.735-1.77,15.886l0.243,0.937c0.012,0.054,0.003,0.112-0.027,0.164c-0.036,0.045-0.088,0.082-0.143,0.085
		l-0.83,0.119C400.711,120.181,399.504,120.275,398.309,120.275z"/>
</g>
<g>
	<path opacity="0.2" fill="#29256C" d="M432.894,136.633c-1.557,0-3.157-0.112-4.764-0.341c-4.487-0.641-8.32-2.895-11.087-6.511
		c-0.242-0.316-0.453-0.651-0.646-1.001c-3.37-6.207-3.391-14.08-0.053-24.076c2.471-7.654,5.507-15.315,8.997-22.702
		c1.274-2.889,2.316-5.322,3.102-7.238c0.307-0.724,0.556-1.451,0.815-2.186c0.199-0.572,0.403-1.147,0.618-1.725l0.012-0.045
		c0.347-1.371,1.043-2.576,1.987-3.524c-0.421-1.882-0.452-3.853-0.087-5.881c0.622-4.148,2.34-7.581,5.24-10.479
		c2.877-2.877,6.477-4.72,10.428-5.352c0.871-0.164,1.753-0.249,2.632-0.249c3.817,0,7.438,1.508,10.477,4.358
		c0.12,0.113,0.234,0.225,0.348,0.347c3.394,3.622,4.832,8.077,4.143,12.879c-0.614,4.075-2.472,7.742-5.395,10.653
		c-0.963,0.973-2.002,1.819-3.094,2.542c0.202,0.818,0.347,1.667,0.427,2.558c0.021,0.225,0.03,0.459,0.03,0.69
		c0,1.691,0,3.786-0.582,6.018c-1.107,4.756-2.928,9.962-5.554,15.914c-0.036,0.082-0.074,0.17-0.116,0.255
		c-1.639,3.366-3.055,7.067-4.455,11.647c-0.551,1.837-1.075,4.13-1.679,7.381c-0.426,2.843-0.186,4.48-0.005,5.213
		c0.065,0.252,0.116,0.508,0.152,0.769l0.119,0.83c0.543,3.792-1.791,7.396-5.473,8.454l-0.83,0.24
		c-0.324,0.091-0.649,0.161-0.981,0.21C436.058,136.518,434.468,136.633,432.894,136.633z"/>
	<path fill="#29256C" d="M432.894,131.591c-1.557,0-3.157-0.113-4.764-0.341c-4.487-0.642-8.32-2.892-11.087-6.511
		c-0.242-0.316-0.453-0.648-0.646-0.998c-3.37-6.213-3.391-14.086-0.053-24.079c2.471-7.654,5.507-15.312,8.997-22.695
		c1.274-2.895,2.316-5.331,3.102-7.244c0.307-0.727,0.556-1.448,0.815-2.19c0.199-0.566,0.403-1.146,0.618-1.721l0.012-0.045
		c0.347-1.365,1.043-2.57,1.987-3.528c-0.421-1.879-0.452-3.847-0.087-5.872c0.622-4.157,2.34-7.587,5.24-10.489
		c2.877-2.874,6.477-4.72,10.428-5.346c0.871-0.167,1.753-0.246,2.632-0.246c3.817,0,7.438,1.505,10.477,4.352
		c0.12,0.11,0.234,0.228,0.348,0.347c3.394,3.625,4.832,8.074,4.143,12.885c-0.614,4.072-2.472,7.736-5.395,10.653
		c-0.963,0.97-2.002,1.815-3.094,2.539c0.202,0.818,0.347,1.666,0.427,2.551c0.021,0.228,0.03,0.459,0.03,0.696
		c0,1.691,0,3.783-0.582,6.021c-1.107,4.756-2.928,9.96-5.554,15.905c-0.036,0.091-0.074,0.173-0.116,0.258
		c-1.639,3.37-3.055,7.071-4.455,11.647c-0.551,1.837-1.075,4.13-1.679,7.381c-0.426,2.843-0.186,4.483-0.005,5.215
		c0.065,0.253,0.116,0.508,0.152,0.763l0.119,0.836c0.543,3.786-1.791,7.396-5.473,8.454l-0.83,0.243
		c-0.324,0.091-0.649,0.158-0.981,0.207C436.058,131.478,434.468,131.591,432.894,131.591z"/>
	<path fill="#D34A9A" d="M429.064,126.081c-1.478,0-3.001-0.106-4.525-0.325c-4.046-0.578-7.499-2.606-9.994-5.866
		c-0.185-0.246-0.353-0.508-0.502-0.781c-3.138-5.775-3.117-13.222,0.059-22.747c2.459-7.609,5.474-15.202,8.933-22.528
		c1.285-2.91,2.339-5.37,3.132-7.298c0.307-0.748,0.573-1.503,0.841-2.275c0.21-0.59,0.417-1.18,0.639-1.776l0.036-0.14
		c0.345-1.387,1.165-2.554,2.253-3.36c-0.601-1.952-0.71-4.032-0.324-6.176c0.567-3.792,2.126-6.927,4.77-9.567
		c2.629-2.63,5.919-4.315,9.528-4.89c0.774-0.143,1.562-0.216,2.343-0.216c3.382,0,6.614,1.35,9.331,3.899
		c0.091,0.085,0.182,0.176,0.272,0.267c3.034,3.242,4.314,7.216,3.706,11.498c-0.556,3.707-2.255,7.043-4.917,9.704
		c-1.194,1.198-2.492,2.18-3.889,2.965c0.374,1.073,0.619,2.229,0.733,3.464c0.017,0.182,0.023,0.368,0.023,0.547
		c0,1.599,0,3.579-0.535,5.617c-1.083,4.656-2.865,9.771-5.457,15.634c-0.027,0.07-0.058,0.131-0.09,0.201
		c-1.676,3.446-3.126,7.229-4.554,11.887c-0.569,1.91-1.109,4.27-1.727,7.597c-0.447,2.983-0.234,4.854,0.026,5.9
		c0.05,0.198,0.087,0.395,0.116,0.596l0.12,0.833c0.426,2.959-1.399,5.775-4.274,6.602l-0.832,0.237
		c-0.251,0.073-0.509,0.134-0.765,0.17C432.061,125.968,430.553,126.081,429.064,126.081z"/>
	<path fill="#29256C" d="M428.056,125.077c-1.479,0-3-0.113-4.525-0.332c-4.042-0.575-7.499-2.606-9.993-5.866
		c-0.187-0.249-0.357-0.505-0.505-0.775c-3.137-5.778-3.116-13.226,0.062-22.75c2.456-7.608,5.466-15.205,8.932-22.531
		c1.283-2.91,2.338-5.37,3.131-7.301c0.312-0.745,0.575-1.496,0.844-2.266c0.208-0.59,0.415-1.18,0.639-1.782l0.034-0.14
		c0.35-1.387,1.165-2.551,2.253-3.357c-0.599-1.955-0.712-4.029-0.324-6.179c0.566-3.789,2.132-6.927,4.773-9.567
		c2.623-2.631,5.916-4.315,9.525-4.89c0.779-0.14,1.564-0.216,2.34-0.216c3.389,0,6.617,1.347,9.337,3.899
		c0.09,0.085,0.182,0.176,0.272,0.271c3.033,3.242,4.314,7.216,3.701,11.501c-0.554,3.698-2.254,7.04-4.915,9.701
		c-1.194,1.195-2.495,2.183-3.891,2.962c0.376,1.074,0.625,2.229,0.735,3.47c0.017,0.182,0.021,0.362,0.021,0.544
		c0,1.597,0,3.576-0.532,5.62c-1.086,4.653-2.869,9.768-5.457,15.628c-0.029,0.07-0.061,0.134-0.093,0.201
		c-1.677,3.446-3.123,7.229-4.548,11.891c-0.578,1.91-1.113,4.263-1.733,7.59c-0.447,2.992-0.233,4.859,0.024,5.903
		c0.053,0.198,0.091,0.395,0.119,0.596l0.123,0.836c0.423,2.959-1.405,5.775-4.276,6.602l-0.832,0.237
		c-0.252,0.07-0.509,0.128-0.768,0.167C431.053,124.961,429.545,125.077,428.056,125.077z"/>
	<path fill="#02AEDE" d="M429.14,121.267c-1.268,0-2.588-0.091-3.906-0.286c-2.936-0.414-5.34-1.831-7.148-4.2
		c-0.056-0.067-0.099-0.137-0.137-0.213c-2.532-4.662-2.413-10.972,0.359-19.295c2.425-7.49,5.378-14.937,8.775-22.117
		c1.295-2.941,2.374-5.455,3.19-7.432c0.333-0.803,0.622-1.639,0.921-2.485c0.22-0.629,0.45-1.277,0.69-1.919l0.1-0.374
		c0.184-0.733,0.835-1.244,1.58-1.244h0.601c0.376-0.024,0.859-0.043,1.346-0.043c0.584,0,1.167,0.024,1.759,0.07
		c-0.258-0.201-0.515-0.423-0.766-0.657c-2.26-2.405-3.076-5.097-2.513-8.058c0.404-2.853,1.537-5.152,3.55-7.165
		c2.025-2.028,4.457-3.263,7.229-3.68c0.467-0.094,1.017-0.146,1.562-0.146c2.265,0,4.456,0.936,6.353,2.719
		c2.208,2.345,3.07,5.003,2.65,7.974c-0.421,2.785-1.659,5.218-3.686,7.24c-2.071,2.08-4.442,3.284-7.241,3.683
		c-0.179,0.027-0.365,0.052-0.544,0.064c0.625,0.447,1.189,0.967,1.688,1.572c0.959,1.232,1.517,2.764,1.685,4.592
		c0.006,0.052,0.007,0.097,0.007,0.149c0,1.514,0,3.074-0.419,4.601c-1.002,4.348-2.71,9.239-5.206,14.889
		c-1.802,3.707-3.327,7.694-4.82,12.575c-0.632,2.113-1.209,4.631-1.862,8.165c-0.456,2.965-0.427,5.559,0.096,7.657
		c0.014,0.052,0.025,0.106,0.031,0.161l0.119,0.83c0.119,0.809-0.379,1.578-1.163,1.8l-0.833,0.24
		c-0.064,0.021-0.138,0.036-0.21,0.045C431.708,121.169,430.422,121.267,429.14,121.267z"/>
	<path fill="#66CCE6" d="M427.316,120.905c-1.195,0-2.43-0.088-3.672-0.267c-2.521-0.362-4.59-1.593-6.155-3.658
		c-2.287-4.261-2.132-10.37,0.447-18.186c2.381-7.444,5.284-14.834,8.623-21.959c1.302-2.98,2.372-5.504,3.181-7.499
		c0.342-0.815,0.64-1.673,0.944-2.552c0.225-0.654,0.452-1.313,0.705-1.974l0.11-0.453c0.026-0.088,0.103-0.152,0.195-0.152h0.591
		c0.438-0.031,0.888-0.043,1.341-0.043c1.33,0,2.679,0.131,4.125,0.405c1.993,0.377,3.54,1.259,4.72,2.691
		c0.766,0.988,1.201,2.232,1.346,3.804c0,1.438,0,2.907-0.362,4.242c-0.985,4.318-2.652,9.129-5.083,14.694
		c-1.797,3.728-3.33,7.776-4.832,12.733c-0.645,2.168-1.221,4.732-1.882,8.323c-0.488,3.199-0.45,5.979,0.111,8.262l0.123,0.855
		c0.015,0.1-0.044,0.195-0.138,0.222l-0.829,0.234C429.715,120.817,428.506,120.905,427.316,120.905z M440.991,63.387
		c-2.021,0-3.792-0.751-5.421-2.293c-1.869-2.013-2.542-4.215-2.065-6.742c0.37-2.594,1.359-4.641,3.125-6.423
		c1.787-1.803,3.929-2.907,6.363-3.272c0.443-0.088,0.891-0.137,1.337-0.137c1.872,0,3.712,0.809,5.322,2.332
		c1.841,1.977,2.551,4.176,2.189,6.733c-0.365,2.466-1.457,4.629-3.243,6.432c-1.834,1.852-3.917,2.928-6.373,3.278
		C441.804,63.353,441.389,63.387,440.991,63.387L440.991,63.387z"/>
</g>
<g>
	<path opacity="0.2" fill="#29256C" d="M464.089,135.663c-3.204,0-6.423-0.639-9.564-1.898c-0.143-0.052-0.284-0.118-0.423-0.179
		c-3.196-1.508-5.877-3.591-7.96-6.194c-0.137-0.177-0.269-0.353-0.395-0.542c-3.963-5.945-5.41-12.809-4.305-20.378
		c0.927-6.374,2.672-12.234,5.177-17.416c2.085-4.568,4.818-8.892,8.349-13.216c3.853-4.878,8.491-8.454,13.788-10.637
		c0.192-0.076,0.383-0.146,0.578-0.21c2.883-0.925,5.602-1.371,8.304-1.371c1.463,0,2.921,0.14,4.335,0.41
		c4.741,0.794,8.807,3.135,12.088,6.967c0.216,0.249,0.417,0.511,0.598,0.794c3.213,4.914,4.086,10.367,2.523,15.771
		c-1.134,4.297-3.372,8.378-6.473,11.806c-0.297,0.325-0.601,0.645-0.908,0.964c1.718,1.84,2.451,4.461,1.846,6.998l-0.596,2.509
		c-0.95,4.2-2.582,8.317-4.969,12.502c-2.525,4.416-6.128,7.977-10.72,10.604c-0.195,0.112-0.397,0.216-0.598,0.31
		C471.299,134.851,467.711,135.663,464.089,135.663z"/>
	<path fill="#29256C" d="M464.089,130.621c-3.204,0-6.423-0.639-9.564-1.891c-0.143-0.064-0.284-0.122-0.423-0.186
		c-3.196-1.505-5.877-3.591-7.96-6.192c-0.137-0.179-0.269-0.353-0.395-0.544c-3.963-5.948-5.41-12.803-4.305-20.381
		c0.927-6.374,2.672-12.228,5.177-17.41c2.085-4.568,4.818-8.898,8.349-13.22c3.853-4.875,8.491-8.457,13.788-10.634
		c0.192-0.073,0.383-0.146,0.578-0.21c2.883-0.927,5.602-1.371,8.304-1.371c1.463,0,2.921,0.134,4.335,0.41
		c4.741,0.791,8.807,3.136,12.088,6.964c0.216,0.249,0.417,0.517,0.598,0.793c3.213,4.915,4.086,10.367,2.523,15.777
		c-1.134,4.297-3.372,8.375-6.473,11.799c-0.297,0.322-0.601,0.648-0.908,0.961c1.718,1.843,2.451,4.461,1.846,7.001l-0.596,2.506
		c-0.95,4.203-2.582,8.327-4.969,12.508c-2.525,4.416-6.128,7.98-10.72,10.604c-0.195,0.11-0.397,0.213-0.598,0.31
		C471.299,129.806,467.711,130.621,464.089,130.621z"/>
	<path fill="#D34A9A" d="M460.259,125.113c-2.991,0-5.998-0.599-8.939-1.776c-0.112-0.045-0.223-0.094-0.334-0.146
		c-2.96-1.393-5.437-3.324-7.364-5.723c-0.11-0.137-0.211-0.277-0.309-0.423c-3.727-5.589-5.085-12.055-4.038-19.204
		c0.903-6.213,2.596-11.912,5.034-16.945c2.034-4.458,4.709-8.688,8.173-12.924c3.611-4.583,8.036-8.007,13.083-10.087
		c0.149-0.064,0.299-0.116,0.453-0.167c2.715-0.87,5.264-1.293,7.788-1.293c1.364,0,2.725,0.128,4.04,0.386
		c4.352,0.724,8.089,2.883,11.111,6.405c0.17,0.198,0.325,0.407,0.467,0.62c2.939,4.501,3.739,9.479,2.311,14.408
		c-1.069,4.045-3.177,7.886-6.1,11.121c-0.695,0.757-1.416,1.493-2.161,2.202c2.217,1.347,3.312,3.974,2.71,6.499l-0.598,2.506
		c-0.917,4.054-2.489,8.028-4.794,12.067c-2.406,4.203-5.706,7.466-10.095,9.98c-0.152,0.085-0.307,0.164-0.465,0.24
		C466.99,124.35,463.633,125.113,460.259,125.113z"/>
	<path fill="#29256C" d="M459.249,124.101c-2.989,0-5.995-0.593-8.938-1.773c-0.112-0.043-0.225-0.094-0.333-0.146
		c-2.962-1.399-5.441-3.321-7.366-5.723c-0.109-0.134-0.21-0.277-0.309-0.419c-3.725-5.592-5.085-12.058-4.039-19.207
		c0.905-6.21,2.596-11.909,5.033-16.939c2.036-4.464,4.709-8.694,8.174-12.927c3.61-4.589,8.036-8.01,13.084-10.087
		c0.148-0.061,0.3-0.119,0.45-0.167c2.719-0.873,5.263-1.292,7.79-1.292c1.364,0,2.723,0.128,4.042,0.383
		c4.35,0.727,8.086,2.883,11.107,6.407c0.173,0.198,0.327,0.405,0.465,0.618c2.942,4.501,3.742,9.479,2.31,14.408
		c-1.063,4.048-3.17,7.888-6.096,11.121c-0.698,0.76-1.415,1.496-2.16,2.202c2.22,1.35,3.313,3.975,2.71,6.502l-0.598,2.506
		c-0.917,4.057-2.489,8.029-4.794,12.064c-2.407,4.205-5.705,7.472-10.095,9.978c-0.152,0.088-0.306,0.167-0.464,0.243
		C465.981,123.344,462.626,124.101,459.249,124.101z"/>
	<path fill="#02AEDE" d="M460.338,120.297c-2.434,0-4.897-0.496-7.327-1.463c-2.446-1.149-4.405-2.673-5.912-4.552
		c-0.031-0.036-0.058-0.073-0.085-0.112c-3.112-4.668-4.241-10.108-3.357-16.163c0.847-5.8,2.422-11.094,4.677-15.738
		c1.866-4.102,4.355-8.04,7.598-12.003c3.192-4.054,7.025-7.031,11.369-8.816c0.042-0.021,0.083-0.036,0.125-0.052
		c2.281-0.727,4.396-1.086,6.462-1.086c1.116,0,2.226,0.109,3.298,0.319c3.336,0.541,6.155,2.162,8.545,4.954
		c0.047,0.055,0.09,0.11,0.126,0.167c2.274,3.476,2.863,7.14,1.75,10.896c-0.864,3.348-2.641,6.596-5.12,9.336
		c-2.881,3.141-6.268,5.818-10.066,7.959c-3.488,2.004-7.125,3.549-10.82,4.589c0.132,0.937,0.52,1.712,1.203,2.418
		c0.722,0.538,1.445,0.803,2.453,0.909c1.303-0.009,2.37-0.143,3.268-0.411c3.172-0.848,6.087-2.421,8.965-4.82l1.88-1.642
		c0.306-0.267,0.687-0.405,1.073-0.405c0.29,0,0.581,0.079,0.841,0.237c0.608,0.365,0.909,1.083,0.744,1.773l-0.593,2.506
		c-0.833,3.683-2.253,7.259-4.342,10.921c-2.007,3.506-4.779,6.24-8.478,8.354c-0.038,0.027-0.084,0.049-0.126,0.07
		C465.821,119.67,463.078,120.297,460.338,120.297z M474.725,75.809c-0.181,0.052-0.348,0.103-0.471,0.164
		c-0.04,0.024-0.079,0.04-0.117,0.061l-0.321,0.121c-0.371,0.143-0.558,0.222-0.697,0.316c-0.04,0.021-0.082,0.049-0.123,0.073
		c-2.402,1.308-4.455,3.291-5.944,5.735c-0.887,1.36-1.653,2.752-2.293,4.166c1.67-1.043,3.259-2.183,4.747-3.415
		C471.862,80.979,473.626,78.549,474.725,75.809z"/>
	<path fill="#66CCE6" d="M458.498,119.934c-2.229,0-4.492-0.459-6.727-1.362c-2.147-1.025-3.921-2.408-5.273-4.111
		c-2.89-4.382-3.935-9.482-3.112-15.181c0.816-5.653,2.329-10.811,4.504-15.318c1.809-4.017,4.209-7.858,7.341-11.723
		c3.026-3.883,6.623-6.709,10.7-8.402c2.132-0.687,4.083-1.022,5.979-1.022c1.014,0,2.018,0.097,2.989,0.295
		c3.009,0.486,5.521,1.949,7.665,4.476c2.027,3.126,2.552,6.392,1.574,9.725c-0.812,3.169-2.46,6.21-4.762,8.786
		c-2.744,3.02-5.98,5.605-9.611,7.666c-3.698,2.147-7.559,3.747-11.472,4.75c-0.078,1.864,0.471,3.327,1.718,4.589
		c0.958,0.748,1.952,1.125,3.301,1.256c1.445,0,2.661-0.161,3.701-0.475c3.298-0.888,6.365-2.554,9.374-5.09l1.884-1.664
		c0.036-0.033,0.082-0.045,0.132-0.045c0.034,0,0.068,0.009,0.102,0.027c0.074,0.046,0.111,0.131,0.091,0.219l-0.591,2.506
		c-0.795,3.555-2.156,7.007-4.153,10.537c-1.855,3.287-4.428,5.848-7.861,7.831C463.52,119.354,461.006,119.934,458.498,119.934z
		 M472.902,75.359c-0.412,0.106-0.885,0.216-1.259,0.407l-0.322,0.131c-0.412,0.161-0.683,0.274-0.954,0.45
		c-2.614,1.444-4.83,3.604-6.432,6.258c-1.665,2.576-2.923,5.294-3.745,8.089c2.989-1.551,5.776-3.394,8.287-5.489
		c2.728-2.396,4.695-5.255,5.839-8.497c0.107-0.146,0.107-0.523,0.107-0.651c-0.022-0.024-0.043-0.106-0.061-0.182
		c-0.062-0.225-0.087-0.301-0.182-0.347c-0.224-0.213-0.651-0.219-1.064-0.219L472.902,75.359z"/>
</g>
<g>
</g>
<g>
</g>
<g>
</g>
<g>
</g>
<g>
</g>
<g>
</g>
</svg>
