<?xml version="1.0" encoding="utf-8"?>
<!-- Generator: Adobe Illustrator 17.0.0, SVG Export Plug-In . SVG Version: 6.00 Build 0)  -->
<!DOCTYPE svg PUBLIC "-//W3C//DTD SVG 1.1//EN" "http://www.w3.org/Graphics/SVG/1.1/DTD/svg11.dtd">
<svg version="1.1" id="Layer_1" xmlns="http://www.w3.org/2000/svg" xmlns:xlink="http://www.w3.org/1999/xlink" x="0px" y="0px"
	 width="3000px" height="600px" viewBox="0 0 3000 600" enable-background="new 0 0 3000 600" xml:space="preserve">
<g id="XMLID_19_">
	<g>
		<path fill="#F8EC24" d="M424.313,342.717l103.45-6.48c2.239,16.802,6.799,29.605,13.681,38.404
			c11.199,14.243,27.201,21.361,48.004,21.361c15.519,0,27.482-3.638,35.883-10.921c8.401-7.279,12.601-15.722,12.601-25.322
			c0-9.121-4.001-17.281-12.001-24.482c-8.003-7.2-26.563-14-55.685-20.401c-47.686-10.719-81.69-24.963-102.009-42.725
			c-20.484-17.762-30.723-40.402-30.723-67.926c0-18.081,5.239-35.163,15.722-51.245c10.479-16.081,26.241-28.72,47.284-37.923
			c21.04-9.2,49.883-13.802,86.528-13.802c44.963,0,79.245,8.363,102.85,25.082c23.601,16.723,37.642,43.324,42.124,79.808
			l-102.49,6.001c-2.723-15.842-8.442-27.363-17.161-34.563c-8.724-7.201-20.762-10.801-36.124-10.801
			c-12.643,0-22.165,2.682-28.562,8.04c-6.402,5.363-9.601,11.882-9.601,19.562c0,5.603,2.64,10.644,7.921,15.121
			c5.119,4.643,17.281,8.963,36.483,12.961c47.524,10.242,81.566,20.604,102.129,31.083c20.559,10.482,35.523,23.484,44.884,39.004
			c9.361,15.523,14.042,32.883,14.042,52.085c0,22.562-6.241,43.365-18.722,62.405c-12.481,19.044-29.924,33.483-52.325,43.324
			c-22.405,9.841-50.645,14.762-84.728,14.762c-59.848,0-101.289-11.521-124.332-34.563
			C440.395,407.523,427.351,378.24,424.313,342.717z"/>
		<path fill="#F8EC24" d="M802.588,107.255h108.97v351.873h-108.97V107.255z"/>
		<path fill="#F8EC24" d="M1166.461,331.676v-73.207h168.016v150.014c-32.163,21.925-60.605,36.843-85.328,44.764
			c-24.723,7.921-54.046,11.882-87.968,11.882c-41.764,0-75.81-7.118-102.129-21.362c-26.324-14.24-46.726-35.44-61.206-63.605
			c-14.484-28.162-21.722-60.486-21.722-96.97c0-38.403,7.921-71.804,23.762-100.209c15.841-28.401,39.041-49.962,69.606-64.686
			c23.841-11.36,55.925-17.042,96.249-17.042c38.883,0,67.964,3.521,87.248,10.561c19.28,7.044,35.283,17.965,48.004,32.764
			c12.721,14.803,22.281,33.565,28.683,56.285l-104.89,18.722c-4.32-13.28-11.641-23.439-21.962-30.483
			c-10.321-7.039-23.485-10.561-39.484-10.561c-23.845,0-42.844,8.281-57.005,24.843c-14.161,16.562-21.242,42.765-21.242,78.606
			c0,38.085,7.159,65.287,21.482,81.608c14.319,16.322,34.282,24.482,59.885,24.482c12.159,0,23.762-1.759,34.803-5.28
			c11.041-3.518,23.68-9.519,37.924-18.002v-33.123H1166.461z"/>
		<path fill="#F8EC24" d="M1399.763,107.255h101.529l132.492,194.673V107.255h102.49v351.873h-102.49l-131.771-193.204v193.204
			h-102.25V107.255z"/>
		<path fill="#F8EC24" d="M2037.502,107.255h108.49v209.641c0,20.788-3.24,40.417-9.721,58.884
			c-6.481,18.471-16.645,34.623-30.483,48.454c-13.843,13.832-28.363,23.545-43.563,29.141
			c-21.122,7.834-46.486,11.754-76.087,11.754c-17.124,0-35.805-1.2-56.046-3.597c-20.244-2.404-37.166-7.156-50.765-14.274
			c-13.603-7.114-26.042-17.229-37.323-30.34s-19.003-26.624-23.162-40.538c-6.721-22.386-10.081-42.214-10.081-59.483V107.255
			h108.49v214.632c0,19.187,5.318,34.177,15.961,44.967c10.641,10.793,25.401,16.187,44.284,16.187
			c18.722,0,33.401-5.314,44.045-15.946c10.64-10.633,15.961-25.701,15.961-45.207V107.255z"/>
		<path fill="#F8EC24" d="M2217.519,107.255h180.736c39.364,0,68.846,9.36,88.448,28.082c19.6,18.722,29.402,45.364,29.402,79.928
			c0,35.523-10.681,63.287-32.043,83.287c-21.361,20.005-53.967,30.003-97.809,30.003h-59.525v130.572h-109.21V107.255z
			 M2326.729,257.269h26.643c20.961,0,35.681-3.638,44.164-10.921c8.479-7.279,12.721-16.6,12.721-27.963
			c0-11.041-3.683-20.402-11.041-28.083c-7.361-7.681-21.204-11.521-41.523-11.521h-30.963V257.269z"/>
	</g>
	<g>
		<g>
			<path fill="#010101" d="M613.977,563.513c-73.634,0-125.563-16.629-158.754-50.835c-31.49-32.453-49.508-73.634-53.554-122.398
				c-1.237-14.898,3.407-29.682,12.881-41.007c6.894-8.242,15.921-14.146,25.908-17.11c-17.215-24.3-26.175-53.205-26.175-85.109
				c0-28.952,8.075-56.4,24.001-81.581c15.951-25.229,39.315-44.909,69.438-58.487c27.559-12.42,62.086-18.457,105.557-18.457
				c55.575,0,98.409,11.547,130.951,35.302c18.372,13.416,33.142,30.874,43.908,51.896c9.848,19.229,16.345,41.593,19.31,66.472
				c1.816,15.234-2.565,30.563-12.102,42.352c-2.266,2.8-4.775,5.342-7.483,7.601c3.584,4.659,6.851,9.506,9.795,14.537
				c14.181,24.235,21.371,51.411,21.371,80.778c0,33.463-9.08,64.706-26.988,92.861c-17.865,28.093-42.821,49.536-74.172,63.73
				C688.951,557.15,654.969,563.513,613.977,563.513z"/>
			<path fill="#010101" d="M822.417,557.511c-29.77,0-53.904-24.872-53.904-55.554V150.085c0-30.682,24.134-55.554,53.904-55.554
				h105.734c29.77,0,53.904,24.873,53.904,55.554v351.873c0,30.682-24.134,55.554-53.904,55.554H822.417z"/>
			<path fill="#010101" d="M1170.36,563.513c-49.399,0-91.372-9.44-124.752-28.059c-35.148-19.596-62.629-48.89-81.671-87.063
				c-17.942-35.954-27.041-77.128-27.041-122.371c0-47.805,10.054-90.624,29.883-127.268c20.815-38.462,51.507-67.959,91.224-87.677
				c0.068-0.034,0.137-0.068,0.206-0.102c30.753-15.103,68.886-22.445,116.578-22.445c44.488,0,78.226,4.556,103.14,13.928
				c27.404,10.318,50.604,26.714,68.973,48.736c17.443,20.918,30.508,46.968,38.838,77.432c3.657,13.376,2.302,27.611-3.677,39.926
				c6.513,9.183,10.355,20.5,10.355,32.746v150.014c0,18.372-8.813,35.556-23.542,45.903c-35.841,25.18-67.475,42.112-96.708,51.766
				C1242.961,558.623,1208.71,563.513,1170.36,563.513z"/>
			<path fill="#010101" d="M1628.926,557.511c-17.822,0-34.491-9.077-44.532-24.251l-29.422-44.458v13.155
				c0,30.682-24.133,55.554-53.904,55.554h-99.213c-29.77,0-53.904-24.872-53.904-55.554V150.085
				c0-30.682,24.134-55.554,53.904-55.554h98.514c17.841,0,34.525,9.097,44.563,24.297l30.09,45.565v-14.309
				c0-30.682,24.134-55.554,53.905-55.554h99.446c29.77,0,53.905,24.873,53.905,55.554v351.873
				c0,30.682-24.134,55.554-53.905,55.554H1628.926z"/>
			<path fill="#010101" d="M1970.814,563.512c-18.636,0-39.065-1.339-60.719-3.981c-26.122-3.197-48.967-10.001-67.917-20.225
				c-19.185-10.341-36.712-24.921-52.077-43.325c-15.87-19.008-27.059-39.484-33.26-60.861
				c-8.095-27.789-12.039-52.472-12.039-75.394V150.085c0-30.682,24.133-55.554,53.904-55.554h105.268
				c29.77,0,53.904,24.873,53.904,55.554v214.632c0,2.456,0.18,4.188,0.369,5.332c0.957,0.143,2.325,0.267,4.183,0.267
				c1.731,0,3.035-0.108,3.977-0.239c0.181-1.201,0.342-2.95,0.342-5.359V150.085c0-30.682,24.134-55.554,53.905-55.554h105.268
				c29.771,0,53.904,24.873,53.904,55.554v209.641c0,26.973-4.196,52.973-12.473,77.279c-8.958,26.31-23.202,49.644-42.336,69.353
				c-18.923,19.487-39.694,33.608-61.737,41.975C2036.878,558.405,2005.771,563.512,1970.814,563.512z"/>
			<path fill="#010101" d="M2195.323,557.511c-29.771,0-53.904-24.872-53.904-55.554V150.085c0-30.682,24.133-55.554,53.904-55.554
				h175.368c52.353,0,93.752,14.623,123.052,43.461c29.995,29.529,45.203,69.937,45.203,120.103
				c0,63.954-26.188,102.645-48.155,123.841c-30.937,29.86-75.264,45.004-131.745,45.004h-3.854v75.018
				c0,30.682-24.134,55.554-53.904,55.554H2195.323z"/>
		</g>
		<g>
			<path fill="#010101" d="M605.329,549.236c-74.378,0-126.832-16.629-160.358-50.835c-31.808-32.453-50.008-73.634-54.095-122.398
				c-1.249-14.898,3.441-29.682,13.011-41.007c6.964-8.242,16.082-14.146,26.169-17.11c-17.389-24.3-26.44-53.205-26.44-85.109
				c0-28.952,8.157-56.4,24.243-81.581c16.112-25.229,39.712-44.909,70.14-58.487c27.838-12.42,62.714-18.457,106.624-18.457
				c56.136,0,99.403,11.547,132.274,35.302c18.557,13.416,33.477,30.874,44.352,51.896c9.947,19.229,16.51,41.593,19.505,66.472
				c1.834,15.234-2.59,30.563-12.224,42.352c-2.289,2.8-4.823,5.342-7.558,7.601c3.62,4.659,6.92,9.506,9.894,14.537
				c14.324,24.235,21.587,51.411,21.587,80.778c0,33.463-9.172,64.706-27.26,92.861c-18.045,28.093-43.253,49.536-74.921,63.73
				C681.06,542.873,646.734,549.236,605.329,549.236z"/>
			<path fill="#010101" d="M815.874,543.234c-30.071,0-54.449-24.872-54.449-55.554V135.808c0-30.682,24.378-55.554,54.449-55.554
				h106.802c30.071,0,54.449,24.873,54.449,55.554v351.873c0,30.682-24.378,55.554-54.449,55.554H815.874z"/>
			<path fill="#010101" d="M1167.331,549.236c-49.898,0-92.295-9.44-126.012-28.059c-35.503-19.596-63.261-48.89-82.496-87.063
				c-18.123-35.954-27.315-77.128-27.315-122.371c0-47.805,10.156-90.624,30.185-127.268c21.026-38.462,52.027-67.959,92.145-87.677
				c0.069-0.034,0.138-0.068,0.208-0.102c31.064-15.103,69.582-22.445,117.756-22.445c44.938,0,79.016,4.556,104.182,13.928
				c27.681,10.318,51.115,26.714,69.669,48.736c17.619,20.918,30.817,46.968,39.23,77.432c3.694,13.376,2.325,27.611-3.715,39.926
				c6.578,9.183,10.46,20.5,10.46,32.746v150.014c0,18.372-8.902,35.556-23.78,45.903c-36.203,25.18-68.156,42.112-97.685,51.766
				C1240.666,544.347,1206.069,549.236,1167.331,549.236z"/>
			<path fill="#010101" d="M1630.529,543.234c-18.002,0-34.839-9.077-44.982-24.251l-29.719-44.458v13.155
				c0,30.682-24.377,55.554-54.448,55.554h-100.215c-30.071,0-54.449-24.872-54.449-55.554V135.808
				c0-30.682,24.378-55.554,54.449-55.554h99.509c18.021,0,34.874,9.097,45.013,24.297l30.394,45.565v-14.309
				c0-30.682,24.378-55.554,54.449-55.554h100.451c30.071,0,54.449,24.873,54.449,55.554v351.873
				c0,30.682-24.378,55.554-54.449,55.554H1630.529z"/>
			<path fill="#010101" d="M1975.871,549.235c-18.824,0-39.46-1.339-61.333-3.981c-26.386-3.197-49.462-10.001-68.603-20.225
				c-19.379-10.341-37.083-24.921-52.603-43.325c-16.03-19.008-27.333-39.484-33.596-60.861
				c-8.177-27.789-12.16-52.472-12.16-75.394V135.808c0-30.682,24.377-55.554,54.448-55.554h106.331
				c30.071,0,54.448,24.873,54.448,55.554V350.44c0,2.456,0.182,4.188,0.372,5.332c0.967,0.143,2.349,0.267,4.226,0.267
				c1.749,0,3.066-0.108,4.017-0.239c0.183-1.201,0.345-2.95,0.345-5.359V135.808c0-30.682,24.378-55.554,54.449-55.554h106.331
				c30.071,0,54.448,24.873,54.448,55.554v209.641c0,26.973-4.238,52.973-12.599,77.279c-9.049,26.31-23.436,49.644-42.763,69.353
				c-19.114,19.487-40.095,33.608-62.361,41.975C2042.602,544.129,2011.18,549.235,1975.871,549.235z"/>
			<path fill="#010101" d="M2202.647,543.234c-30.071,0-54.448-24.872-54.448-55.554V135.808c0-30.682,24.377-55.554,54.448-55.554
				h177.14c52.881,0,94.699,14.623,124.295,43.461c30.298,29.529,45.66,69.937,45.66,120.103
				c0,63.954-26.452,102.645-48.641,123.841c-31.25,29.86-76.025,45.004-133.075,45.004h-3.893v75.018
				c0,30.682-24.377,55.554-54.448,55.554H2202.647z"/>
		</g>
		<g>
			<path fill="#010101" d="M596.592,534.96c-75.129,0-128.113-16.629-161.978-50.835c-32.129-32.453-50.513-73.634-54.641-122.398
				c-1.262-14.898,3.476-29.682,13.142-41.007c7.034-8.242,16.245-14.146,26.434-17.11c-17.565-24.3-26.707-53.205-26.707-85.109
				c0-28.952,8.239-56.4,24.488-81.581c16.275-25.229,40.113-44.909,70.848-58.487c28.119-12.42,63.347-18.457,107.701-18.457
				c56.703,0,100.407,11.547,133.61,35.302c18.745,13.416,33.815,30.874,44.8,51.896c10.047,19.229,16.677,41.593,19.702,66.472
				c1.853,15.234-2.617,30.563-12.347,42.352c-2.312,2.8-4.872,5.342-7.635,7.601c3.656,4.659,6.99,9.506,9.994,14.537
				c14.469,24.235,21.805,51.411,21.805,80.778c0,33.463-9.264,64.706-27.536,92.861c-18.227,28.093-43.69,49.536-75.678,63.73
				C673.088,528.597,638.416,534.96,596.592,534.96z"/>
			<path fill="#010101" d="M809.264,528.958c-30.375,0-54.999-24.872-54.999-55.554V121.532c0-30.682,24.624-55.554,54.999-55.554
				h107.88c30.375,0,54.999,24.873,54.999,55.554v351.873c0,30.682-24.624,55.554-54.999,55.554H809.264z"/>
			<path fill="#010101" d="M1164.271,534.96c-50.402,0-93.227-9.44-127.285-28.059c-35.861-19.596-63.9-48.89-83.33-87.063
				c-18.306-35.954-27.59-77.128-27.59-122.371c0-47.805,10.258-90.624,30.489-127.268c21.238-38.462,52.553-67.959,93.076-87.677
				c0.07-0.034,0.14-0.068,0.21-0.102c31.378-15.103,70.285-22.445,118.945-22.445c45.392,0,79.814,4.556,105.234,13.928
				c27.96,10.318,51.632,26.714,70.373,48.736c17.797,20.918,31.128,46.968,39.626,77.432c3.731,13.376,2.349,27.611-3.752,39.926
				c6.645,9.183,10.566,20.5,10.566,32.746V422.76c0,18.372-8.992,35.556-24.02,45.903c-36.569,25.18-68.845,42.112-98.672,51.766
				C1238.347,530.07,1203.401,534.96,1164.271,534.96z"/>
			<path fill="#010101" d="M1632.148,528.958c-18.183,0-35.191-9.077-45.437-24.251l-30.019-44.458v13.155
				c0,30.682-24.623,55.554-54.998,55.554h-101.228c-30.375,0-54.999-24.872-54.999-55.554V121.532
				c0-30.682,24.624-55.554,54.999-55.554h100.514c18.203,0,35.226,9.097,45.467,24.297l30.701,45.565v-14.309
				c0-30.682,24.624-55.554,54.999-55.554h101.465c30.375,0,54.999,24.873,54.999,55.554v351.873
				c0,30.682-24.624,55.554-54.999,55.554H1632.148z"/>
			<path fill="#010101" d="M1980.978,534.959c-19.014,0-39.858-1.339-61.952-3.981c-26.653-3.197-49.961-10.001-69.296-20.225
				c-19.575-10.341-37.458-24.921-53.134-43.325c-16.192-19.008-27.609-39.484-33.936-60.861
				c-8.259-27.789-12.283-52.472-12.283-75.394V121.532c0-30.682,24.623-55.554,54.998-55.554h107.405
				c30.375,0,54.998,24.873,54.998,55.554v214.632c0,2.456,0.184,4.188,0.376,5.332c0.976,0.143,2.373,0.267,4.268,0.267
				c1.766,0,3.097-0.108,4.058-0.239c0.185-1.201,0.349-2.95,0.349-5.359V121.532c0-30.682,24.624-55.554,54.999-55.554h107.405
				c30.375,0,54.998,24.873,54.998,55.554v209.641c0,26.973-4.281,52.973-12.726,77.279c-9.14,26.31-23.673,49.644-43.196,69.353
				c-19.307,19.487-40.5,33.608-62.991,41.975C2048.384,529.853,2016.645,534.959,1980.978,534.959z"/>
			<path fill="#010101" d="M2210.045,528.958c-30.375,0-54.998-24.872-54.998-55.554V121.532c0-30.682,24.623-55.554,54.998-55.554
				h178.929c53.416,0,95.656,14.623,125.55,43.461c30.604,29.529,46.121,69.937,46.121,120.103
				c0,63.954-26.719,102.645-49.133,123.841c-31.565,29.86-76.792,45.004-134.419,45.004h-3.932v75.018
				c0,30.682-24.623,55.554-54.998,55.554H2210.045z"/>
		</g>
		<g>
			<path fill="#010101" d="M587.768,520.684c-75.888,0-129.407-16.629-163.614-50.835c-32.454-32.453-51.023-73.634-55.193-122.398
				c-1.274-14.898,3.511-29.682,13.275-41.007c7.105-8.242,16.409-14.146,26.701-17.11c-17.742-24.3-26.977-53.205-26.977-85.109
				c0-28.952,8.322-56.4,24.735-81.581c16.439-25.229,40.518-44.909,71.564-58.487C506.662,51.737,542.246,45.7,587.048,45.7
				c57.276,0,101.421,11.547,134.959,35.302c18.934,13.416,34.157,30.874,45.252,51.896c10.149,19.229,16.845,41.593,19.901,66.472
				c1.872,15.234-2.643,30.563-12.472,42.352c-2.335,2.8-4.921,5.342-7.712,7.601c3.693,4.659,7.061,9.506,10.095,14.537
				c14.615,24.235,22.025,51.411,22.025,80.778c0,33.463-9.358,64.706-27.814,92.861c-18.412,28.093-44.131,49.536-76.442,63.73
				C665.037,514.32,630.014,520.684,587.768,520.684z"/>
			<path fill="#010101" d="M802.588,514.682c-30.682,0-55.554-24.872-55.554-55.554V107.255c0-30.682,24.873-55.554,55.554-55.554
				h108.97c30.682,0,55.554,24.873,55.554,55.554v351.873c0,30.682-24.873,55.554-55.554,55.554H802.588z"/>
			<path fill="#010101" d="M1161.181,520.684c-50.911,0-94.169-9.44-128.571-28.059c-36.224-19.596-64.546-48.89-84.171-87.063
				c-18.491-35.954-27.869-77.128-27.869-122.371c0-47.805,10.362-90.624,30.797-127.268c21.453-38.462,53.083-67.959,94.016-87.677
				c0.07-0.034,0.141-0.068,0.212-0.102C1077.29,53.042,1116.59,45.7,1165.742,45.7c45.85,0,80.62,4.556,106.297,13.928
				c28.243,10.318,52.153,26.714,71.084,48.736c17.977,20.918,31.442,46.968,40.026,77.432c3.769,13.376,2.373,27.611-3.79,39.926
				c6.712,9.183,10.672,20.5,10.672,32.746v150.014c0,18.372-9.083,35.556-24.263,45.903c-36.938,25.18-69.54,42.112-99.668,51.766
				C1236.005,515.794,1200.706,520.684,1161.181,520.684z"/>
			<path fill="#010101" d="M1633.784,514.682c-18.367,0-35.547-9.077-45.896-24.251l-30.322-44.458v13.155
				c0,30.682-24.872,55.554-55.554,55.554h-102.25c-30.682,0-55.554-24.872-55.554-55.554V107.255
				c0-30.682,24.873-55.554,55.554-55.554h101.529c18.387,0,35.582,9.097,45.927,24.297l31.011,45.565v-14.309
				c0-30.682,24.873-55.554,55.555-55.554h102.49c30.682,0,55.555,24.873,55.555,55.554v351.873
				c0,30.682-24.873,55.554-55.555,55.554H1633.784z"/>
			<path fill="#010101" d="M1986.138,520.683c-19.206,0-40.261-1.339-62.578-3.981c-26.922-3.197-50.466-10.001-69.996-20.225
				c-19.772-10.341-37.836-24.921-53.671-43.325c-16.355-19.008-27.888-39.484-34.278-60.861
				c-8.343-27.789-12.407-52.472-12.407-75.394V107.255c0-30.682,24.872-55.554,55.554-55.554h108.49
				c30.682,0,55.554,24.873,55.554,55.554v214.632c0,2.456,0.186,4.188,0.38,5.332c0.986,0.143,2.396,0.267,4.312,0.267
				c1.784,0,3.128-0.108,4.099-0.239c0.187-1.201,0.353-2.95,0.353-5.359V107.255c0-30.682,24.873-55.554,55.555-55.554h108.49
				c30.682,0,55.554,24.873,55.554,55.554v209.641c0,26.973-4.324,52.973-12.854,77.279c-9.232,26.31-23.912,49.644-43.632,69.353
				c-19.502,19.487-40.909,33.608-63.627,41.975C2054.224,515.576,2022.164,520.683,1986.138,520.683z"/>
			<path fill="#010101" d="M2217.519,514.682c-30.682,0-55.554-24.872-55.554-55.554V107.255c0-30.682,24.872-55.554,55.554-55.554
				h180.736c53.955,0,96.622,14.623,126.818,43.461c30.913,29.529,46.587,69.937,46.587,120.103
				c0,63.954-26.989,102.645-49.629,123.841c-31.884,29.86-77.568,45.004-135.777,45.004h-3.972v75.018
				c0,30.682-24.872,55.554-55.554,55.554H2217.519z"/>
		</g>
	</g>
	<g>
		<path fill="#ED2025" d="M587.768,512.747c-73.676,0-125.359-15.868-158.002-48.511c-31.094-31.094-48.891-70.613-52.898-117.462
			c-1.092-12.771,3.01-25.441,11.378-35.149c8.369-9.707,20.297-15.632,33.089-16.433l2.417-0.151
			c-22.216-24.925-33.856-55.978-33.856-90.816c0-27.387,7.889-53.377,23.447-77.247c15.581-23.911,38.492-42.602,68.096-55.549
			c27.379-11.972,61.923-17.792,105.608-17.792c55.577,0,98.222,11.069,130.373,33.841c34.889,24.721,55.7,62.691,61.864,112.86
			c1.604,13.058-2.266,26.197-10.691,36.301c-3.776,4.529-8.317,8.267-13.361,11.083c5.72,6.351,10.74,13.101,15.044,20.236
			c13.858,22.98,20.884,48.778,20.884,76.68c0,31.891-8.921,61.67-26.515,88.511c-17.555,26.787-42.116,47.249-72.997,60.815
			C663.271,506.428,628.322,512.747,587.768,512.747z"/>
		<path fill="#ED2025" d="M802.588,506.746c-26.299,0-47.618-21.319-47.618-47.618V107.255c0-26.299,21.319-47.618,47.618-47.618
			h108.97c26.299,0,47.618,21.319,47.618,47.618v351.873c0,26.299-21.319,47.618-47.618,47.618H802.588z"/>
		<path fill="#ED2025" d="M1161.181,512.747c-49.578,0-91.564-9.119-124.794-27.103c-34.792-18.82-62.01-46.987-80.89-83.711
			c-17.909-34.821-26.991-74.774-26.991-118.743c0-46.436,10.023-87.955,29.792-123.402c20.641-37.005,51.098-65.398,90.529-84.393
			c0.06-0.029,0.121-0.058,0.181-0.087c30.605-14.584,68.789-21.673,116.733-21.673c44.906,0,78.786,4.398,103.576,13.447
			c26.949,9.846,49.752,25.474,67.787,46.454c17.217,20.035,30.137,45.068,38.405,74.411c3.645,12.936,1.654,26.81-5.482,38.199
			c-0.079,0.125-0.158,0.25-0.238,0.375c7.646,8.448,12.305,19.654,12.305,31.946v150.014c0,15.747-7.785,30.477-20.796,39.346
			c-36.297,24.743-68.229,41.349-97.62,50.765C1234.367,507.985,1199.882,512.747,1161.181,512.747z"/>
		<path fill="#ED2025" d="M1633.784,506.746c-15.743,0-30.469-7.781-39.339-20.787l-44.814-65.707v38.876
			c0,26.299-21.319,47.618-47.618,47.618h-102.25c-26.299,0-47.618-21.319-47.618-47.618V107.255
			c0-26.299,21.319-47.618,47.618-47.618h101.529c15.76,0,30.499,7.797,39.366,20.826l45.508,66.867v-40.075
			c0-26.299,21.319-47.618,47.618-47.618h102.49c26.299,0,47.618,21.319,47.618,47.618v351.873
			c0,26.299-21.319,47.618-47.618,47.618H1633.784z"/>
		<path fill="#ED2025" d="M1986.138,512.747c-18.896,0-39.637-1.321-61.645-3.927c-25.957-3.083-48.577-9.601-67.249-19.375
			c-18.882-9.875-36.158-23.83-51.336-41.47c-15.623-18.157-26.621-37.657-32.689-57.958c-8.12-27.048-12.076-50.984-12.076-73.121
			V107.255c0-26.299,21.319-47.618,47.618-47.618h108.49c26.299,0,47.618,21.319,47.618,47.618v214.632
			c0,6.392,1.127,10.396,2.244,11.528c0.989,1.003,4.578,2.007,10.383,2.007c5.086,0,9.165-0.792,10.393-2.018
			c0.646-0.646,1.995-4.322,1.995-11.518V107.255c0-26.299,21.319-47.618,47.618-47.618h108.49
			c26.299,0,47.618,21.319,47.618,47.618v209.641c0,26.075-4.175,51.191-12.407,74.651c-8.835,25.178-22.883,47.507-41.754,66.367
			c-18.684,18.669-39.126,32.174-60.76,40.141C2052.363,507.805,2021.227,512.747,1986.138,512.747z"/>
		<path fill="#ED2025" d="M2217.519,506.746c-26.299,0-47.618-21.319-47.618-47.618V107.255c0-26.299,21.319-47.618,47.618-47.618
			h180.736c51.844,0,92.668,13.883,121.337,41.264c29.284,27.973,44.132,66.449,44.132,114.363
			c0,49.061-15.853,88.778-47.117,118.048c-30.365,28.438-74.225,42.86-130.353,42.86h-11.907v82.954
			c0,26.299-21.319,47.618-47.618,47.618H2217.519z"/>
	</g>
	<g>
		<path fill="#231F20" d="M587.768,496.874c-69.252,0-117.264-14.347-146.778-43.861c-28.375-28.375-44.627-64.573-48.307-107.591
			c-0.728-8.514,2.007-16.961,7.586-23.433c5.579-6.472,13.531-10.422,22.059-10.956l41.542-2.602
			c-6.045-3.909-11.538-8.024-16.487-12.347c-27.223-23.633-41.614-55.397-41.614-91.86c0-24.258,7.022-47.332,20.872-68.58
			c13.863-21.274,34.44-37.988,61.159-49.674c25.332-11.077,57.796-16.461,99.248-16.461c52.177,0,91.821,10.114,121.198,30.922
			c31.089,22.028,49.688,56.292,55.284,101.842c1.069,8.705-1.51,17.465-7.127,24.201s-13.77,10.848-22.526,11.361l-12.771,0.748
			c15.071,10.759,26.99,23.336,35.578,37.573c12.345,20.47,18.604,43.51,18.604,68.481c0,28.746-8.047,55.598-23.917,79.809
			c-15.843,24.175-38.085,42.676-66.106,54.985C658.913,491.006,626.111,496.874,587.768,496.874z M562.04,345.566
			c1.696,5.53,3.478,8.325,4.41,9.517c3.542,4.504,9.088,9.174,22.999,9.174c10.616,0,14.233-2.42,15.088-3.162
			c0.547-0.474,0.941-0.868,1.221-1.176c-0.22-0.241-0.504-0.532-0.866-0.867c-1.029-0.717-9.616-6.172-41.46-13.172
			C563.382,345.869,562.455,345.66,562.04,345.566z"/>
		<path fill="#231F20" d="M802.588,490.873c-17.532,0-31.745-14.213-31.745-31.745V107.255c0-17.532,14.213-31.745,31.745-31.745
			h108.97c17.532,0,31.745,14.213,31.745,31.745v351.873c0,17.532-14.213,31.745-31.745,31.745H802.588z"/>
		<path fill="#231F20" d="M1161.181,496.874c-46.911,0-86.355-8.475-117.239-25.188c-31.929-17.272-56.938-43.183-74.329-77.01
			c-16.744-32.557-25.234-70.066-25.234-111.485c0-43.698,9.347-82.615,27.782-115.671c19.016-34.093,47.127-60.276,83.555-77.824
			c0.041-0.019,0.081-0.039,0.121-0.058c28.425-13.545,64.375-20.129,109.905-20.129c43.018,0,75.117,4.084,98.133,12.485
			c24.364,8.901,44.949,22.994,61.193,41.891c15.698,18.267,27.528,41.269,35.164,68.369c2.43,8.624,1.103,17.874-3.655,25.466
			c-2.86,4.565-6.8,8.275-11.405,10.851c12.271,4.39,21.05,16.119,21.05,29.898v150.014c0,10.498-5.19,20.317-13.864,26.23
			c-35.017,23.87-65.608,39.821-93.522,48.765C1231.092,492.367,1198.236,496.874,1161.181,496.874z M1163.341,210.287
			c-14.62,0-24.759,4.234-32.878,13.729c-6.215,7.269-13.624,23.227-13.624,57.976c0,39.306,8.519,54.882,13.597,60.669
			c2.456,2.799,5.861,6.036,11.084,8.657c-4.261-5.403-6.805-12.226-6.805-19.642v-73.207c0-17.532,14.213-31.745,31.745-31.745
			h27.163c-2.714-6.706-6.198-9.698-8.695-11.402C1180.033,211.983,1172.767,210.287,1163.341,210.287z"/>
		<path fill="#231F20" d="M1633.784,490.873c-10.495,0-20.312-5.188-26.227-13.858l-73.8-108.205v90.318
			c0,17.532-14.213,31.745-31.745,31.745h-102.25c-17.532,0-31.745-14.213-31.745-31.745V107.255
			c0-17.532,14.213-31.745,31.745-31.745h101.529c10.507,0,20.332,5.198,26.244,13.884l74.503,109.469v-91.607
			c0-17.532,14.213-31.745,31.745-31.745h102.49c17.532,0,31.745,14.213,31.745,31.745v351.873
			c0,17.532-14.213,31.745-31.745,31.745H1633.784z"/>
		<path fill="#231F20" d="M1986.138,496.874c-18.274,0-38.387-1.284-59.778-3.816c-24.026-2.854-44.8-8.8-61.754-17.675
			c-17.1-8.943-32.803-21.648-46.665-37.76c-14.159-16.456-24.089-34.002-29.514-52.151c-7.568-25.208-11.411-48.292-11.411-68.575
			V107.255c0-17.532,14.213-31.745,31.745-31.745h108.49c17.532,0,31.745,14.213,31.745,31.745v214.632
			c0,15.763,5.131,20.965,6.817,22.675c1.646,1.669,6.638,6.733,21.683,6.733c14.942,0,19.961-5.014,21.61-6.661
			c4.411-4.408,6.65-12.063,6.65-22.747V107.255c0-17.532,14.213-31.745,31.745-31.745h108.49c17.532,0,31.745,14.213,31.745,31.745
			v209.641c0,24.28-3.873,47.629-11.512,69.396c-8.04,22.913-20.824,43.233-37.996,60.396
			c-17.052,17.038-35.568,29.31-55.038,36.478C2048.69,492.253,2019.377,496.874,1986.138,496.874z"/>
		<path fill="#231F20" d="M2217.519,490.873c-17.532,0-31.745-14.213-31.745-31.745V107.255c0-17.532,14.213-31.745,31.745-31.745
			h180.736c47.622,0,84.758,12.405,110.374,36.87c26.026,24.86,39.222,59.476,39.222,102.885c0,44.493-14.162,80.312-42.092,106.461
			c-27.33,25.595-67.538,38.574-119.505,38.574h-27.78v98.827c0,17.532-14.213,31.745-31.745,31.745H2217.519z M2358.474,225.43
			c13.373-0.513,17.967-2.963,18.534-3.298c1.162-1.01,1.503-1.489,1.503-3.747c0-2.725-0.536-4.123-1.594-5.421
			c-1.42-0.611-6.517-2.361-18.443-2.435V225.43z"/>
	</g>
	<g>
		<path fill="#BDBEC0" d="M424.313,342.717l103.45-6.48c2.239,16.802,6.799,29.605,13.681,38.404
			c11.199,14.243,27.201,21.361,48.004,21.361c15.519,0,27.482-3.638,35.883-10.921c8.401-7.279,12.601-15.722,12.601-25.322
			c0-9.121-4.001-17.281-12.001-24.482c-8.003-7.2-26.563-14-55.685-20.401c-47.686-10.719-81.69-24.963-102.009-42.725
			c-20.484-17.762-30.723-40.402-30.723-67.926c0-18.081,5.239-35.163,15.722-51.245c10.479-16.081,26.241-28.72,47.284-37.923
			c21.04-9.2,49.883-13.802,86.528-13.802c44.963,0,79.245,8.363,102.85,25.082c23.601,16.723,37.642,43.324,42.124,79.808
			l-102.49,6.001c-2.723-15.842-8.442-27.363-17.161-34.563c-8.724-7.201-20.762-10.801-36.124-10.801
			c-12.643,0-22.165,2.682-28.562,8.04c-6.402,5.363-9.601,11.882-9.601,19.562c0,5.603,2.64,10.644,7.921,15.121
			c5.119,4.643,17.281,8.963,36.483,12.961c47.524,10.242,81.566,20.604,102.129,31.083c20.559,10.482,35.523,23.484,44.884,39.004
			c9.361,15.523,14.042,32.883,14.042,52.085c0,22.562-6.241,43.365-18.722,62.405c-12.481,19.044-29.924,33.483-52.325,43.324
			c-22.405,9.841-50.645,14.762-84.728,14.762c-59.848,0-101.289-11.521-124.332-34.563
			C440.395,407.523,427.351,378.24,424.313,342.717z"/>
		<path fill="#BDBEC0" d="M802.588,107.255h108.97v351.873h-108.97V107.255z"/>
		<path fill="#BDBEC0" d="M1166.461,331.676v-73.207h168.016v150.014c-32.163,21.925-60.605,36.843-85.328,44.764
			c-24.723,7.921-54.046,11.882-87.968,11.882c-41.764,0-75.81-7.118-102.129-21.362c-26.324-14.24-46.726-35.44-61.206-63.605
			c-14.484-28.162-21.722-60.486-21.722-96.97c0-38.403,7.921-71.804,23.762-100.209c15.841-28.401,39.041-49.962,69.606-64.686
			c23.841-11.36,55.925-17.042,96.249-17.042c38.883,0,67.964,3.521,87.248,10.561c19.28,7.044,35.283,17.965,48.004,32.764
			c12.721,14.803,22.281,33.565,28.683,56.285l-104.89,18.722c-4.32-13.28-11.641-23.439-21.962-30.483
			c-10.321-7.039-23.485-10.561-39.484-10.561c-23.845,0-42.844,8.281-57.005,24.843c-14.161,16.562-21.242,42.765-21.242,78.606
			c0,38.085,7.159,65.287,21.482,81.608c14.319,16.322,34.282,24.482,59.885,24.482c12.159,0,23.762-1.759,34.803-5.28
			c11.041-3.518,23.68-9.519,37.924-18.002v-33.123H1166.461z"/>
		<path fill="#BDBEC0" d="M1399.763,107.255h101.529l132.492,194.673V107.255h102.49v351.873h-102.49l-131.771-193.204v193.204
			h-102.25V107.255z"/>
		<path fill="#BDBEC0" d="M2037.502,107.255h108.49v209.641c0,20.788-3.24,40.417-9.721,58.884
			c-6.481,18.471-16.645,34.623-30.483,48.454c-13.843,13.832-28.363,23.545-43.563,29.141
			c-21.122,7.834-46.486,11.754-76.087,11.754c-17.124,0-35.805-1.2-56.046-3.597c-20.244-2.404-37.166-7.156-50.765-14.274
			c-13.603-7.114-26.042-17.229-37.323-30.34s-19.003-26.624-23.162-40.538c-6.721-22.386-10.081-42.214-10.081-59.483V107.255
			h108.49v214.632c0,19.187,5.318,34.177,15.961,44.967c10.641,10.793,25.401,16.187,44.284,16.187
			c18.722,0,33.401-5.314,44.045-15.946c10.64-10.633,15.961-25.701,15.961-45.207V107.255z"/>
		<path fill="#BDBEC0" d="M2217.519,107.255h180.736c39.364,0,68.846,9.36,88.448,28.082c19.6,18.722,29.402,45.364,29.402,79.928
			c0,35.523-10.681,63.287-32.043,83.287c-21.361,20.005-53.967,30.003-97.809,30.003h-59.525v130.572h-109.21V107.255z
			 M2326.729,257.269h26.643c20.961,0,35.681-3.638,44.164-10.921c8.479-7.279,12.721-16.6,12.721-27.963
			c0-11.041-3.683-20.402-11.041-28.083c-7.361-7.681-21.204-11.521-41.523-11.521h-30.963V257.269z"/>
	</g>
	<g>
		<path fill="#FFFFFF" d="M593.255,465.129c-58.057,0-98.583-11.088-120.452-32.956c-20.782-20.782-33.202-47.287-36.965-78.85
			l92.737-5.809c2.589,15.293,7.301,27.386,14.034,35.994c12.247,15.575,29.849,23.468,52.327,23.468
			c16.811,0,30.093-4.126,39.478-12.263c9.617-8.333,14.494-18.247,14.494-29.468c0-10.698-4.649-20.308-13.817-28.561
			c-8.804-7.92-27.834-15.012-58.178-21.683c-46.533-10.459-80.044-24.423-99.576-41.497
			c-19.417-16.836-28.847-37.699-28.847-63.794c0-16.917,4.99-33.15,14.831-48.249c9.833-15.09,24.935-27.166,44.886-35.892
			c20.246-8.853,48.618-13.342,84.329-13.342c43.589,0,77.126,8.099,99.678,24.072c20.924,14.826,34.041,38.424,39.039,70.2
			l-91.773,5.373c-3.26-14.687-9.347-25.786-18.127-33.037c-9.692-8-23.021-12.057-39.617-12.057
			c-13.906,0-24.701,3.136-32.085,9.321c-7.674,6.429-11.565,14.426-11.565,23.769c0,7.239,3.294,13.714,9.792,19.249
			c6.02,5.407,18.412,9.922,38.98,14.205c46.794,10.085,80.707,20.383,100.757,30.6c19.538,9.962,33.897,22.394,42.676,36.949
			c8.794,14.583,13.253,31.153,13.253,49.251c0,21.371-5.997,41.354-17.823,59.397c-11.829,18.048-28.632,31.946-49.943,41.309
			C654.176,460.318,626.411,465.129,593.255,465.129z"/>
		<rect x="813.562" y="118.23" fill="#FFFFFF" width="97.996" height="340.898"/>
		<path fill="#FFFFFF" d="M1166.668,465.129c-40.654,0-74.137-6.965-99.518-20.701c-25.212-13.639-45.041-34.259-58.938-61.288
			c-14.011-27.243-21.115-59.023-21.115-94.461c0-37.274,7.761-70.09,23.067-97.536c15.206-27.262,37.813-48.261,67.195-62.415
			c22.967-10.944,54.556-16.498,93.868-16.498c38.052,0,66.774,3.441,85.367,10.228c18.299,6.686,33.683,17.178,45.725,31.186
			c11.042,12.849,19.715,29.106,25.825,48.388l-94.276,16.827c-4.834-12.241-12.375-21.915-22.463-28.8
			c-11.205-7.642-25.529-11.516-42.577-11.516c-25.407,0-45.99,9.005-61.176,26.764c-14.969,17.506-22.559,45.153-22.559,82.172
			c0,39.279,7.687,67.954,22.845,85.227c15.338,17.484,36.875,26.351,64.009,26.351c12.675,0,24.945-1.864,36.471-5.54
			c11.379-3.625,24.523-9.854,39.064-18.516l2.68-1.596v-41.729h-72.727v-62.232h157.041v141.618
			c-30.6,20.642-58.015,34.918-81.515,42.447C1228.896,461.22,1199.863,465.129,1166.668,465.129z"/>
		<polygon fill="#FFFFFF" points="1642.171,459.128 1502.012,253.628 1502.012,459.128 1410.737,459.128 1410.737,118.23 
			1503.876,118.23 1644.759,325.23 1644.759,118.23 1736.274,118.23 1736.274,459.128 		"/>
		<path fill="#FFFFFF" d="M1991.625,465.129c-16.817,0-35.457-1.197-55.4-3.559c-19.498-2.315-35.939-6.921-48.865-13.687
			c-12.919-6.757-24.933-16.532-35.709-29.058c-10.724-12.463-18.147-25.427-22.064-38.53c-6.537-21.775-9.851-41.258-9.851-57.912
			V118.23h97.516v209.145c0,20.594,5.902,37.019,17.542,48.82c11.657,11.824,27.871,17.82,48.19,17.82
			c20.141,0,36.264-5.905,47.923-17.552c11.659-11.651,17.57-28.167,17.57-49.089V118.23h97.516v204.154
			c0,20.071-3.166,39.271-9.411,57.066c-6.176,17.601-15.995,33.208-29.185,46.391c-13.212,13.201-27.201,22.579-41.58,27.872
			C2045.387,461.29,2020.43,465.129,1991.625,465.129z"/>
		<path fill="#FFFFFF" d="M2228.493,459.128V118.23h175.249c37.72,0,66.203,8.937,84.658,26.563
			c18.384,17.56,27.705,43.117,27.705,75.959c0,33.78-10.196,60.455-30.306,79.282c-20.209,18.926-51.854,28.521-94.059,28.521
			h-65.013v130.572H2228.493z M2326.728,268.243h32.13c22.525,0,38.141-4.005,47.738-12.245c9.71-8.335,14.634-19.145,14.634-32.126
			c0-12.45-4.228-23.176-12.566-31.879c-8.521-8.891-23.398-13.212-45.485-13.212h-36.45V268.243z"/>
	</g>
</g>
<g>
</g>
<g>
</g>
<g>
</g>
<g>
</g>
<g>
</g>
<g>
</g>
<g>
</g>
</svg>
