<?xml version="1.0" encoding="utf-8"?>
<!-- Generator: Adobe Illustrator 17.0.0, SVG Export Plug-In . SVG Version: 6.00 Build 0)  -->
<!DOCTYPE svg PUBLIC "-//W3C//DTD SVG 1.1//EN" "http://www.w3.org/Graphics/SVG/1.1/DTD/svg11.dtd">
<svg version="1.1" id="Layer_1" xmlns="http://www.w3.org/2000/svg" xmlns:xlink="http://www.w3.org/1999/xlink" x="0px" y="0px"
	 width="3000px" height="600px" viewBox="0 0 3000 600" enable-background="new 0 0 3000 600" xml:space="preserve">
<g id="XMLID_19_">
	<g>
		<path fill="#F8EC24" d="M192.092,342.717l103.45-6.48c2.239,16.802,6.799,29.605,13.681,38.404
			c11.199,14.243,27.201,21.361,48.004,21.361c15.519,0,27.482-3.638,35.883-10.921c8.401-7.279,12.601-15.722,12.601-25.322
			c0-9.121-4.001-17.281-12.001-24.482c-8.003-7.2-26.563-14-55.685-20.401c-47.686-10.719-81.69-24.963-102.009-42.725
			c-20.484-17.762-30.723-40.402-30.723-67.926c0-18.081,5.239-35.163,15.722-51.245c10.479-16.081,26.241-28.72,47.284-37.923
			c21.04-9.2,49.883-13.802,86.528-13.802c44.963,0,79.245,8.363,102.85,25.082c23.601,16.723,37.642,43.324,42.124,79.808
			l-102.49,6.001c-2.723-15.842-8.442-27.363-17.161-34.563c-8.724-7.201-20.762-10.801-36.124-10.801
			c-12.643,0-22.165,2.682-28.562,8.04c-6.402,5.363-9.601,11.882-9.601,19.562c0,5.603,2.64,10.644,7.921,15.121
			c5.119,4.643,17.281,8.963,36.483,12.961c47.524,10.242,81.566,20.604,102.129,31.083c20.559,10.482,35.523,23.484,44.884,39.004
			c9.361,15.523,14.042,32.883,14.042,52.085c0,22.562-6.241,43.365-18.722,62.405c-12.481,19.044-29.924,33.483-52.325,43.324
			c-22.405,9.841-50.645,14.762-84.728,14.762c-59.848,0-101.289-11.521-124.332-34.563
			C208.173,407.523,195.13,378.24,192.092,342.717z"/>
		<path fill="#F8EC24" d="M795.027,107.255h108.49v209.641c0,20.788-3.24,40.417-9.721,58.884
			c-6.48,18.471-16.644,34.623-30.483,48.454c-13.842,13.832-28.364,23.545-43.564,29.141
			c-21.122,7.834-46.485,11.754-76.087,11.754c-17.124,0-35.805-1.2-56.045-3.597c-20.245-2.404-37.166-7.156-50.765-14.274
			c-13.603-7.114-26.042-17.229-37.324-30.34c-11.281-13.111-19.003-26.624-23.162-40.538
			c-6.721-22.386-10.081-42.214-10.081-59.483V107.255h108.49v214.632c0,19.187,5.318,34.177,15.961,44.967
			c10.64,10.793,25.401,16.187,44.284,16.187c18.722,0,33.4-5.314,44.044-15.946c10.64-10.633,15.961-25.701,15.961-45.207V107.255z
			"/>
		<path fill="#F8EC24" d="M1209.786,315.114l95.289,28.803c-6.402,26.726-16.483,49.047-30.243,66.967
			c-13.764,17.923-30.843,31.442-51.245,40.563c-20.402,9.121-46.366,13.682-77.887,13.682c-38.246,0-69.487-5.559-93.729-16.671
			s-45.165-30.659-62.766-58.644c-17.604-27.985-26.402-63.805-26.402-107.463c0-58.205,15.481-102.939,46.444-134.202
			s74.767-46.895,131.412-46.895c44.321,0,79.166,8.963,104.529,26.883c25.36,17.923,44.202,45.446,56.525,82.567l-96.009,21.362
			c-3.36-10.719-6.882-18.561-10.561-23.522c-6.083-8.318-13.524-14.72-22.322-19.202c-8.802-4.478-18.643-6.721-29.522-6.721
			c-24.644,0-43.526,9.912-56.645,29.729c-9.924,14.705-14.882,37.8-14.882,69.28c0,39,5.918,65.733,17.762,80.194
			c11.84,14.465,28.48,21.695,49.925,21.695c20.799,0,36.521-5.839,47.164-17.521
			C1197.263,354.32,1204.985,337.358,1209.786,315.114z"/>
		<path fill="#F8EC24" d="M1592.141,315.114l95.289,28.803c-6.401,26.726-16.482,49.047-30.243,66.967
			c-13.764,17.923-30.843,31.442-51.244,40.563c-20.402,9.121-46.366,13.682-77.888,13.682c-38.246,0-69.486-5.559-93.729-16.671
			s-45.165-30.659-62.766-58.644c-17.604-27.985-26.402-63.805-26.402-107.463c0-58.205,15.481-102.939,46.444-134.202
			s74.767-46.895,131.412-46.895c44.321,0,79.166,8.963,104.529,26.883c25.36,17.923,44.202,45.446,56.525,82.567l-96.009,21.362
			c-3.36-10.719-6.882-18.561-10.561-23.522c-6.084-8.318-13.524-14.72-22.322-19.202c-8.803-4.478-18.644-6.721-29.523-6.721
			c-24.644,0-43.526,9.912-56.645,29.729c-9.924,14.705-14.882,37.8-14.882,69.28c0,39,5.918,65.733,17.762,80.194
			c11.84,14.465,28.48,21.695,49.925,21.695c20.8,0,36.521-5.839,47.164-17.521C1579.618,354.32,1587.341,337.358,1592.141,315.114z
			"/>
		<path fill="#F8EC24" d="M1739.995,107.255h291.387v75.127h-182.417v55.925h169.216v71.767h-169.216v69.366h187.697v79.688
			h-296.667V107.255z"/>
		<path fill="#F8EC24" d="M2076.266,342.717l103.449-6.48c2.239,16.802,6.799,29.605,13.681,38.404
			c11.199,14.243,27.202,21.361,48.005,21.361c15.519,0,27.482-3.638,35.884-10.921c8.4-7.279,12.601-15.722,12.601-25.322
			c0-9.121-4.002-17.281-12.001-24.482c-8.003-7.2-26.563-14-55.686-20.401c-47.686-10.719-81.689-24.963-102.009-42.725
			c-20.484-17.762-30.723-40.402-30.723-67.926c0-18.081,5.239-35.163,15.721-51.245c10.479-16.081,26.241-28.72,47.285-37.923
			c21.039-9.2,49.883-13.802,86.527-13.802c44.963,0,79.245,8.363,102.85,25.082c23.601,16.723,37.643,43.324,42.124,79.808
			l-102.489,6.001c-2.723-15.842-8.442-27.363-17.162-34.563c-8.723-7.201-20.762-10.801-36.123-10.801
			c-12.643,0-22.165,2.682-28.562,8.04c-6.402,5.363-9.601,11.882-9.601,19.562c0,5.603,2.64,10.644,7.92,15.121
			c5.119,4.643,17.282,8.963,36.483,12.961c47.524,10.242,81.566,20.604,102.13,31.083c20.56,10.482,35.523,23.484,44.884,39.004
			c9.361,15.523,14.042,32.883,14.042,52.085c0,22.562-6.241,43.365-18.723,62.405c-12.48,19.044-29.924,33.483-52.324,43.324
			c-22.404,9.841-50.645,14.762-84.728,14.762c-59.849,0-101.29-11.521-124.332-34.563S2079.303,378.24,2076.266,342.717z"/>
		<path fill="#F8EC24" d="M2431.259,342.717l103.449-6.48c2.239,16.802,6.799,29.605,13.681,38.404
			c11.199,14.243,27.202,21.361,48.005,21.361c15.519,0,27.482-3.638,35.884-10.921c8.4-7.279,12.601-15.722,12.601-25.322
			c0-9.121-4.002-17.281-12.001-24.482c-8.003-7.2-26.563-14-55.686-20.401c-47.686-10.719-81.689-24.963-102.009-42.725
			c-20.484-17.762-30.723-40.402-30.723-67.926c0-18.081,5.239-35.163,15.721-51.245c10.479-16.081,26.241-28.72,47.285-37.923
			c21.039-9.2,49.883-13.802,86.527-13.802c44.963,0,79.245,8.363,102.85,25.082c23.601,16.723,37.643,43.324,42.124,79.808
			l-102.489,6.001c-2.723-15.842-8.442-27.363-17.162-34.563c-8.723-7.201-20.762-10.801-36.123-10.801
			c-12.643,0-22.165,2.682-28.562,8.04c-6.402,5.363-9.601,11.882-9.601,19.562c0,5.603,2.64,10.644,7.92,15.121
			c5.119,4.643,17.282,8.963,36.483,12.961c47.524,10.242,81.566,20.604,102.13,31.083c20.56,10.482,35.523,23.484,44.884,39.004
			c9.361,15.523,14.042,32.883,14.042,52.085c0,22.562-6.241,43.365-18.723,62.405c-12.48,19.044-29.924,33.483-52.324,43.324
			c-22.404,9.841-50.645,14.762-84.728,14.762c-59.849,0-101.29-11.521-124.332-34.563S2434.296,378.24,2431.259,342.717z"/>
	</g>
	<g>
		<g>
			<path fill="#010101" d="M388.686,563.513c-73.634,0-125.563-16.629-158.754-50.835c-31.49-32.453-49.508-73.634-53.554-122.398
				c-1.237-14.898,3.407-29.682,12.881-41.007c6.894-8.242,15.921-14.146,25.908-17.11c-17.215-24.3-26.175-53.205-26.175-85.109
				c0-28.952,8.075-56.4,24.001-81.581c15.951-25.229,39.315-44.909,69.438-58.487c27.559-12.42,62.086-18.457,105.557-18.457
				c55.575,0,98.409,11.547,130.951,35.302c18.372,13.416,33.142,30.874,43.908,51.896c9.847,19.229,16.345,41.593,19.31,66.472
				c1.816,15.234-2.565,30.563-12.102,42.352c-2.266,2.8-4.775,5.342-7.483,7.601c3.584,4.659,6.851,9.506,9.795,14.537
				c14.181,24.235,21.371,51.411,21.371,80.778c0,33.463-9.08,64.706-26.988,92.861c-17.865,28.093-42.821,49.536-74.172,63.73
				C463.659,557.15,429.677,563.513,388.686,563.513z"/>
			<path fill="#010101" d="M765.274,563.512c-18.637,0-39.065-1.339-60.719-3.981c-26.122-3.197-48.966-10.001-67.917-20.225
				c-19.185-10.341-36.713-24.921-52.077-43.325c-15.871-19.01-27.06-39.486-33.26-60.861c-8.095-27.789-12.04-52.472-12.04-75.394
				V150.085c0-30.682,24.134-55.554,53.904-55.554h105.268c29.77,0,53.904,24.873,53.904,55.554v214.632
				c0,2.456,0.179,4.188,0.369,5.332c0.957,0.143,2.325,0.267,4.183,0.267c1.731,0,3.035-0.108,3.976-0.238
				c0.181-1.202,0.343-2.951,0.343-5.36V150.085c0-30.682,24.134-55.554,53.904-55.554h105.268c29.77,0,53.904,24.873,53.904,55.554
				v209.641c0,26.974-4.197,52.975-12.474,77.28c-8.955,26.307-23.199,49.642-42.335,69.352
				c-18.915,19.479-39.675,33.597-61.711,41.965C831.36,558.401,800.242,563.512,765.274,563.512z"/>
			<path fill="#010101" d="M1155.37,563.513c-45.369,0-82.464-7.106-113.407-21.725c-33.11-15.641-61.395-42.412-84.07-79.567
				c-22.489-36.846-33.893-82.953-33.893-137.041c0-73.099,20.412-131.404,60.67-173.295c40.4-42.04,96.186-63.355,165.808-63.355
				c54.164,0,98.753,12.47,132.529,37.065c34.097,24.835,59.295,61.989,74.901,110.436c4.804,14.914,3.255,31.227-4.264,44.898
				c-7.518,13.671-20.303,23.42-35.187,26.833l-43.598,9.998l50.747,15.809c27.327,8.513,43.475,37.507,36.825,66.12
				c-7.957,34.234-21.082,63.794-39.011,87.859c-18.804,25.236-42.516,44.562-70.476,57.446
				C1225.898,557.454,1193.981,563.513,1155.37,563.513z M1143.027,369.954c0.351,0.202,2.337,0.841,6.287,0.841
				c3.579,0,5.762-0.363,6.89-0.634c1.95-2.78,5.648-9.571,8.657-23.938c2.249-10.74,7.511-20.446,14.997-27.993
				c-8.092-6.683-14.388-15.824-17.701-26.716c-1.397-4.592-2.412-7.051-2.876-8.08c-0.836-1.026-1.484-1.459-2.064-1.763
				c-1.046-0.549-2.851-0.667-4.176-0.667c-6.905,0-7.88,1.517-10.015,4.841c-0.088,0.137-0.177,0.274-0.267,0.411
				c-0.039,0.064-5.217,8.746-5.217,38.204C1137.543,355.97,1141.999,367.675,1143.027,369.954z"/>
			<path fill="#010101" d="M1526.369,563.513c-45.368,0-82.464-7.106-113.406-21.725c-33.109-15.641-61.395-42.412-84.07-79.567
				C1306.404,425.375,1295,379.268,1295,325.18c0-73.099,20.412-131.404,60.67-173.295c40.4-42.04,96.186-63.355,165.808-63.355
				c54.163,0,98.753,12.47,132.529,37.065c34.097,24.835,59.295,61.99,74.901,110.436c4.804,14.914,3.255,31.227-4.264,44.898
				c-7.519,13.671-20.303,23.42-35.188,26.833l-43.597,9.998l50.747,15.809c27.326,8.513,43.474,37.506,36.825,66.119
				c-7.957,34.235-21.083,63.797-39.014,87.861c-18.802,25.234-42.513,44.562-70.475,57.445
				C1596.897,557.454,1564.98,563.513,1526.369,563.513z M1514.026,369.954c0.352,0.202,2.338,0.841,6.288,0.841
				c3.58,0,5.762-0.363,6.891-0.634c1.949-2.78,5.648-9.571,8.655-23.936c2.25-10.741,7.511-20.447,14.998-27.996
				c-8.092-6.682-14.388-15.823-17.701-26.715c-1.395-4.587-2.41-7.047-2.875-8.077c-0.973-1.193-1.666-1.556-2.066-1.766
				c-1.045-0.548-2.85-0.667-4.176-0.667c-6.905,0-7.879,1.517-10.014,4.84c-0.088,0.138-0.177,0.275-0.267,0.412
				c-0.039,0.064-5.216,8.746-5.216,38.204C1508.542,355.97,1512.998,367.675,1514.026,369.954z"/>
			<path fill="#010101" d="M1732.014,557.511c-29.77,0-53.904-24.872-53.904-55.554V150.085c0-30.682,24.133-55.554,53.904-55.554
				h282.732c29.77,0,53.904,24.873,53.904,55.554v75.127c0,15.135-5.87,28.854-15.395,38.874c1.679,5.372,2.586,11.103,2.586,17.051
				v71.767c0,8.506-1.853,16.563-5.169,23.77c13.965,10.039,23.103,26.719,23.103,45.597v79.688
				c0,30.682-24.134,55.554-53.905,55.554H1732.014z"/>
			<path fill="#010101" d="M2216.897,563.513c-73.635,0-125.565-16.629-158.756-50.835c-31.489-32.454-49.507-73.636-53.553-122.399
				c-1.236-14.898,3.408-29.682,12.881-41.007c6.894-8.241,15.922-14.145,25.907-17.109c-17.215-24.3-26.175-53.204-26.175-85.109
				c0-28.951,8.075-56.398,23.999-81.579c15.953-25.231,39.317-44.911,69.442-58.489c27.558-12.42,62.085-18.457,105.556-18.457
				c55.575,0,98.409,11.547,130.951,35.302c18.372,13.416,33.143,30.875,43.909,51.896c9.848,19.229,16.345,41.594,19.31,66.473
				c1.816,15.234-2.565,30.563-12.102,42.351c-2.266,2.8-4.775,5.342-7.482,7.601c3.583,4.659,6.851,9.507,9.795,14.537
				c14.181,24.235,21.371,51.412,21.371,80.778c0,33.463-9.081,64.706-26.99,92.862c-17.862,28.091-42.818,49.535-74.17,63.729
				C2291.871,557.15,2257.889,563.513,2216.897,563.513z"/>
			<path fill="#010101" d="M2561.347,563.513c-73.636,0-125.565-16.629-158.756-50.835c-31.489-32.454-49.507-73.635-53.553-122.399
				c-1.236-14.898,3.407-29.682,12.881-41.007c6.894-8.241,15.921-14.145,25.907-17.109c-17.215-24.3-26.175-53.204-26.175-85.109
				c0-28.951,8.075-56.398,23.999-81.579c15.952-25.231,39.317-44.911,69.442-58.489c27.558-12.419,62.085-18.457,105.556-18.457
				c55.575,0,98.41,11.547,130.951,35.302c18.372,13.416,33.143,30.875,43.909,51.896c9.848,19.229,16.345,41.594,19.31,66.473
				c1.816,15.234-2.565,30.563-12.102,42.351c-2.266,2.8-4.775,5.342-7.482,7.601c3.583,4.659,6.851,9.507,9.795,14.538
				c14.181,24.234,21.37,51.411,21.37,80.777c0,33.463-9.08,64.706-26.989,92.862c-17.862,28.091-42.818,49.535-74.17,63.729
				C2636.321,557.15,2602.338,563.513,2561.347,563.513z"/>
		</g>
		<g>
			<path fill="#010101" d="M377.75,549.236c-74.378,0-126.832-16.629-160.358-50.835c-31.808-32.453-50.008-73.634-54.095-122.398
				c-1.249-14.898,3.441-29.682,13.011-41.007c6.964-8.242,16.082-14.146,26.169-17.11c-17.389-24.3-26.44-53.205-26.44-85.109
				c0-28.952,8.157-56.4,24.243-81.581c16.112-25.229,39.712-44.909,70.14-58.487c27.838-12.42,62.713-18.457,106.624-18.457
				c56.136,0,99.403,11.547,132.274,35.302c18.557,13.416,33.477,30.874,44.352,51.896c9.947,19.229,16.51,41.593,19.505,66.472
				c1.834,15.234-2.59,30.563-12.224,42.352c-2.289,2.8-4.823,5.342-7.558,7.601c3.62,4.659,6.92,9.506,9.894,14.537
				c14.324,24.235,21.587,51.411,21.587,80.778c0,33.463-9.172,64.706-27.26,92.861c-18.045,28.093-43.253,49.536-74.921,63.73
				C453.481,542.873,419.156,549.236,377.75,549.236z"/>
			<path fill="#010101" d="M758.142,549.235c-18.825,0-39.46-1.339-61.332-3.981c-26.386-3.197-49.461-10.001-68.603-20.225
				c-19.379-10.341-37.083-24.921-52.603-43.325c-16.031-19.01-27.334-39.486-33.596-60.861
				c-8.177-27.789-12.161-52.472-12.161-75.394V135.808c0-30.682,24.378-55.554,54.449-55.554h106.331
				c30.071,0,54.449,24.873,54.449,55.554V350.44c0,2.456,0.181,4.188,0.372,5.332c0.966,0.143,2.348,0.267,4.226,0.267
				c1.748,0,3.066-0.108,4.017-0.238c0.183-1.202,0.346-2.951,0.346-5.36V135.808c0-30.682,24.378-55.554,54.449-55.554h106.331
				c30.071,0,54.449,24.873,54.449,55.554v209.641c0,26.974-4.239,52.975-12.6,77.28c-9.045,26.307-23.433,49.642-42.763,69.352
				c-19.106,19.479-40.076,33.597-62.334,41.965C824.896,544.125,793.463,549.235,758.142,549.235z"/>
			<path fill="#010101" d="M1152.179,549.236c-45.827,0-83.297-7.106-114.552-21.725c-33.444-15.641-62.015-42.412-84.919-79.567
				c-22.716-36.846-34.235-82.953-34.235-137.041c0-73.099,20.618-131.404,61.283-173.295
				c40.808-42.04,97.158-63.355,167.483-63.355c54.711,0,99.75,12.47,133.868,37.065c34.441,24.835,59.894,61.989,75.657,110.436
				c4.853,14.914,3.288,31.227-4.307,44.898c-7.594,13.671-20.508,23.42-35.543,26.833l-44.038,9.998l51.26,15.809
				c27.603,8.513,43.914,37.507,37.197,66.12c-8.037,34.234-21.295,63.794-39.405,87.859
				c-18.994,25.236-42.945,44.562-71.188,57.446C1223.419,543.178,1191.18,549.236,1152.179,549.236z M1139.711,355.678
				c0.355,0.202,2.36,0.841,6.351,0.841c3.616,0,5.82-0.363,6.96-0.634c1.969-2.78,5.705-9.571,8.744-23.938
				c2.272-10.74,7.587-20.446,15.148-27.993c-8.173-6.683-14.533-15.824-17.88-26.716c-1.411-4.592-2.436-7.051-2.905-8.08
				c-0.844-1.026-1.499-1.459-2.085-1.763c-1.057-0.549-2.88-0.667-4.218-0.667c-6.975,0-7.959,1.517-10.116,4.841
				c-0.089,0.137-0.179,0.274-0.269,0.411c-0.039,0.064-5.27,8.746-5.27,38.204C1134.172,341.693,1138.672,353.398,1139.711,355.678
				z"/>
			<path fill="#010101" d="M1526.925,549.236c-45.826,0-83.297-7.106-114.552-21.725c-33.444-15.641-62.015-42.412-84.919-79.567
				c-22.716-36.846-34.235-82.953-34.235-137.041c0-73.099,20.618-131.404,61.282-173.295
				c40.808-42.04,97.158-63.355,167.483-63.355c54.71,0,99.75,12.47,133.868,37.065c34.441,24.835,59.894,61.99,75.657,110.436
				c4.853,14.914,3.288,31.227-4.307,44.898c-7.595,13.671-20.508,23.42-35.543,26.833l-44.038,9.998l51.26,15.809
				c27.602,8.513,43.913,37.506,37.197,66.119c-8.037,34.235-21.296,63.797-39.408,87.861
				c-18.992,25.234-42.943,44.562-71.186,57.445C1598.166,543.178,1565.926,549.236,1526.925,549.236z M1514.458,355.678
				c0.356,0.202,2.361,0.841,6.351,0.841c3.616,0,5.82-0.363,6.96-0.634c1.969-2.78,5.705-9.571,8.742-23.936
				c2.272-10.741,7.587-20.447,15.149-27.996c-8.174-6.682-14.533-15.823-17.88-26.715c-1.409-4.587-2.434-7.047-2.904-8.077
				c-0.983-1.193-1.683-1.556-2.087-1.766c-1.056-0.548-2.879-0.667-4.218-0.667c-6.974,0-7.958,1.517-10.115,4.84
				c-0.089,0.138-0.179,0.275-0.27,0.412c-0.039,0.064-5.269,8.746-5.269,38.204
				C1508.919,341.693,1513.419,353.398,1514.458,355.678z"/>
			<path fill="#010101" d="M1734.648,543.234c-30.071,0-54.448-24.872-54.448-55.554V135.808c0-30.682,24.377-55.554,54.448-55.554
				h285.588c30.071,0,54.448,24.873,54.448,55.554v75.127c0,15.135-5.929,28.854-15.55,38.874
				c1.696,5.372,2.612,11.103,2.612,17.051v71.767c0,8.506-1.872,16.563-5.221,23.77c14.106,10.039,23.336,26.719,23.336,45.597
				v79.688c0,30.682-24.378,55.554-54.449,55.554H1734.648z"/>
			<path fill="#010101" d="M2224.429,549.236c-74.379,0-126.833-16.629-160.359-50.835c-31.807-32.454-50.007-73.636-54.094-122.399
				c-1.248-14.898,3.443-29.682,13.011-41.007c6.964-8.241,16.083-14.145,26.169-17.109c-17.389-24.3-26.44-53.204-26.44-85.109
				c0-28.951,8.157-56.398,24.241-81.579c16.114-25.231,39.714-44.911,70.143-58.489c27.836-12.42,62.712-18.457,106.622-18.457
				c56.136,0,99.404,11.547,132.273,35.302c18.558,13.416,33.478,30.875,44.352,51.896c9.948,19.229,16.51,41.594,19.505,66.473
				c1.834,15.234-2.591,30.563-12.224,42.351c-2.289,2.8-4.823,5.342-7.558,7.601c3.62,4.659,6.92,9.507,9.894,14.537
				c14.324,24.235,21.587,51.412,21.587,80.778c0,33.463-9.173,64.706-27.263,92.862c-18.043,28.091-43.251,49.535-74.919,63.729
				C2300.16,542.873,2265.834,549.236,2224.429,549.236z"/>
			<path fill="#010101" d="M2572.358,549.236c-74.379,0-126.833-16.629-160.359-50.835c-31.807-32.454-50.007-73.635-54.094-122.399
				c-1.248-14.898,3.442-29.682,13.011-41.007c6.964-8.241,16.082-14.145,26.169-17.109c-17.389-24.3-26.44-53.204-26.44-85.109
				c0-28.951,8.156-56.398,24.241-81.579c16.113-25.231,39.714-44.911,70.143-58.489c27.836-12.419,62.712-18.457,106.622-18.457
				c56.136,0,99.404,11.547,132.273,35.302c18.558,13.416,33.478,30.875,44.353,51.896c9.948,19.229,16.51,41.594,19.505,66.473
				c1.834,15.234-2.591,30.563-12.225,42.351c-2.288,2.8-4.823,5.342-7.557,7.601c3.62,4.659,6.92,9.507,9.894,14.538
				c14.324,24.234,21.586,51.411,21.586,80.777c0,33.463-9.172,64.706-27.262,92.862c-18.043,28.091-43.251,49.535-74.919,63.729
				C2648.089,542.873,2613.763,549.236,2572.358,549.236z"/>
		</g>
		<g>
			<path fill="#010101" d="M366.704,534.96c-75.129,0-128.113-16.629-161.978-50.835c-32.129-32.453-50.513-73.634-54.641-122.398
				c-1.262-14.898,3.476-29.682,13.142-41.007c7.034-8.242,16.245-14.146,26.434-17.11c-17.565-24.3-26.707-53.205-26.707-85.109
				c0-28.952,8.239-56.4,24.488-81.581c16.275-25.229,40.113-44.909,70.848-58.487c28.119-12.42,63.347-18.457,107.701-18.457
				c56.703,0,100.407,11.547,133.61,35.302c18.745,13.416,33.815,30.874,44.8,51.896c10.047,19.229,16.677,41.593,19.702,66.472
				c1.853,15.234-2.617,30.563-12.347,42.352c-2.312,2.8-4.872,5.342-7.635,7.601c3.656,4.659,6.99,9.506,9.994,14.537
				c14.469,24.235,21.805,51.411,21.805,80.778c0,33.463-9.264,64.706-27.536,92.861c-18.227,28.093-43.69,49.536-75.678,63.73
				C443.2,528.597,408.528,534.96,366.704,534.96z"/>
			<path fill="#010101" d="M750.939,534.959c-19.015,0-39.858-1.339-61.951-3.981c-26.653-3.197-49.961-10.001-69.296-20.225
				c-19.575-10.341-37.458-24.921-53.135-43.325c-16.193-19.01-27.61-39.486-33.935-60.861
				c-8.26-27.789-12.284-52.472-12.284-75.394V121.532c0-30.682,24.624-55.554,54.999-55.554h107.405
				c30.375,0,54.999,24.873,54.999,55.554v214.632c0,2.456,0.183,4.188,0.376,5.332c0.976,0.143,2.372,0.267,4.268,0.267
				c1.766,0,3.097-0.108,4.057-0.238c0.185-1.202,0.349-2.951,0.349-5.36V121.532c0-30.682,24.624-55.554,54.999-55.554h107.405
				c30.375,0,54.999,24.873,54.999,55.554v209.641c0,26.974-4.282,52.975-12.727,77.28c-9.137,26.307-23.67,49.642-43.195,69.352
				c-19.299,19.479-40.481,33.597-62.964,41.965C818.367,529.849,786.617,534.959,750.939,534.959z"/>
			<path fill="#010101" d="M1148.956,534.96c-46.29,0-84.138-7.106-115.709-21.725c-33.782-15.641-62.641-42.412-85.777-79.567
				c-22.945-36.846-34.581-82.953-34.581-137.041c0-73.099,20.827-131.404,61.902-173.295c41.22-42.04,98.139-63.355,169.175-63.355
				c55.264,0,100.758,12.47,135.22,37.065c34.789,24.835,60.499,61.989,76.421,110.436c4.902,14.914,3.321,31.227-4.351,44.898
				c-7.671,13.671-20.715,23.42-35.901,26.833l-44.483,9.998l51.777,15.809c27.882,8.513,44.358,37.507,37.573,66.12
				c-8.119,34.234-21.51,63.794-39.804,87.859c-19.186,25.236-43.379,44.562-71.907,57.446
				C1220.915,528.901,1188.351,534.96,1148.956,534.96z M1136.362,341.401c0.359,0.202,2.384,0.841,6.415,0.841
				c3.652,0,5.879-0.363,7.03-0.634c1.989-2.78,5.763-9.571,8.833-23.938c2.295-10.74,7.663-20.446,15.301-27.993
				c-8.256-6.683-14.68-15.824-18.06-26.716c-1.425-4.592-2.461-7.051-2.935-8.08c-0.853-1.026-1.515-1.459-2.106-1.763
				c-1.067-0.549-2.909-0.667-4.261-0.667c-7.046,0-8.04,1.517-10.218,4.841c-0.09,0.137-0.181,0.274-0.272,0.411
				c-0.04,0.064-5.323,8.746-5.323,38.204C1130.766,327.417,1135.313,339.122,1136.362,341.401z"/>
			<path fill="#010101" d="M1527.487,534.96c-46.289,0-84.138-7.106-115.709-21.725c-33.782-15.641-62.641-42.412-85.777-79.567
				c-22.945-36.846-34.581-82.953-34.581-137.041c0-73.099,20.827-131.404,61.901-173.295c41.22-42.04,98.139-63.355,169.175-63.355
				c55.263,0,100.758,12.47,135.22,37.065c34.789,24.835,60.499,61.99,76.421,110.436c4.902,14.914,3.321,31.227-4.351,44.898
				s-20.716,23.42-35.902,26.833l-44.482,9.998l51.778,15.809c27.88,8.513,44.357,37.506,37.573,66.119
				c-8.118,34.235-21.511,63.797-39.806,87.861c-19.184,25.234-43.376,44.562-71.906,57.445
				C1599.448,528.901,1566.882,534.96,1527.487,534.96z M1514.894,341.401c0.36,0.202,2.385,0.841,6.416,0.841
				c3.653,0,5.879-0.363,7.031-0.634c1.989-2.78,5.763-9.571,8.831-23.936c2.295-10.741,7.664-20.447,15.302-27.996
				c-8.256-6.682-14.68-15.823-18.061-26.715c-1.423-4.587-2.459-7.047-2.933-8.077c-0.993-1.193-1.7-1.556-2.108-1.766
				c-1.066-0.548-2.908-0.667-4.261-0.667c-7.045,0-8.039,1.517-10.217,4.84c-0.09,0.138-0.181,0.275-0.273,0.412
				c-0.04,0.064-5.322,8.746-5.322,38.204C1509.299,327.417,1513.845,339.122,1514.894,341.401z"/>
			<path fill="#010101" d="M1737.308,528.958c-30.375,0-54.998-24.872-54.998-55.554V121.532c0-30.682,24.623-55.554,54.998-55.554
				h288.473c30.375,0,54.998,24.873,54.998,55.554v75.127c0,15.135-5.989,28.854-15.708,38.874
				c1.713,5.372,2.638,11.103,2.638,17.051v71.767c0,8.506-1.891,16.563-5.274,23.77c14.249,10.039,23.572,26.719,23.572,45.597
				v79.688c0,30.682-24.624,55.554-54.999,55.554H1737.308z"/>
			<path fill="#010101" d="M2232.036,534.96c-75.131,0-128.114-16.629-161.979-50.835c-32.129-32.454-50.512-73.636-54.641-122.399
				c-1.261-14.898,3.478-29.682,13.143-41.007c7.034-8.241,16.245-14.145,26.433-17.109c-17.565-24.3-26.707-53.204-26.707-85.109
				c0-28.951,8.239-56.398,24.486-81.579c16.277-25.231,40.115-44.911,70.852-58.489c28.117-12.42,63.345-18.457,107.699-18.457
				c56.704,0,100.407,11.547,133.609,35.302c18.745,13.416,33.816,30.875,44.8,51.896c10.048,19.229,16.677,41.594,19.702,66.473
				c1.852,15.234-2.617,30.563-12.348,42.351c-2.312,2.8-4.872,5.342-7.634,7.601c3.656,4.659,6.99,9.507,9.994,14.537
				c14.469,24.235,21.805,51.412,21.805,80.778c0,33.463-9.266,64.706-27.538,92.862c-18.225,28.091-43.688,49.535-75.676,63.73
				C2308.532,528.597,2273.86,534.96,2232.036,534.96z"/>
			<path fill="#010101" d="M2583.48,534.96c-75.131,0-128.114-16.629-161.979-50.835c-32.128-32.454-50.512-73.635-54.64-122.399
				c-1.261-14.898,3.477-29.682,13.143-41.007c7.034-8.241,16.244-14.145,26.433-17.109c-17.565-24.3-26.707-53.204-26.707-85.109
				c0-28.951,8.239-56.398,24.486-81.579c16.276-25.231,40.115-44.911,70.852-58.489c28.117-12.419,63.345-18.457,107.699-18.457
				c56.704,0,100.408,11.547,133.609,35.302c18.745,13.416,33.816,30.875,44.801,51.896c10.048,19.229,16.677,41.594,19.702,66.473
				c1.853,15.234-2.617,30.563-12.348,42.351c-2.312,2.8-4.872,5.342-7.634,7.601c3.656,4.659,6.99,9.507,9.994,14.538
				c14.469,24.234,21.804,51.411,21.804,80.777c0,33.463-9.265,64.706-27.537,92.862c-18.225,28.091-43.688,49.535-75.676,63.73
				C2659.976,528.597,2625.303,534.96,2583.48,534.96z"/>
		</g>
		<g>
			<path fill="#010101" d="M355.547,520.684c-75.888,0-129.407-16.629-163.614-50.835c-32.454-32.453-51.023-73.634-55.193-122.398
				c-1.274-14.898,3.511-29.682,13.275-41.007c7.105-8.242,16.409-14.146,26.701-17.11c-17.742-24.3-26.977-53.205-26.977-85.109
				c0-28.952,8.322-56.4,24.735-81.581c16.439-25.229,40.518-44.909,71.564-58.487C274.441,51.737,310.025,45.7,354.827,45.7
				c57.276,0,101.421,11.547,134.959,35.302c18.934,13.416,34.157,30.874,45.252,51.896c10.149,19.229,16.845,41.593,19.901,66.472
				c1.872,15.234-2.643,30.563-12.472,42.352c-2.335,2.8-4.921,5.342-7.712,7.601c3.693,4.659,7.061,9.506,10.095,14.537
				c14.615,24.235,22.025,51.411,22.025,80.778c0,33.463-9.358,64.706-27.814,92.861c-18.412,28.093-44.131,49.536-76.442,63.73
				C432.815,514.32,397.793,520.684,355.547,520.684z"/>
			<path fill="#010101" d="M743.663,520.683c-19.207,0-40.261-1.339-62.577-3.981c-26.922-3.197-50.465-10.001-69.996-20.225
				c-19.772-10.341-37.836-24.921-53.671-43.325c-16.356-19.01-27.889-39.486-34.278-60.861
				c-8.343-27.789-12.408-52.472-12.408-75.394V107.255c0-30.682,24.873-55.554,55.554-55.554h108.49
				c30.682,0,55.554,24.873,55.554,55.554v214.632c0,2.456,0.185,4.188,0.38,5.332c0.986,0.143,2.396,0.267,4.312,0.267
				c1.784,0,3.128-0.108,4.098-0.238c0.187-1.202,0.353-2.951,0.353-5.36V107.255c0-30.682,24.873-55.554,55.554-55.554h108.49
				c30.682,0,55.554,24.873,55.554,55.554v209.641c0,26.974-4.325,52.975-12.856,77.28c-9.229,26.307-23.909,49.642-43.631,69.352
				c-19.494,19.479-40.89,33.597-63.6,41.965C811.771,515.572,779.701,520.683,743.663,520.683z"/>
			<path fill="#010101" d="M1145.7,520.684c-46.757,0-84.988-7.106-116.878-21.725c-34.123-15.641-63.274-42.412-86.643-79.567
				c-23.177-36.846-34.93-82.953-34.93-137.041c0-73.099,21.037-131.404,62.527-173.295c41.637-42.04,99.13-63.355,170.884-63.355
				c55.822,0,101.776,12.47,136.586,37.065c35.141,24.835,61.11,61.989,77.193,110.436c4.951,14.914,3.354,31.227-4.395,44.898
				c-7.749,13.671-20.925,23.42-36.264,26.833l-44.932,9.998l52.3,15.809c28.164,8.513,44.806,37.507,37.952,66.12
				c-8.201,34.234-21.728,63.794-40.206,87.859c-19.38,25.236-43.817,44.562-72.634,57.446
				C1218.386,514.625,1185.493,520.684,1145.7,520.684z M1132.979,327.125c0.362,0.202,2.408,0.841,6.48,0.841
				c3.689,0,5.938-0.363,7.101-0.634c2.009-2.78,5.821-9.571,8.922-23.938c2.318-10.74,7.741-20.446,15.456-27.993
				c-8.339-6.683-14.828-15.824-18.243-26.716c-1.439-4.592-2.486-7.051-2.964-8.08c-0.861-1.026-1.53-1.459-2.127-1.763
				c-1.078-0.549-2.938-0.667-4.304-0.667c-7.117,0-8.121,1.517-10.321,4.841c-0.091,0.137-0.183,0.274-0.275,0.411
				c-0.04,0.064-5.376,8.746-5.376,38.204C1127.327,313.141,1131.919,324.846,1132.979,327.125z"/>
			<path fill="#010101" d="M1528.055,520.684c-46.757,0-84.988-7.106-116.877-21.725c-34.123-15.641-63.274-42.412-86.643-79.567
				c-23.177-36.846-34.93-82.953-34.93-137.041c0-73.099,21.037-131.404,62.527-173.295c41.637-42.04,99.13-63.355,170.884-63.355
				c55.821,0,101.775,12.47,136.586,37.065c35.141,24.835,61.11,61.99,77.193,110.436c4.951,14.914,3.354,31.227-4.395,44.898
				s-20.925,23.42-36.265,26.833l-44.932,9.998l52.301,15.809c28.162,8.513,44.805,37.506,37.952,66.119
				c-8.2,34.235-21.729,63.797-40.208,87.861c-19.378,25.234-43.814,44.562-72.632,57.445
				C1600.742,514.625,1567.848,520.684,1528.055,520.684z M1515.334,327.125c0.363,0.202,2.409,0.841,6.48,0.841
				c3.689,0,5.938-0.363,7.102-0.634c2.009-2.78,5.821-9.571,8.92-23.936c2.318-10.741,7.741-20.447,15.457-27.996
				c-8.34-6.682-14.828-15.823-18.243-26.715c-1.438-4.587-2.483-7.047-2.963-8.077c-1.003-1.193-1.717-1.556-2.129-1.766
				c-1.077-0.548-2.938-0.667-4.304-0.667c-7.116,0-8.12,1.517-10.32,4.84c-0.091,0.138-0.183,0.275-0.275,0.412
				c-0.04,0.064-5.376,8.746-5.376,38.204C1509.683,313.141,1514.274,324.846,1515.334,327.125z"/>
			<path fill="#010101" d="M1739.995,514.682c-30.682,0-55.554-24.872-55.554-55.554V107.255c0-30.682,24.872-55.554,55.554-55.554
				h291.387c30.682,0,55.554,24.873,55.554,55.554v75.127c0,15.135-6.05,28.854-15.866,38.874c1.73,5.372,2.665,11.103,2.665,17.051
				v71.767c0,8.506-1.91,16.563-5.327,23.77c14.393,10.039,23.81,26.719,23.81,45.597v79.688c0,30.682-24.873,55.554-55.555,55.554
				H1739.995z"/>
			<path fill="#010101" d="M2239.721,520.684c-75.89,0-129.408-16.629-163.615-50.835c-32.453-32.454-51.022-73.636-55.192-122.399
				c-1.273-14.898,3.513-29.682,13.275-41.007c7.105-8.241,16.409-14.145,26.7-17.109c-17.742-24.3-26.977-53.204-26.977-85.109
				c0-28.951,8.322-56.398,24.733-81.579c16.441-25.231,40.521-44.911,71.567-58.489C2158.614,51.737,2194.198,45.7,2239,45.7
				c57.276,0,101.422,11.547,134.959,35.302c18.935,13.416,34.157,30.875,45.253,51.896c10.149,19.229,16.846,41.594,19.901,66.473
				c1.871,15.234-2.644,30.563-12.473,42.351c-2.335,2.8-4.921,5.342-7.711,7.601c3.693,4.659,7.061,9.507,10.095,14.537
				c14.615,24.235,22.025,51.412,22.025,80.778c0,33.463-9.359,64.706-27.816,92.862c-18.409,28.091-44.129,49.535-76.44,63.729
				C2316.989,514.32,2281.967,520.684,2239.721,520.684z"/>
			<path fill="#010101" d="M2594.714,520.684c-75.89,0-129.408-16.629-163.615-50.835c-32.453-32.454-51.022-73.635-55.192-122.399
				c-1.273-14.898,3.512-29.682,13.275-41.007c7.105-8.241,16.408-14.145,26.7-17.109c-17.742-24.3-26.977-53.204-26.977-85.109
				c0-28.951,8.322-56.398,24.733-81.579c16.44-25.231,40.521-44.911,71.567-58.489c28.401-12.419,63.985-18.457,108.787-18.457
				c57.276,0,101.422,11.547,134.959,35.302c18.935,13.416,34.157,30.875,45.253,51.896c10.149,19.229,16.846,41.594,19.901,66.473
				c1.871,15.234-2.644,30.563-12.473,42.351c-2.335,2.8-4.921,5.342-7.711,7.601c3.693,4.659,7.061,9.507,10.095,14.538
				c14.615,24.234,22.024,51.411,22.024,80.777c0,33.463-9.358,64.706-27.815,92.862c-18.409,28.091-44.129,49.535-76.44,63.729
				C2671.982,514.32,2636.96,520.684,2594.714,520.684z"/>
		</g>
	</g>
	<g>
		<path fill="#39B54A" d="M355.547,512.747c-73.676,0-125.359-15.868-158.002-48.511c-31.094-31.094-48.891-70.613-52.898-117.462
			c-1.092-12.771,3.01-25.441,11.378-35.149c8.369-9.707,20.297-15.632,33.089-16.433l2.417-0.151
			c-22.216-24.925-33.856-55.978-33.856-90.816c0-27.387,7.889-53.377,23.447-77.247c15.581-23.911,38.492-42.602,68.096-55.549
			c27.379-11.972,61.923-17.792,105.608-17.792c55.577,0,98.222,11.069,130.373,33.841c34.889,24.721,55.7,62.691,61.864,112.86
			c1.604,13.058-2.266,26.197-10.691,36.301c-3.776,4.529-8.317,8.267-13.361,11.083c5.72,6.351,10.74,13.101,15.044,20.236
			c13.858,22.98,20.884,48.778,20.884,76.68c0,31.891-8.921,61.67-26.515,88.511c-17.555,26.787-42.116,47.249-72.997,60.815
			C431.05,506.428,396.101,512.747,355.547,512.747z"/>
		<path fill="#39B54A" d="M743.663,512.747c-18.896,0-39.636-1.321-61.644-3.928c-25.957-3.082-48.577-9.6-67.249-19.374
			c-18.882-9.875-36.159-23.83-51.336-41.47c-15.624-18.159-26.622-37.658-32.689-57.958c-8.121-27.048-12.076-50.983-12.076-73.121
			V107.255c0-26.299,21.319-47.618,47.618-47.618h108.49c26.299,0,47.618,21.319,47.618,47.618v214.632
			c0,6.392,1.126,10.395,2.244,11.526c0.991,1.006,4.579,2.009,10.384,2.009c5.085,0,9.165-0.792,10.392-2.018
			c0.646-0.646,1.996-4.322,1.996-11.518V107.255c0-26.299,21.319-47.618,47.618-47.618h108.49
			c26.299,0,47.618,21.319,47.618,47.618v209.641c0,26.076-4.174,51.192-12.408,74.652c-8.832,25.174-22.88,47.504-41.752,66.366
			c-18.677,18.663-39.109,32.164-60.737,40.132C809.908,507.801,778.761,512.747,743.663,512.747z"/>
		<path fill="#39B54A" d="M1145.7,512.747c-45.591,0-82.741-6.87-113.571-21.002c-32.696-14.987-60.699-40.752-83.231-76.579
			c-22.369-35.561-33.712-80.247-33.712-132.815c0-70.932,20.264-127.358,60.229-167.71c40.091-40.479,95.687-61.004,165.245-61.004
			c54.149,0,98.562,11.981,132.006,35.61c33.726,23.836,58.703,59.651,74.241,106.455c4.244,12.784,2.875,26.766-3.767,38.484
			c-6.642,11.718-17.936,20.075-31.083,23l-74.501,16.577l81.297,24.574c24.14,7.297,38.405,32.148,32.53,56.674
			c-7.939,33.144-20.988,61.699-38.782,84.874c-18.568,24.18-41.978,42.695-69.578,55.035
			C1216.187,506.915,1184.353,512.747,1145.7,512.747z M1126.473,331.774c1.319,1.604,3.616,4.128,12.986,4.128
			c8.399,0,11.668-1.647,11.963-1.972c2.735-3.002,7.907-10.743,11.817-28.862c2.718-12.594,10.418-23.53,21.315-30.338
			c-11.26-5.586-20.263-15.584-24.286-28.419c-1.992-6.354-3.379-9.19-3.794-9.973c-1.601-2.116-3.238-3.533-5.268-4.567
			c-0.726-0.37-3.011-1.532-7.907-1.532c-9.678,0-13.173,2.708-16.939,8.396c-0.078,0.118-0.156,0.235-0.235,0.353
			c-0.689,1.021-6.734,10.896-6.734,42.643C1119.391,319.921,1125.982,331.005,1126.473,331.774z"/>
		<path fill="#39B54A" d="M1528.055,512.747c-45.591,0-82.74-6.87-113.571-21.002c-32.696-14.987-60.699-40.752-83.231-76.579
			c-22.369-35.561-33.712-80.247-33.712-132.815c0-70.932,20.264-127.358,60.229-167.71c40.091-40.479,95.687-61.004,165.245-61.004
			c54.149,0,98.562,11.981,132.007,35.61c33.727,23.836,58.703,59.651,74.24,106.455c4.244,12.784,2.875,26.766-3.767,38.484
			c-6.642,11.718-17.936,20.075-31.084,23l-74.501,16.577l81.297,24.573c24.14,7.297,38.405,32.148,32.53,56.673
			c-7.938,33.146-20.987,61.702-38.783,84.877c-18.567,24.178-41.976,42.692-69.576,55.032
			C1598.543,506.915,1566.708,512.747,1528.055,512.747z M1508.828,331.774c1.319,1.604,3.616,4.128,12.986,4.128
			c8.399,0,11.669-1.647,11.964-1.973c2.734-3.001,7.906-10.742,11.815-28.859c2.718-12.595,10.418-23.532,21.315-30.34
			c-11.26-5.586-20.262-15.584-24.286-28.419c-1.991-6.354-3.379-9.19-3.794-9.974c-1.602-2.116-3.238-3.533-5.268-4.567
			c-0.724-0.368-3.011-1.532-7.907-1.532c-9.678,0-13.173,2.708-16.938,8.396c-0.078,0.118-0.157,0.235-0.236,0.353
			c-0.689,1.021-6.734,10.896-6.734,42.643C1501.746,319.921,1508.337,331.005,1508.828,331.774z"/>
		<path fill="#39B54A" d="M1739.995,506.746c-26.299,0-47.618-21.319-47.618-47.618V107.255c0-26.299,21.319-47.618,47.618-47.618
			h291.387c26.299,0,47.618,21.319,47.618,47.618v75.127c0,14.756-6.713,27.945-17.251,36.68c2.604,5.885,4.05,12.396,4.05,19.245
			v71.767c0,9.86-2.997,19.021-8.13,26.62c15.765,7.762,26.611,23.986,26.611,42.746v79.688c0,26.299-21.319,47.618-47.618,47.618
			H1739.995z"/>
		<path fill="#39B54A" d="M2239.721,512.747c-73.677,0-125.36-15.868-158.003-48.511c-31.095-31.095-48.892-70.614-52.897-117.463
			c-1.092-12.771,3.011-25.441,11.379-35.148c8.369-9.708,20.298-15.632,33.089-16.433l2.416-0.151
			c-22.216-24.925-33.855-55.978-33.855-90.816c0-27.386,7.889-53.375,23.446-77.245c15.581-23.913,38.494-42.604,68.098-55.551
			c27.378-11.972,61.922-17.791,105.607-17.791c55.576,0,98.222,11.069,130.372,33.841c34.891,24.722,55.702,62.692,61.864,112.86
			c1.604,13.058-2.266,26.197-10.691,36.301c-3.776,4.529-8.316,8.267-13.36,11.083c5.72,6.351,10.74,13.102,15.044,20.237
			c13.858,22.98,20.885,48.777,20.885,76.679c0,31.891-8.922,61.671-26.517,88.512c-17.554,26.785-42.114,47.248-72.996,60.814
			C2315.225,506.428,2280.274,512.747,2239.721,512.747z"/>
		<path fill="#39B54A" d="M2594.714,512.747c-73.677,0-125.36-15.868-158.003-48.511c-31.095-31.095-48.892-70.615-52.897-117.463
			c-1.091-12.771,3.011-25.441,11.38-35.148c8.368-9.708,20.297-15.632,33.088-16.433l2.416-0.151
			c-22.216-24.925-33.855-55.978-33.855-90.816c0-27.386,7.889-53.375,23.446-77.245c15.581-23.913,38.493-42.604,68.098-55.551
			c27.378-11.972,61.922-17.791,105.607-17.791c55.576,0,98.222,11.069,130.372,33.841c34.891,24.722,55.702,62.692,61.864,112.86
			c1.604,13.058-2.266,26.197-10.691,36.301c-3.776,4.529-8.316,8.267-13.36,11.082c5.72,6.351,10.741,13.103,15.044,20.237
			c13.858,22.98,20.885,48.777,20.885,76.679c0,31.891-8.922,61.671-26.517,88.512c-17.554,26.785-42.114,47.247-72.996,60.814
			C2670.218,506.428,2635.268,512.747,2594.714,512.747z"/>
	</g>
	<g>
		<path fill="#231F20" d="M355.547,496.874c-69.252,0-117.264-14.347-146.778-43.861c-28.375-28.375-44.627-64.573-48.307-107.591
			c-0.728-8.514,2.007-16.961,7.586-23.433c5.579-6.472,13.531-10.422,22.059-10.956l41.542-2.602
			c-6.045-3.909-11.538-8.024-16.487-12.347c-27.223-23.633-41.614-55.397-41.614-91.86c0-24.258,7.022-47.332,20.872-68.58
			c13.863-21.274,34.44-37.988,61.159-49.674c25.332-11.077,57.796-16.461,99.248-16.461c52.177,0,91.821,10.114,121.198,30.922
			c31.089,22.028,49.688,56.292,55.284,101.842c1.069,8.705-1.51,17.465-7.127,24.201s-13.77,10.848-22.526,11.361l-12.771,0.748
			c15.071,10.759,26.99,23.336,35.578,37.573c12.345,20.47,18.604,43.51,18.604,68.481c0,28.746-8.047,55.598-23.917,79.809
			c-15.843,24.175-38.085,42.676-66.106,54.985C426.691,491.006,393.89,496.874,355.547,496.874z M329.818,345.566
			c1.696,5.53,3.478,8.325,4.41,9.517c3.542,4.504,9.088,9.174,22.999,9.174c10.616,0,14.233-2.42,15.088-3.162
			c0.547-0.474,0.941-0.868,1.221-1.176c-0.22-0.241-0.504-0.532-0.866-0.867c-1.029-0.717-9.616-6.172-41.46-13.172
			C331.161,345.869,330.233,345.66,329.818,345.566z"/>
		<path fill="#231F20" d="M743.663,496.874c-18.274,0-38.387-1.284-59.777-3.816c-24.026-2.854-44.8-8.8-61.754-17.675
			c-17.1-8.943-32.803-21.649-46.666-37.76c-14.159-16.457-24.089-34.003-29.514-52.151c-7.568-25.208-11.411-48.292-11.411-68.575
			V107.255c0-17.532,14.213-31.745,31.745-31.745h108.49c17.532,0,31.745,14.213,31.745,31.745v214.632
			c0,15.764,5.13,20.964,6.816,22.674c1.647,1.671,6.639,6.734,21.684,6.734c14.941,0,19.96-5.014,21.609-6.661
			c4.412-4.408,6.651-12.063,6.651-22.747V107.255c0-17.532,14.213-31.745,31.745-31.745h108.49
			c17.532,0,31.745,14.213,31.745,31.745v209.641c0,24.281-3.873,47.63-11.512,69.396c-8.038,22.91-20.822,43.23-37.996,60.396
			c-17.05,17.037-35.567,29.31-55.038,36.478C806.216,492.253,776.903,496.874,743.663,496.874z"/>
		<path fill="#231F20" d="M1145.7,496.874c-42.66,0-78.645-6.58-106.957-19.558c-29.841-13.679-55.549-37.433-76.41-70.601
			c-20.752-32.991-31.275-74.834-31.275-124.365c0-66.599,18.718-119.267,55.634-156.541c37-37.358,88.802-56.301,153.967-56.301
			c50.804,0,92.136,11.002,122.848,32.701c30.897,21.836,53.888,54.973,68.335,98.492c2.829,8.522,1.917,17.844-2.511,25.656
			c-4.428,7.812-11.957,13.383-20.722,15.333l-96.009,21.362c-2.315,0.515-4.632,0.763-6.916,0.763
			c-13.597,0-26.047-8.782-30.271-22.254c-3.378-10.775-5.674-13.981-5.771-14.113c-0.042-0.056-0.083-0.111-0.124-0.167
			c-3.134-4.285-6.768-7.443-11.108-9.655c-4.309-2.191-9.257-3.261-15.112-3.261c-13.955,0-22.979,4.638-30.174,15.507
			c-0.052,0.079-0.104,0.157-0.157,0.235c-3.53,5.229-9.451,18.877-9.451,51.522c0,43.764,8.095,57.05,10.577,60.08
			c3.838,4.689,10.184,10.064,25.365,10.064c11.399,0,19.372-2.407,23.697-7.155c6.675-7.326,12.068-19.845,15.599-36.203
			c1.87-8.666,7.279-16.155,14.918-20.655c4.931-2.905,10.502-4.393,16.114-4.393c3.082,0,6.176,0.448,9.184,1.358l95.289,28.802
			c16.093,4.865,25.604,21.433,21.687,37.783c-7.417,30.962-19.507,57.51-35.936,78.905c-16.945,22.065-38.298,38.958-63.467,50.21
			C1212.133,491.341,1181.569,496.874,1145.7,496.874z"/>
		<path fill="#231F20" d="M1528.055,496.874c-42.659,0-78.645-6.58-106.957-19.558c-29.841-13.679-55.549-37.433-76.41-70.601
			c-20.752-32.991-31.275-74.834-31.275-124.365c0-66.599,18.718-119.267,55.634-156.541c37-37.358,88.802-56.301,153.967-56.301
			c50.804,0,92.136,11.002,122.848,32.701c30.897,21.836,53.889,54.973,68.336,98.492c2.829,8.522,1.916,17.844-2.512,25.656
			c-4.428,7.812-11.957,13.383-20.723,15.333l-96.009,21.362c-2.314,0.515-4.632,0.763-6.915,0.763
			c-13.597,0-26.048-8.782-30.271-22.254c-3.378-10.776-5.675-13.983-5.771-14.114c-0.041-0.055-0.081-0.109-0.121-0.164
			c-3.136-4.287-6.77-7.446-11.11-9.657c-4.308-2.191-9.258-3.261-15.112-3.261c-13.954,0-22.979,4.638-30.173,15.507
			c-0.052,0.079-0.104,0.157-0.157,0.236c-3.53,5.229-9.451,18.877-9.451,51.522c0,43.764,8.095,57.05,10.577,60.08
			c3.838,4.689,10.184,10.064,25.365,10.064c11.398,0,19.372-2.407,23.697-7.156c6.675-7.326,12.068-19.844,15.598-36.201
			c1.87-8.666,7.279-16.156,14.918-20.656c4.931-2.905,10.502-4.393,16.114-4.393c3.082,0,6.176,0.448,9.185,1.358l95.289,28.802
			c16.093,4.864,25.603,21.433,21.687,37.782c-7.416,30.963-19.507,57.511-35.937,78.906c-16.944,22.064-38.298,38.958-63.466,50.21
			C1594.488,491.341,1563.924,496.874,1528.055,496.874z"/>
		<path fill="#231F20" d="M1739.995,490.873c-17.532,0-31.745-14.213-31.745-31.745V107.255c0-17.532,14.213-31.745,31.745-31.745
			h291.387c17.532,0,31.745,14.213,31.745,31.745v75.127c0,15.287-10.807,28.051-25.197,31.069
			c7.311,5.815,11.996,14.788,11.996,24.855v71.767c0,17.532-14.213,31.745-31.745,31.745H1880.71v5.876h155.952
			c17.532,0,31.745,14.213,31.745,31.745v79.688c0,17.532-14.213,31.745-31.745,31.745H1739.995z"/>
		<path fill="#231F20" d="M2239.721,496.874c-69.253,0-117.265-14.347-146.779-43.861c-28.376-28.376-44.628-64.574-48.306-107.592
			c-0.728-8.514,2.007-16.961,7.586-23.433c5.579-6.471,13.531-10.421,22.06-10.955l41.542-2.602
			c-6.035-3.902-11.517-8.008-16.459-12.322c-27.242-23.635-41.643-55.409-41.643-91.886c0-24.257,7.021-47.33,20.87-68.579
			c13.864-21.276,34.442-37.99,61.161-49.675c25.331-11.077,57.795-16.461,99.247-16.461c52.177,0,91.821,10.114,121.198,30.921
			c31.09,22.03,49.688,56.293,55.284,101.843c1.069,8.705-1.511,17.465-7.128,24.201c-5.616,6.736-13.77,10.848-22.525,11.361
			l-12.771,0.748c15.072,10.759,26.991,23.336,35.578,37.574c12.345,20.47,18.604,43.509,18.604,68.481
			c0,28.746-8.047,55.599-23.919,79.81c-15.842,24.174-38.084,42.674-66.104,54.984
			C2310.865,491.006,2278.063,496.874,2239.721,496.874z M2213.991,345.566c1.696,5.53,3.478,8.325,4.41,9.517
			c3.541,4.504,9.088,9.174,22.999,9.174c10.616,0,14.233-2.421,15.09-3.162c0.546-0.474,0.94-0.868,1.219-1.175
			c-0.22-0.242-0.504-0.533-0.866-0.869c-1.03-0.717-9.62-6.172-41.46-13.171C2215.334,345.869,2214.407,345.66,2213.991,345.566z"
			/>
		<path fill="#231F20" d="M2594.714,496.874c-69.253,0-117.265-14.347-146.779-43.861c-28.376-28.376-44.628-64.574-48.306-107.592
			c-0.728-8.514,2.007-16.961,7.586-23.433c5.579-6.471,13.531-10.421,22.06-10.955l41.542-2.602
			c-6.046-3.909-11.538-8.024-16.488-12.347c-27.223-23.633-41.613-55.397-41.613-91.86c0-24.257,7.021-47.33,20.87-68.579
			c13.864-21.276,34.442-37.99,61.161-49.675c25.331-11.077,57.795-16.461,99.247-16.461c52.177,0,91.821,10.114,121.198,30.922
			c31.09,22.029,49.688,56.293,55.284,101.842c1.069,8.705-1.511,17.465-7.128,24.201c-5.616,6.736-13.77,10.848-22.525,11.361
			l-12.771,0.748c15.072,10.759,26.991,23.336,35.578,37.574c12.345,20.47,18.604,43.51,18.604,68.481
			c0,28.746-8.047,55.598-23.919,79.81c-15.842,24.174-38.084,42.674-66.104,54.984
			C2665.858,491.006,2633.057,496.874,2594.714,496.874z M2568.984,345.566c1.696,5.53,3.478,8.325,4.41,9.517
			c3.541,4.504,9.088,9.174,22.999,9.174c10.616,0,14.233-2.421,15.09-3.162c0.546-0.474,0.94-0.868,1.219-1.175
			c-0.22-0.242-0.504-0.533-0.866-0.869c-1.03-0.717-9.62-6.172-41.46-13.171C2570.327,345.869,2569.4,345.66,2568.984,345.566z"/>
	</g>
	<g>
		<path fill="#BDBEC0" d="M192.092,342.717l103.45-6.48c2.239,16.802,6.799,29.605,13.681,38.404
			c11.199,14.243,27.201,21.361,48.004,21.361c15.519,0,27.482-3.638,35.883-10.921c8.401-7.279,12.601-15.722,12.601-25.322
			c0-9.121-4.001-17.281-12.001-24.482c-8.003-7.2-26.563-14-55.685-20.401c-47.686-10.719-81.69-24.963-102.009-42.725
			c-20.484-17.762-30.723-40.402-30.723-67.926c0-18.081,5.239-35.163,15.722-51.245c10.479-16.081,26.241-28.72,47.284-37.923
			c21.04-9.2,49.883-13.802,86.528-13.802c44.963,0,79.245,8.363,102.85,25.082c23.601,16.723,37.642,43.324,42.124,79.808
			l-102.49,6.001c-2.723-15.842-8.442-27.363-17.161-34.563c-8.724-7.201-20.762-10.801-36.124-10.801
			c-12.643,0-22.165,2.682-28.562,8.04c-6.402,5.363-9.601,11.882-9.601,19.562c0,5.603,2.64,10.644,7.921,15.121
			c5.119,4.643,17.281,8.963,36.483,12.961c47.524,10.242,81.566,20.604,102.129,31.083c20.559,10.482,35.523,23.484,44.884,39.004
			c9.361,15.523,14.042,32.883,14.042,52.085c0,22.562-6.241,43.365-18.722,62.405c-12.481,19.044-29.924,33.483-52.325,43.324
			c-22.405,9.841-50.645,14.762-84.728,14.762c-59.848,0-101.289-11.521-124.332-34.563
			C208.173,407.523,195.13,378.24,192.092,342.717z"/>
		<path fill="#BDBEC0" d="M795.027,107.255h108.49v209.641c0,20.788-3.24,40.417-9.721,58.884
			c-6.48,18.471-16.644,34.623-30.483,48.454c-13.842,13.832-28.364,23.545-43.564,29.141
			c-21.122,7.834-46.485,11.754-76.087,11.754c-17.124,0-35.805-1.2-56.045-3.597c-20.245-2.404-37.166-7.156-50.765-14.274
			c-13.603-7.114-26.042-17.229-37.324-30.34c-11.281-13.111-19.003-26.624-23.162-40.538
			c-6.721-22.386-10.081-42.214-10.081-59.483V107.255h108.49v214.632c0,19.187,5.318,34.177,15.961,44.967
			c10.64,10.793,25.401,16.187,44.284,16.187c18.722,0,33.4-5.314,44.044-15.946c10.64-10.633,15.961-25.701,15.961-45.207V107.255z
			"/>
		<path fill="#BDBEC0" d="M1209.786,315.114l95.289,28.803c-6.402,26.726-16.483,49.047-30.243,66.967
			c-13.764,17.923-30.843,31.442-51.245,40.563c-20.402,9.121-46.366,13.682-77.887,13.682c-38.246,0-69.487-5.559-93.729-16.671
			s-45.165-30.659-62.766-58.644c-17.604-27.985-26.402-63.805-26.402-107.463c0-58.205,15.481-102.939,46.444-134.202
			s74.767-46.895,131.412-46.895c44.321,0,79.166,8.963,104.529,26.883c25.36,17.923,44.202,45.446,56.525,82.567l-96.009,21.362
			c-3.36-10.719-6.882-18.561-10.561-23.522c-6.083-8.318-13.524-14.72-22.322-19.202c-8.802-4.478-18.643-6.721-29.522-6.721
			c-24.644,0-43.526,9.912-56.645,29.729c-9.924,14.705-14.882,37.8-14.882,69.28c0,39,5.918,65.733,17.762,80.194
			c11.84,14.465,28.48,21.695,49.925,21.695c20.799,0,36.521-5.839,47.164-17.521
			C1197.263,354.32,1204.985,337.358,1209.786,315.114z"/>
		<path fill="#BDBEC0" d="M1592.141,315.114l95.289,28.803c-6.401,26.726-16.482,49.047-30.243,66.967
			c-13.764,17.923-30.843,31.442-51.244,40.563c-20.402,9.121-46.366,13.682-77.888,13.682c-38.246,0-69.486-5.559-93.729-16.671
			s-45.165-30.659-62.766-58.644c-17.604-27.985-26.402-63.805-26.402-107.463c0-58.205,15.481-102.939,46.444-134.202
			s74.767-46.895,131.412-46.895c44.321,0,79.166,8.963,104.529,26.883c25.36,17.923,44.202,45.446,56.525,82.567l-96.009,21.362
			c-3.36-10.719-6.882-18.561-10.561-23.522c-6.084-8.318-13.524-14.72-22.322-19.202c-8.803-4.478-18.644-6.721-29.523-6.721
			c-24.644,0-43.526,9.912-56.645,29.729c-9.924,14.705-14.882,37.8-14.882,69.28c0,39,5.918,65.733,17.762,80.194
			c11.84,14.465,28.48,21.695,49.925,21.695c20.8,0,36.521-5.839,47.164-17.521C1579.618,354.32,1587.341,337.358,1592.141,315.114z
			"/>
		<path fill="#BDBEC0" d="M1739.995,107.255h291.387v75.127h-182.417v55.925h169.216v71.767h-169.216v69.366h187.697v79.688
			h-296.667V107.255z"/>
		<path fill="#BDBEC0" d="M2076.266,342.717l103.449-6.48c2.239,16.802,6.799,29.605,13.681,38.404
			c11.199,14.243,27.202,21.361,48.005,21.361c15.519,0,27.482-3.638,35.884-10.921c8.4-7.279,12.601-15.722,12.601-25.322
			c0-9.121-4.002-17.281-12.001-24.482c-8.003-7.2-26.563-14-55.686-20.401c-47.686-10.719-81.689-24.963-102.009-42.725
			c-20.484-17.762-30.723-40.402-30.723-67.926c0-18.081,5.239-35.163,15.721-51.245c10.479-16.081,26.241-28.72,47.285-37.923
			c21.039-9.2,49.883-13.802,86.527-13.802c44.963,0,79.245,8.363,102.85,25.082c23.601,16.723,37.643,43.324,42.124,79.808
			l-102.489,6.001c-2.723-15.842-8.442-27.363-17.162-34.563c-8.723-7.201-20.762-10.801-36.123-10.801
			c-12.643,0-22.165,2.682-28.562,8.04c-6.402,5.363-9.601,11.882-9.601,19.562c0,5.603,2.64,10.644,7.92,15.121
			c5.119,4.643,17.282,8.963,36.483,12.961c47.524,10.242,81.566,20.604,102.13,31.083c20.56,10.482,35.523,23.484,44.884,39.004
			c9.361,15.523,14.042,32.883,14.042,52.085c0,22.562-6.241,43.365-18.723,62.405c-12.48,19.044-29.924,33.483-52.324,43.324
			c-22.404,9.841-50.645,14.762-84.728,14.762c-59.849,0-101.29-11.521-124.332-34.563S2079.303,378.24,2076.266,342.717z"/>
		<path fill="#BDBEC0" d="M2431.259,342.717l103.449-6.48c2.239,16.802,6.799,29.605,13.681,38.404
			c11.199,14.243,27.202,21.361,48.005,21.361c15.519,0,27.482-3.638,35.884-10.921c8.4-7.279,12.601-15.722,12.601-25.322
			c0-9.121-4.002-17.281-12.001-24.482c-8.003-7.2-26.563-14-55.686-20.401c-47.686-10.719-81.689-24.963-102.009-42.725
			c-20.484-17.762-30.723-40.402-30.723-67.926c0-18.081,5.239-35.163,15.721-51.245c10.479-16.081,26.241-28.72,47.285-37.923
			c21.039-9.2,49.883-13.802,86.527-13.802c44.963,0,79.245,8.363,102.85,25.082c23.601,16.723,37.643,43.324,42.124,79.808
			l-102.489,6.001c-2.723-15.842-8.442-27.363-17.162-34.563c-8.723-7.201-20.762-10.801-36.123-10.801
			c-12.643,0-22.165,2.682-28.562,8.04c-6.402,5.363-9.601,11.882-9.601,19.562c0,5.603,2.64,10.644,7.92,15.121
			c5.119,4.643,17.282,8.963,36.483,12.961c47.524,10.242,81.566,20.604,102.13,31.083c20.56,10.482,35.523,23.484,44.884,39.004
			c9.361,15.523,14.042,32.883,14.042,52.085c0,22.562-6.241,43.365-18.723,62.405c-12.48,19.044-29.924,33.483-52.324,43.324
			c-22.404,9.841-50.645,14.762-84.728,14.762c-59.849,0-101.29-11.521-124.332-34.563S2434.296,378.24,2431.259,342.717z"/>
	</g>
	<g>
		<path fill="#FFFFFF" d="M361.034,465.129c-58.057,0-98.583-11.088-120.452-32.956c-20.782-20.782-33.202-47.287-36.965-78.85
			l92.737-5.809c2.589,15.293,7.301,27.386,14.034,35.994c12.247,15.575,29.849,23.468,52.327,23.468
			c16.811,0,30.093-4.126,39.478-12.263c9.617-8.333,14.494-18.247,14.494-29.468c0-10.698-4.649-20.308-13.817-28.561
			c-8.804-7.92-27.834-15.012-58.178-21.683c-46.533-10.459-80.044-24.423-99.576-41.497
			c-19.417-16.836-28.847-37.699-28.847-63.794c0-16.917,4.99-33.15,14.831-48.249c9.833-15.09,24.935-27.166,44.886-35.892
			c20.246-8.853,48.618-13.342,84.329-13.342c43.589,0,77.126,8.099,99.678,24.072c20.924,14.826,34.041,38.424,39.039,70.2
			l-91.773,5.373c-3.26-14.687-9.347-25.786-18.127-33.037c-9.692-8-23.021-12.057-39.617-12.057
			c-13.906,0-24.701,3.136-32.085,9.321c-7.674,6.429-11.565,14.426-11.565,23.769c0,7.239,3.294,13.714,9.792,19.249
			c6.02,5.407,18.412,9.922,38.98,14.205c46.794,10.085,80.707,20.383,100.757,30.6c19.538,9.962,33.897,22.394,42.676,36.949
			c8.794,14.583,13.253,31.153,13.253,49.251c0,21.371-5.997,41.354-17.823,59.397c-11.829,18.048-28.632,31.946-49.943,41.309
			C421.954,460.318,394.19,465.129,361.034,465.129z"/>
		<path fill="#FFFFFF" d="M749.15,465.129c-16.817,0-35.457-1.197-55.4-3.559c-19.498-2.315-35.939-6.92-48.865-13.687
			c-12.919-6.757-24.933-16.533-35.709-29.058c-10.724-12.464-18.147-25.428-22.064-38.53c-6.538-21.775-9.851-41.258-9.851-57.912
			V118.23h97.516v209.145c0,20.595,5.902,37.02,17.542,48.82c11.656,11.824,27.87,17.82,48.19,17.82
			c20.14,0,36.263-5.905,47.922-17.552c11.659-11.651,17.571-28.167,17.571-49.089V118.23h97.516v204.154
			c0,20.072-3.167,39.272-9.411,57.066c-6.175,17.6-15.994,33.207-29.185,46.391c-13.21,13.2-27.201,22.578-41.581,27.872
			C802.913,461.29,777.956,465.129,749.15,465.129z"/>
		<path fill="#FFFFFF" d="M1151.187,465.129c-37.267,0-68.033-5.44-91.442-16.172c-23.145-10.608-43.468-29.644-60.407-56.576
			c-16.961-26.963-25.56-62.136-25.56-104.542c0-56.436,15.091-100.289,44.855-130.341c29.75-30.038,72.652-45.269,127.514-45.269
			c42.957,0,77.06,8.706,101.363,25.877c22.946,16.217,40.588,41.118,52.492,74.066l-85.15,18.946
			c-3.096-8.961-6.323-15.649-9.812-20.355c-6.546-8.952-14.708-15.968-24.239-20.823c-9.547-4.857-20.317-7.319-32.013-7.319
			c-26.484,0-47.082,10.83-61.22,32.188c-10.619,15.734-15.794,39.4-15.794,72.309c0,40.688,6.216,68.056,19.004,83.67
			c12.875,15.729,31.101,23.706,54.17,23.706c22.312,0,39.545-6.498,51.22-19.313c10.294-11.299,18.061-27.303,23.126-47.633
			l84.672,25.594c-6.231,23.663-15.639,43.791-27.998,59.887c-13.138,17.107-29.668,30.194-49.132,38.896
			C1207.237,460.686,1181.785,465.129,1151.187,465.129z"/>
		<path fill="#FFFFFF" d="M1533.542,465.129c-37.267,0-68.032-5.44-91.442-16.172c-23.145-10.608-43.468-29.644-60.407-56.576
			c-16.961-26.963-25.56-62.136-25.56-104.542c0-56.436,15.091-100.289,44.855-130.341c29.75-30.038,72.652-45.269,127.514-45.269
			c42.957,0,77.06,8.706,101.363,25.877c22.947,16.217,40.589,41.118,52.492,74.066l-85.15,18.946
			c-3.096-8.961-6.322-15.648-9.812-20.355c-6.548-8.953-14.711-15.968-24.239-20.823c-9.549-4.857-20.319-7.319-32.015-7.319
			c-26.484,0-47.082,10.83-61.22,32.188c-10.618,15.734-15.793,39.4-15.793,72.309c0,40.688,6.216,68.056,19.004,83.67
			c12.875,15.729,31.101,23.706,54.17,23.706c22.312,0,39.545-6.498,51.22-19.313c10.296-11.301,18.062-27.304,23.126-47.633
			l84.673,25.594c-6.231,23.663-15.639,43.791-27.998,59.887c-13.138,17.107-29.668,30.194-49.132,38.896
			C1589.593,460.686,1564.14,465.129,1533.542,465.129z"/>
		<polygon fill="#FFFFFF" points="1750.969,459.128 1750.969,118.23 2031.382,118.23 2031.382,182.382 1848.965,182.382 
			1848.965,249.282 2018.18,249.282 2018.18,310.074 1848.965,310.074 1848.965,390.415 2036.662,390.415 2036.662,459.128 		"/>
		<path fill="#FFFFFF" d="M2245.208,465.129c-58.058,0-98.584-11.088-120.452-32.956c-20.782-20.782-33.202-47.288-36.965-78.85
			l92.736-5.809c2.59,15.294,7.302,27.387,14.033,35.994c12.247,15.575,29.85,23.468,52.327,23.468
			c16.811,0,30.093-4.126,39.478-12.262c9.617-8.334,14.494-18.249,14.494-29.469c0-10.697-4.648-20.307-13.817-28.561
			c-8.803-7.92-27.833-15.012-58.179-21.683c-46.532-10.459-80.043-24.423-99.575-41.497
			c-19.416-16.835-28.847-37.698-28.847-63.794c0-16.917,4.989-33.15,14.83-48.249c9.833-15.091,24.936-27.166,44.887-35.892
			c20.246-8.853,48.618-13.342,84.329-13.342c43.59,0,77.126,8.099,99.678,24.072c20.925,14.827,34.042,38.425,39.039,70.2
			l-91.772,5.373c-3.261-14.687-9.347-25.786-18.128-33.037c-9.691-8-23.021-12.057-39.617-12.057
			c-13.906,0-24.702,3.136-32.086,9.321c-7.674,6.428-11.564,14.425-11.564,23.769c0,7.239,3.295,13.715,9.792,19.25
			c6.019,5.406,18.411,9.921,38.98,14.205c46.794,10.085,80.706,20.383,100.757,30.6c19.539,9.962,33.897,22.394,42.677,36.949
			c8.794,14.583,13.253,31.154,13.253,49.251c0,21.37-5.997,41.354-17.824,59.397c-11.828,18.048-28.631,31.946-49.942,41.309
			C2306.128,460.318,2278.364,465.129,2245.208,465.129z"/>
		<path fill="#FFFFFF" d="M2600.201,465.129c-58.058,0-98.584-11.088-120.452-32.956c-20.782-20.782-33.203-47.288-36.965-78.85
			l92.736-5.809c2.59,15.294,7.302,27.387,14.033,35.994c12.247,15.575,29.85,23.468,52.327,23.468
			c16.811,0,30.093-4.126,39.479-12.262c9.616-8.334,14.493-18.249,14.493-29.469c0-10.697-4.648-20.307-13.817-28.561
			c-8.803-7.92-27.833-15.012-58.179-21.683c-46.532-10.459-80.043-24.423-99.575-41.497
			c-19.416-16.835-28.847-37.698-28.847-63.794c0-16.917,4.989-33.15,14.83-48.249c9.833-15.091,24.936-27.166,44.887-35.892
			c20.246-8.853,48.618-13.342,84.329-13.342c43.59,0,77.126,8.099,99.678,24.072c20.925,14.827,34.042,38.425,39.039,70.2
			l-91.772,5.373c-3.261-14.687-9.347-25.786-18.128-33.037c-9.691-8-23.021-12.057-39.617-12.057
			c-13.906,0-24.702,3.136-32.086,9.321c-7.674,6.428-11.564,14.425-11.564,23.769c0,7.239,3.295,13.715,9.792,19.25
			c6.019,5.406,18.411,9.921,38.98,14.205c46.794,10.085,80.707,20.383,100.757,30.6c19.539,9.962,33.897,22.394,42.677,36.949
			c8.794,14.583,13.253,31.154,13.253,49.251c0,21.37-5.997,41.354-17.824,59.397c-11.828,18.048-28.631,31.946-49.942,41.309
			C2661.121,460.318,2633.357,465.129,2600.201,465.129z"/>
	</g>
</g>
<g>
</g>
<g>
</g>
<g>
</g>
<g>
</g>
<g>
</g>
<g>
</g>
</svg>
